<svg width="750" height="500" viewBox="0 0 750 500" fill="none" xmlns="http://www.w3.org/2000/svg">
<g clip-path="url(#clip0_3056_15885)">
<path d="M750 0H0V500H750V0Z" fill="white"/>
<path d="M654.325 349.341C654.168 349.508 653.99 349.665 653.791 349.807C652.736 350.618 651.422 350.79 650.103 350.278C648.494 349.655 647.173 348.11 646.889 346.52C646.293 344.939 646.451 342.439 647.195 340.287C646.508 340.227 645.847 340.317 645.252 340.598C643.883 341.242 642.068 343.027 641.4 345.067C641.053 346.128 641.09 347.058 641.51 347.828C641.642 348.071 641.554 348.374 641.31 348.507C641.067 348.639 640.764 348.549 640.631 348.306C640.082 347.298 640.02 346.069 640.45 344.754C641.111 342.731 642.993 340.552 644.825 339.693C645.679 339.291 646.62 339.191 647.577 339.324C647.735 338.981 647.908 338.651 648.097 338.345C649.026 336.307 650.308 334.993 651.878 334.498C653.567 333.966 655.589 334.382 657.888 335.735C658.126 335.875 658.205 336.181 658.066 336.42C657.924 336.658 657.619 336.737 657.38 336.597C655.335 335.395 653.585 335.009 652.178 335.452C650.885 335.86 649.809 336.991 648.976 338.816C648.834 339.047 648.702 339.291 648.579 339.546C650.827 340.219 653.027 342.04 654.253 344.125C655.473 346.201 655.484 348.096 654.325 349.341ZM648.192 340.474C647.477 342.461 647.306 344.799 647.848 346.257C648.094 347.589 649.183 348.85 650.462 349.346C651.156 349.615 652.194 349.774 653.193 349.006C654.954 347.732 653.916 345.528 653.391 344.634C652.263 342.714 650.205 341.041 648.192 340.474Z" fill="black"/>
<path d="M218.768 365.445C220.241 363.483 222.391 362.239 224.873 361.925C226.035 361.83 227.312 362.057 228.527 362.527C229.393 361.56 230.496 360.833 231.762 360.411C233.969 359.676 236.477 359.944 238.64 361.146C241.301 362.667 242.167 364.627 243.187 367.446C243.281 367.705 243.146 367.992 242.887 368.086C242.628 368.18 242.341 368.045 242.247 367.786C241.279 365.108 240.563 363.397 238.151 362.018C236.237 360.954 234.02 360.714 232.078 361.36C231.085 361.69 230.208 362.238 229.494 362.959C230.59 363.518 231.588 364.272 232.34 365.155C233.76 366.823 234.248 368.775 233.752 370.799C233.45 372.026 232.61 372.925 231.504 373.207C230.235 373.533 228.823 373.013 227.729 371.819C226.361 370.153 226.151 367.038 227.219 364.551C227.41 364.124 227.635 363.721 227.889 363.345C226.909 363.002 225.898 362.842 224.976 362.917C222.648 363.212 220.635 364.457 219.322 366.389C217.946 368.433 217.517 370.969 218.146 373.348C218.216 373.615 218.056 373.889 217.79 373.96C217.524 374.03 217.25 373.871 217.179 373.605C216.476 370.947 216.955 368.114 218.493 365.832C218.581 365.699 218.674 365.57 218.768 365.445ZM232.347 371.5C232.542 371.24 232.69 370.923 232.778 370.56C233.306 368.413 232.416 366.788 231.578 365.802C230.858 364.957 229.889 364.245 228.834 363.738C228.564 364.111 228.328 364.518 228.134 364.954C227.22 367.08 227.372 369.81 228.482 371.165C229.305 372.062 230.348 372.471 231.255 372.239C231.696 372.125 232.07 371.869 232.347 371.5Z" fill="black"/>
<path d="M253.162 103.572C253.003 103.797 252.692 103.852 252.467 103.694C248.968 101.252 246.424 97.4433 245.828 93.756C245.407 91.1499 245.958 88.6619 247.425 86.5355C245.994 83.0515 246.83 78.4709 249.47 75.7925C251.019 74.2216 253.089 73.3499 255.091 72.5071C258.792 70.9487 261.99 69.6016 260.906 64.209C260.851 63.9387 261.026 63.6744 261.298 63.6201C261.568 63.5647 261.832 63.7407 261.887 64.0118C263.133 70.2058 259.244 71.8443 255.478 73.4288C253.567 74.2328 251.591 75.0654 250.183 76.4942C247.984 78.7274 247.183 82.5729 248.149 85.5989C250.774 82.5622 254.01 82.3481 256.251 83.2192C258.339 84.03 259.735 85.7998 259.571 87.4256C259.477 88.3648 258.787 90.033 255.229 90.643C252.052 91.1871 249.42 90.0714 247.942 87.5753C246.842 89.3872 246.463 91.4083 246.817 93.5954C247.372 97.025 249.757 100.58 253.041 102.873C253.267 103.031 253.323 103.343 253.165 103.57C253.163 103.571 253.162 103.572 253.162 103.572ZM248.576 86.6545C248.594 86.6888 248.611 86.7231 248.629 86.758C249.866 89.1266 252.148 90.1564 255.059 89.6578C257.18 89.2945 258.462 88.4437 258.575 87.3263C258.692 86.1577 257.538 84.7925 255.888 84.1526C254.91 83.7716 251.526 82.8466 248.576 86.6545Z" fill="black"/>
<path d="M648.542 232.669C645.04 232.669 642.316 230.508 641.604 227.165C640.96 224.14 641.948 222.117 642.889 220.953C644.243 219.28 646.424 218.281 648.723 218.281C651.931 218.281 654.624 220.12 655.928 223.2C656.51 224.622 656.419 226.327 655.676 228.007C654.826 229.927 653.227 231.509 651.502 232.136C650.53 232.49 649.534 232.669 648.542 232.669ZM648.723 219.28C646.723 219.28 644.833 220.14 643.666 221.581C642.512 223.008 642.137 224.867 642.582 226.956C643.191 229.819 645.531 231.668 648.542 231.668C649.417 231.668 650.298 231.509 651.16 231.196C652.637 230.658 654.017 229.281 654.761 227.601C655.394 226.172 655.48 224.746 655.004 223.583C653.865 220.891 651.516 219.28 648.723 219.28Z" fill="#F2AC30"/>
<path d="M141.216 361.169C141.541 357.682 143.946 355.171 147.341 354.772C150.413 354.41 152.336 355.582 153.407 356.629C154.948 358.132 155.741 360.396 155.527 362.685C155.23 365.879 153.149 368.389 149.961 369.402C148.489 369.849 146.8 369.602 145.195 368.705C143.362 367.68 141.937 365.942 141.472 364.167C141.211 363.165 141.124 362.158 141.216 361.169ZM154.532 362.592C154.717 360.6 154.036 358.639 152.709 357.344C151.395 356.062 149.58 355.516 147.458 355.766C144.551 356.107 142.491 358.265 142.212 361.263C142.131 362.134 142.207 363.026 142.44 363.914C142.838 365.434 144.081 366.936 145.683 367.832C147.048 368.595 148.461 368.813 149.664 368.447C152.45 367.562 154.273 365.373 154.532 362.592Z" fill="#70BADB"/>
<path d="M625.525 271.223C626.46 269.603 628.124 268.555 629.975 268.419L647.765 267.117C649.254 267.009 650.7 267.49 651.837 268.473C652.975 269.454 653.661 270.814 653.77 272.303L655.073 290.097C655.154 291.215 654.899 292.321 654.337 293.295C653.401 294.916 651.737 295.964 649.884 296.1L632.094 297.403C629.009 297.626 626.316 295.299 626.089 292.216L624.788 274.428C624.707 273.305 624.962 272.198 625.525 271.223ZM653.472 292.793C653.934 291.993 654.143 291.085 654.075 290.168L652.772 272.375C652.683 271.153 652.119 270.036 651.184 269.227C650.249 268.421 649.062 268.026 647.84 268.115L630.049 269.417C628.528 269.527 627.161 270.389 626.391 271.722C625.929 272.523 625.72 273.431 625.788 274.352L627.089 292.14C627.275 294.675 629.489 296.586 632.024 296.403L649.812 295.1C651.333 294.989 652.702 294.126 653.472 292.793Z" fill="#70BADB"/>
<path d="M212.996 430.036C211.783 431.687 209.578 431.933 207.245 430.68L189.021 420.882C187.489 420.058 186.53 418.957 186.247 417.698C185.866 416.016 186.806 414.278 188.783 413.055L206.377 402.171C208.112 401.097 209.798 400.9 211.123 401.612C212.449 402.325 213.214 403.839 213.276 405.878L213.905 426.56C213.946 427.965 213.633 429.169 212.996 430.036ZM187.761 415.272C187.241 415.979 187.054 416.741 187.221 417.478C187.436 418.433 188.243 419.329 189.493 420L207.717 429.798C209.607 430.814 211.279 430.681 212.189 429.444C212.692 428.759 212.939 427.771 212.904 426.59L212.274 405.908C212.224 404.243 211.645 403.029 210.648 402.493C209.65 401.956 208.319 402.144 206.901 403.021L189.307 413.906C188.648 414.314 188.128 414.773 187.761 415.272Z" fill="#F2AC30"/>
<path d="M333.631 88.0536C333.261 87.2312 333.118 86.2403 333.209 85.1094L334.852 64.4833C335.014 62.4507 335.852 60.9753 337.211 60.328C338.57 59.6816 340.243 59.9623 341.922 61.1187L358.963 72.8566C359.962 73.5451 360.667 74.3341 361.058 75.203C361.997 77.2873 360.931 79.4302 358.341 80.6615L339.659 89.551C338.182 90.2535 336.794 90.4028 335.646 89.9809C334.747 89.6501 334.05 88.9845 333.631 88.0536ZM360.146 75.6128C359.835 74.9226 359.23 74.2541 358.395 73.6783L341.354 61.9404C339.982 60.9955 338.663 60.7431 337.64 61.2303C336.617 61.7175 335.981 62.9002 335.848 64.5621L334.205 85.1881C334.051 87.1284 334.721 88.5748 335.991 89.0406C336.882 89.3675 338.001 89.2307 339.23 88.6465L357.912 79.757C359.995 78.7662 360.851 77.1783 360.146 75.6128Z" fill="#F2C87E"/>
<path d="M424.496 456.122C424.488 456.122 424.487 456.122 424.479 456.122C383.115 456.121 347.22 453.014 323.407 447.374C296.305 440.955 278.254 429.827 269.755 414.298C262.572 401.175 262.241 385.057 268.773 366.391C269.019 365.69 269.271 364.959 269.534 364.197C274.634 349.417 284.127 321.906 329.289 267.092C362.126 227.238 404.269 205.289 447.956 205.289C464.074 205.289 480.098 208.258 495.58 214.113C534.177 228.71 566.453 252.175 588.919 281.971C607.825 307.047 619.61 336.367 622.102 364.53C624.794 394.96 616.138 420.027 599.511 429.95C569.215 448.028 489.781 456.122 424.496 456.122ZM447.956 206.288C404.573 206.288 362.704 228.108 330.06 267.728C285.013 322.403 275.558 349.802 270.478 364.523C270.214 365.287 269.962 366.019 269.716 366.721C263.281 385.109 263.589 400.954 270.631 413.819C278.989 429.089 296.822 440.05 323.637 446.402C347.377 452.024 383.19 455.122 424.479 455.123C424.483 455.123 424.492 455.123 424.496 455.123C489.646 455.123 568.864 447.074 598.999 429.09C615.293 419.366 623.764 394.662 621.105 364.618C616.799 315.952 581.249 247.58 495.226 215.048C479.857 209.234 463.953 206.288 447.956 206.288Z" fill="black"/>
<mask id="mask0_3056_15885" style="mask-type:luminance" maskUnits="userSpaceOnUse" x="93" y="109" width="258" height="231">
<path d="M98.3231 203.869C93.2871 225.868 86.7591 287.039 109.194 310.56C131.629 334.081 148.636 337.338 186.992 338.061C225.348 338.784 244.527 340.952 272.751 339.144C300.976 337.337 345.12 336.34 349.825 272.565C358.323 157.369 271.799 104.217 202.323 110.369C132.848 116.52 107.823 162.369 98.3231 203.869Z" fill="white"/>
</mask>
<g mask="url(#mask0_3056_15885)">
<path d="M228.062 165.099C230.051 168.356 231.677 174.146 232.585 180.478C233.22 184.91 234.395 185.364 238.736 187.353C243.079 189.343 244.075 193.142 241.722 195.313C238.371 198.406 238.375 196.716 237.923 200.199C237.62 202.521 238.25 204.376 235.125 203.376C233.898 202.983 231.361 201.473 231 201.751C229.918 202.587 230.25 205.751 234.375 208.126C235.879 208.992 237.125 208.876 235.796 215.759C234.638 221.754 227.383 222.679 220.191 221.322C212.999 219.966 214.492 225.393 211.642 233.128C208.792 240.863 208.385 245.205 212.32 248.462C216.256 251.719 219.377 267.323 218.969 271.123C218.562 274.922 204.992 282.792 193.458 270.037C187.217 261.352 180.16 244.662 180.16 244.662C180.16 244.662 187.487 234.485 187.351 224.579C187.216 214.674 183.009 177.357 196.714 166.773C210.422 156.188 226.705 162.477 228.062 165.099Z" fill="white"/>
<path d="M207.618 277.525C203.942 277.525 198.437 276.284 193.091 270.371C186.853 261.697 179.774 245.023 179.703 244.856C179.635 244.695 179.656 244.511 179.758 244.369C179.83 244.268 186.987 234.207 186.855 224.585C186.837 223.217 186.737 221.276 186.623 219.029C185.903 204.948 184.406 175.65 196.413 166.377C202.869 161.391 209.613 160.344 214.134 160.344C221.479 160.344 227.553 163.025 228.509 164.87C230.451 168.048 232.125 173.722 233.083 180.408C233.666 184.482 234.631 184.924 238.693 186.783L238.948 186.9C241.463 188.053 243.09 189.87 243.411 191.885C243.64 193.321 243.162 194.67 242.065 195.682C240.875 196.781 240.089 197.296 239.568 197.638C238.705 198.204 238.689 198.215 238.422 200.264C238.367 200.688 238.344 201.095 238.323 201.471C238.232 203.049 238.085 204.849 234.976 203.852C234.457 203.686 233.744 203.345 233.054 203.014C232.452 202.726 231.57 202.304 231.223 202.228C231.042 202.437 230.952 202.801 230.981 203.233C231.062 204.42 232.062 206.215 234.628 207.692C234.76 207.768 234.891 207.837 235.018 207.903C236.646 208.756 237.509 209.546 236.29 215.853C235.479 220.054 231.699 222.368 225.647 222.368C223.921 222.368 222.055 222.181 220.102 221.812C219.4 221.68 218.769 221.613 218.226 221.613C215.277 221.613 214.721 223.441 213.746 227.574C213.347 229.266 212.894 231.184 212.115 233.299C209.088 241.515 209.221 245.243 212.642 248.075C216.745 251.47 219.9 267.162 219.47 271.175C219.195 273.732 214.098 277.525 207.618 277.525ZM180.732 244.721C181.647 246.852 188.147 261.786 193.867 269.744C198.933 275.342 204.144 276.525 207.618 276.525C213.654 276.525 218.269 272.985 218.475 271.068C218.868 267.397 215.718 251.919 212.004 248.846C207.699 245.282 208.392 240.511 211.176 232.954C211.934 230.896 212.379 229.01 212.772 227.345C213.694 223.437 214.36 220.613 218.225 220.613C218.839 220.613 219.513 220.684 220.286 220.83C222.178 221.187 223.982 221.368 225.646 221.368C229.551 221.368 234.397 220.378 235.307 215.664C236.443 209.78 235.691 209.386 234.552 208.79C234.414 208.718 234.272 208.643 234.127 208.56C231.658 207.139 230.108 205.173 229.982 203.302C229.925 202.46 230.185 201.751 230.696 201.356C231.13 201.02 231.885 201.348 233.484 202.113C234.144 202.429 234.826 202.755 235.279 202.901C235.804 203.069 236.227 203.154 236.535 203.154C237.127 203.154 237.237 202.91 237.323 201.414C237.345 201.016 237.371 200.584 237.429 200.135C237.73 197.818 237.848 197.569 239.017 196.801C239.51 196.477 240.255 195.988 241.384 194.946C242.227 194.168 242.595 193.136 242.421 192.041C242.158 190.387 240.703 188.804 238.529 187.808L238.275 187.692C234.144 185.8 232.752 185.164 232.091 180.549C231.152 173.993 229.528 168.456 227.637 165.36C227.003 164.137 221.67 161.343 214.133 161.343C209.768 161.343 203.257 162.354 197.024 167.167C185.431 176.12 186.91 205.066 187.621 218.977C187.736 221.234 187.836 223.184 187.855 224.57C187.981 233.819 181.85 243.107 180.732 244.721Z" fill="black"/>
<path d="M186.992 338.06C189.525 339.147 213.407 340.412 213.407 340.412C213.407 340.412 223.901 306.943 219.559 268.586C210.874 276.185 201.104 274.374 191.334 266.414C197.485 285.23 194.592 323.946 186.992 338.06Z" fill="black"/>
<path d="M223.737 189.565C224.265 191.257 225.476 192.386 226.441 192.086C227.406 191.784 227.758 190.167 227.231 188.474C226.703 186.782 225.491 185.653 224.529 185.955C223.564 186.257 223.208 187.872 223.737 189.565Z" fill="black"/>
<path d="M225.363 186.771C225.317 186.771 225.269 186.765 225.222 186.751C224.957 186.673 224.805 186.395 224.884 186.13L225.789 183.054C225.867 182.79 226.144 182.636 226.41 182.716C226.675 182.794 226.826 183.072 226.748 183.337L225.843 186.413C225.779 186.63 225.58 186.771 225.363 186.771Z" fill="black"/>
<path d="M201.286 288.847C198.493 268.247 189.283 254.618 181.136 241.992C179.886 240.054 178.731 240.331 178.198 240.437C174.302 241.209 169.956 243.038 171.07 245.424C171.306 245.929 171.669 246.448 172.121 247.026C170.431 247.367 168.408 247.791 166.005 248.32C156.957 250.309 151.359 253.887 145.75 259.496C140.141 265.104 111.46 299.881 103.5 308.746C113.995 329.01 132.001 331.995 132.001 331.995C132.001 331.995 148.456 315.442 158.768 302.777C158.406 305.309 157.141 328.831 153.522 338.058C159.914 341.766 177.678 341.588 187.558 341.165C189.18 342.653 195.497 341.314 195.497 341.314C195.497 341.314 204.18 310.196 201.286 288.847Z" fill="#70BADB"/>
<path d="M170.797 170.705C166.048 172.469 160.756 176.81 157.906 195.401C156.528 204.39 153.192 214.043 153.82 223.211C154.408 231.792 161.84 234.132 169.416 235.647C176.09 236.982 202.03 243.167 203.666 231.998C205.574 218.968 185.036 212.425 187.982 200.331C188.581 197.873 191.05 194.818 193.592 194.249C196.836 193.523 197.801 196.296 200.323 197.996C203.396 200.068 205.236 198.857 207.082 195.747C208.827 192.808 208.173 188.099 207.897 184.799C207.535 180.475 207.022 178.913 210.773 177.675C215.845 176.003 220.189 172.567 215.306 166.769C221.819 174.502 225.076 173.282 230.368 169.889C235.66 166.496 235.931 163.375 233.896 157.541C231.86 151.706 225.619 142.75 214.627 144.107C203.636 145.464 204.721 148.449 191.559 151.163C178.396 153.879 169.983 157.814 170.797 170.705Z" fill="black"/>
<path d="M219.922 180.835C219.866 180.835 219.81 180.826 219.754 180.806C219.494 180.713 219.358 180.428 219.451 180.167C219.806 179.172 221.813 174.16 226.469 173.197C226.739 173.143 227.004 173.315 227.06 173.586C227.116 173.856 226.942 174.121 226.671 174.177C222.539 175.031 220.716 179.597 220.392 180.504C220.32 180.707 220.127 180.835 219.922 180.835Z" fill="black"/>
<path d="M187.173 340.735C187.163 340.735 187.152 340.735 187.142 340.734C186.866 340.716 186.657 340.479 186.674 340.204C186.701 339.769 186.793 338.585 186.927 336.861C187.71 326.802 189.791 300.082 189.028 293.98C188.229 287.591 189.96 285.991 192.581 283.568C192.909 283.265 193.253 282.947 193.611 282.602C192.321 281.78 188.933 279.627 186.369 278.061C183.691 276.425 183.101 274.204 181.527 268.265C181.057 266.494 180.524 264.485 179.817 262.033C177.668 254.57 174.607 250.853 172.581 248.393C172.084 247.789 171.655 247.268 171.297 246.768C171.136 246.543 171.188 246.231 171.413 246.07C171.639 245.909 171.951 245.962 172.111 246.186C172.449 246.659 172.868 247.168 173.353 247.757C175.431 250.281 178.572 254.094 180.778 261.756C181.488 264.219 182.045 266.32 182.493 268.01C183.993 273.665 184.555 275.782 186.89 277.208C190.114 279.179 194.634 282.069 194.679 282.099C194.806 282.18 194.89 282.316 194.907 282.466C194.923 282.616 194.87 282.766 194.764 282.873C194.235 283.402 193.731 283.868 193.261 284.303C190.698 286.672 189.286 287.977 190.021 293.856C190.797 300.059 188.711 326.853 187.925 336.939C187.791 338.656 187.699 339.835 187.673 340.267C187.655 340.531 187.436 340.735 187.173 340.735Z" fill="white"/>
<path d="M257.013 275.28L253.213 286.497C253.213 286.497 244.167 270.034 238.377 262.797C232.966 256.033 225.187 251.799 219.023 249.501C214.865 242.619 208.99 241.625 208.99 241.625C208.99 241.625 208.524 243.255 209.385 245.316C210.245 247.377 219.56 263.52 217.39 289.212C215.22 314.903 207.801 340.414 207.801 340.414H213.41C213.41 340.414 213.453 340.272 213.533 340.01C217.753 340.553 226.345 341.418 226.617 339.51C226.978 336.977 231.865 316.713 234.759 310.38C243.444 326.482 251.501 329.767 263.159 324.87C271.493 321.37 278.362 293.374 279.266 282.337C279.447 282.155 257.013 275.28 257.013 275.28Z" fill="#70BADB"/>
<path d="M213.406 340.91C213.358 340.91 213.309 340.903 213.26 340.889C212.996 340.808 212.847 340.529 212.928 340.264C213.04 339.898 224.158 303.475 225.764 296.515C227.415 289.357 227.363 288.498 226.286 286.394C224.932 283.751 223.771 281.429 223.771 281.429C223.655 281.197 223.735 280.916 223.956 280.78C225.177 280.026 228.231 277.622 227.712 275.582C226.557 271.051 222.157 256.036 218.941 250.33L218.837 250.147C218.7 249.907 218.783 249.602 219.023 249.465C219.262 249.326 219.568 249.411 219.705 249.651L219.812 249.84C223.078 255.633 227.518 270.772 228.681 275.337C229.364 278.017 226.031 280.579 224.865 281.38C225.253 282.152 226.16 283.955 227.177 285.941C228.435 288.397 228.385 289.608 226.74 296.742C225.126 303.736 213.997 340.191 213.885 340.559C213.819 340.771 213.621 340.91 213.406 340.91Z" fill="white"/>
<path d="M234.758 310.88C234.689 310.88 234.618 310.865 234.55 310.835C234.299 310.72 234.189 310.423 234.303 310.172C242.436 292.369 239.405 285.961 237.593 282.132C237.278 281.466 237.006 280.89 236.817 280.323C236.73 280.061 236.872 279.778 237.133 279.69C237.398 279.602 237.679 279.746 237.766 280.006C237.936 280.516 238.196 281.067 238.497 281.703C240.383 285.689 243.539 292.36 235.212 310.587C235.129 310.771 234.948 310.88 234.758 310.88Z" fill="black"/>
<path d="M256.152 293.782C255.965 293.782 255.786 293.678 255.7 293.498C255.68 293.456 253.682 289.275 251.89 284.972C251.784 284.717 251.904 284.424 252.159 284.318C252.413 284.216 252.706 284.332 252.813 284.588C254.596 288.868 256.582 293.027 256.603 293.068C256.722 293.317 256.617 293.616 256.368 293.735C256.297 293.767 256.224 293.782 256.152 293.782Z" fill="black"/>
<path d="M258.457 270.984C260.492 264.607 263.478 247.374 264.156 240.996C264.834 234.619 261.035 225.663 265.512 219.964C269.99 214.265 272.84 211.415 274.061 208.566C275.283 205.716 278.132 205.309 279.625 208.159C281.118 211.009 278.81 216.03 275.419 219.557C283.696 214.265 284.374 216.164 286.952 212.094C289.531 208.023 294.552 197.574 297.809 197.846C300.523 194.182 303.643 196.217 304.186 201.239C305.815 201.103 307.307 204.903 306.222 210.601C310.157 212.909 309.749 221.321 304.186 227.699C298.623 234.077 288.039 237.876 285.732 243.033C283.425 248.189 279.626 278.449 279.626 278.449L258.457 270.984Z" fill="white"/>
<path d="M279.626 278.95C279.57 278.95 279.514 278.94 279.459 278.922L258.291 271.458C258.036 271.368 257.899 271.092 257.981 270.834C260.032 264.409 263.007 247.078 263.66 240.945C263.888 238.796 263.596 236.349 263.286 233.759C262.685 228.739 262.063 223.548 265.121 219.657C266.499 217.904 267.716 216.427 268.79 215.125C271.196 212.207 272.785 210.28 273.603 208.371C274.315 206.708 275.573 205.716 276.967 205.716C278.202 205.716 279.332 206.522 280.069 207.928C281.404 210.476 280.043 214.332 277.712 217.581C279.848 216.356 281.336 215.701 282.418 215.224C284.398 214.352 285.139 214.026 286.531 211.827C287.081 210.959 287.762 209.763 288.485 208.497C291.913 202.486 294.965 197.495 297.564 197.345C298.775 195.808 299.924 195.477 300.687 195.477C302.659 195.477 304.184 197.543 304.634 200.779C304.958 200.858 305.346 201.061 305.728 201.522C306.728 202.731 307.584 205.759 306.775 210.36C308.041 211.234 308.872 212.71 309.189 214.653C309.862 218.784 308.046 224.034 304.564 228.027C301.939 231.037 298.314 233.417 294.808 235.719C290.981 238.232 287.367 240.605 286.19 243.237C283.94 248.267 280.161 278.21 280.123 278.511C280.104 278.66 280.019 278.794 279.89 278.874C279.809 278.925 279.718 278.95 279.626 278.95ZM259.078 270.675L279.208 277.773C279.775 273.327 283.122 247.647 285.276 242.831C286.573 239.932 290.306 237.481 294.258 234.886C297.707 232.621 301.274 230.279 303.809 227.373C307.104 223.595 308.829 218.667 308.201 214.817C307.909 213.028 307.138 211.72 305.969 211.035C305.786 210.928 305.691 210.718 305.731 210.51C306.523 206.347 305.914 203.318 304.957 202.163C304.797 201.969 304.548 201.738 304.271 201.738C304.016 201.738 303.717 201.549 303.69 201.295C303.379 198.415 302.171 196.48 300.687 196.48C299.876 196.48 299.02 197.056 298.212 198.147C298.109 198.286 297.944 198.366 297.769 198.348H297.767C295.426 198.348 291.772 204.755 289.354 208.995C288.626 210.272 287.938 211.478 287.376 212.365C285.82 214.821 284.88 215.235 282.821 216.142C281.294 216.814 279.202 217.736 275.69 219.981C275.476 220.116 275.194 220.071 275.034 219.877C274.873 219.681 274.885 219.396 275.06 219.214C278.133 216.018 280.623 211.14 279.184 208.394C278.618 207.313 277.831 206.718 276.968 206.718C275.987 206.718 275.073 207.484 274.523 208.766C273.648 210.807 272.023 212.779 269.562 215.763C268.491 217.061 267.278 218.533 265.907 220.277C263.106 223.843 263.702 228.824 264.278 233.642C264.595 236.29 264.894 238.792 264.654 241.053C264.013 247.076 261.138 263.865 259.078 270.675Z" fill="black"/>
<path d="M280.303 228.875C280.077 228.875 279.872 228.721 279.817 228.491C279.131 225.611 276.552 220.912 275.141 219.971C274.911 219.818 274.849 219.507 275.002 219.278C275.155 219.048 275.465 218.986 275.695 219.139C277.451 220.31 280.096 225.352 280.789 228.26C280.853 228.529 280.687 228.798 280.418 228.862C280.381 228.871 280.342 228.875 280.303 228.875Z" fill="black"/>
<path d="M296.858 226.165C296.674 226.165 296.498 226.064 296.41 225.889C295.905 224.878 289.897 217.676 287.607 216.912C287.345 216.825 287.204 216.542 287.291 216.28C287.378 216.018 287.66 215.876 287.923 215.964C290.549 216.84 296.755 224.345 297.304 225.442C297.428 225.689 297.327 225.989 297.08 226.113C297.009 226.148 296.933 226.165 296.858 226.165Z" fill="black"/>
<path d="M295.638 226.843C295.449 226.843 295.268 226.736 295.183 226.553C295.067 226.302 295.177 226.005 295.428 225.889C296.999 225.164 300.455 220.733 301.388 215.668C301.866 213.072 302.664 211.459 303.828 210.738C304.906 210.07 306.098 210.299 306.901 210.528C307.167 210.604 307.32 210.881 307.245 211.146C307.168 211.411 306.892 211.561 306.627 211.49C305.627 211.203 304.926 211.235 304.356 211.588C303.457 212.145 302.79 213.579 302.372 215.85C301.411 221.064 297.808 225.892 295.848 226.797C295.779 226.828 295.708 226.843 295.638 226.843Z" fill="black"/>
<path d="M293.875 222.362C293.735 222.362 293.597 222.304 293.498 222.19C293.317 221.981 293.339 221.666 293.547 221.484C296.505 218.912 297.717 215.162 298.812 209.554C299.819 204.392 301.782 201.52 304.644 201.016C304.914 200.966 305.175 201.149 305.223 201.421C305.271 201.693 305.09 201.952 304.818 202C302.404 202.425 300.714 205.031 299.794 209.745C298.658 215.567 297.379 219.478 294.204 222.239C294.108 222.322 293.992 222.362 293.875 222.362Z" fill="black"/>
<path d="M290.753 218.835C290.653 218.835 290.553 218.806 290.466 218.744C290.24 218.585 290.186 218.273 290.345 218.048C291.817 215.955 293.665 209.974 295.15 205.169C296.261 201.575 297.22 198.471 297.913 197.199C298.046 196.956 298.349 196.867 298.591 196.999C298.834 197.131 298.923 197.435 298.791 197.677C298.145 198.861 297.155 202.068 296.105 205.463C294.52 210.59 292.725 216.401 291.162 218.623C291.066 218.761 290.911 218.835 290.753 218.835Z" fill="black"/>
<path d="M157.683 304.364C157.569 304.364 157.453 304.325 157.36 304.245C157.15 304.066 157.124 303.751 157.303 303.54C160.352 299.954 166.486 293.455 166.548 293.39C166.737 293.191 167.053 293.18 167.254 293.37C167.455 293.56 167.464 293.876 167.274 294.077C167.213 294.141 161.097 300.621 158.064 304.188C157.966 304.305 157.825 304.364 157.683 304.364Z" fill="black"/>
<path d="M257.573 269.368C255.573 273.118 254.416 279.2 254.823 279.743C255.23 280.286 270.073 281.493 280.198 288.743C282.505 289.828 283.242 279.139 282.882 277.902C281.932 274.645 258.795 268.011 257.573 269.368Z" fill="black"/>
<path d="M201.105 288.449C200.988 288.449 200.872 288.409 200.777 288.326C200.731 288.287 196.172 284.329 194.051 282.916C193.822 282.763 193.759 282.452 193.912 282.223C194.065 281.994 194.374 281.931 194.605 282.084C196.778 283.532 201.243 287.407 201.432 287.572C201.64 287.753 201.662 288.068 201.481 288.277C201.383 288.391 201.244 288.449 201.105 288.449Z" fill="white"/>
<path d="M217.586 286.411C217.458 286.411 217.33 286.362 217.232 286.265C217.037 286.07 217.037 285.753 217.232 285.558C219.143 283.648 221.584 282.182 223.2 281.212C223.601 280.972 223.945 280.766 224.207 280.596C224.439 280.446 224.749 280.511 224.899 280.742C225.049 280.973 224.983 281.283 224.752 281.433C224.482 281.609 224.128 281.821 223.715 282.069C222.141 283.013 219.763 284.441 217.94 286.264C217.842 286.362 217.714 286.411 217.586 286.411Z" fill="white"/>
<path d="M203.054 215.344C202.526 210.411 198.637 205.355 194.02 208.304C190.005 210.868 188.783 217.771 192.457 221.044C194.021 222.437 196.553 223.088 198.669 222.673C202.224 221.976 203.412 218.688 203.054 215.344Z" fill="#F2AC30"/>
</g>
<path d="M250.456 340.346H250.454C240.697 340.346 231.142 339.986 220.08 339.568C210.578 339.21 199.807 338.802 186.984 338.561C149.523 337.855 131.965 335.157 108.834 310.905C87.1876 288.211 92.0776 228.917 97.8366 203.757C110.96 146.433 146.099 114.845 202.28 109.871C205.878 109.553 209.567 109.391 213.242 109.391C250.399 109.391 287.718 125.685 313.071 152.977C332.545 173.941 354.817 211.712 350.324 272.602C345.713 335.098 303.214 337.745 275.091 339.498L272.783 339.644C265.29 340.122 258.195 340.346 250.456 340.346ZM213.242 110.39C209.596 110.39 205.937 110.55 202.367 110.866C146.667 115.798 111.825 147.126 98.8096 203.979C93.0896 228.968 88.1886 287.814 109.556 310.214C132.426 334.191 149.836 336.86 187.001 337.56C199.834 337.802 210.609 338.208 220.117 338.568C231.17 338.985 240.715 339.345 250.453 339.345H250.455C258.173 339.345 265.247 339.122 272.719 338.644L275.028 338.499C302.804 336.769 344.779 334.154 349.326 272.527C352.86 224.615 340.07 183.51 312.337 153.656C287.17 126.564 250.125 110.39 213.242 110.39Z" fill="black"/>
<path d="M373.764 110.672C380.54 108.904 402.2 104.778 413.545 102.421C424.891 100.063 437.268 98.4419 438.888 99.1799C440.508 99.9159 422.533 122.607 414.134 131.594C411.335 133.509 407.504 129.974 407.504 129.974C399.548 138.225 390.56 141.319 389.087 141.614C387.613 141.908 386.876 132.774 386.729 127.321C386.582 121.87 387.549 120.808 383.046 118.629C369.048 111.849 373.764 110.672 373.764 110.672Z" fill="#70BADB"/>
<path d="M389.085 142.113C388.865 142.113 388.664 141.967 388.603 141.745C388.53 141.478 388.687 141.203 388.953 141.131C389.692 140.862 392.381 136.507 394.344 133.327C396.454 129.91 398.447 126.681 399.634 125.494C401.871 123.257 422.481 109.188 431.229 103.267L388.385 120.271C388.129 120.372 387.838 120.247 387.735 119.991C387.633 119.734 387.759 119.444 388.015 119.342L435.163 100.63C435.41 100.53 435.694 100.646 435.804 100.891C435.913 101.135 435.81 101.423 435.571 101.542C434.115 102.314 402.679 123.862 400.339 126.201C399.234 127.306 397.179 130.634 395.192 133.852C391.779 139.38 390.182 141.831 389.214 142.095C389.173 142.107 389.129 142.113 389.085 142.113Z" fill="black"/>
<path d="M408.386 131.059C408.283 131.059 408.18 131.028 408.091 130.963L407.876 130.805C404.855 128.596 401.094 125.84 400.212 126.29C399.965 126.413 399.666 126.313 399.541 126.066C399.417 125.819 399.518 125.519 399.765 125.395C401.126 124.716 403.821 126.601 408.466 129.997L408.681 130.154C408.904 130.317 408.953 130.63 408.79 130.853C408.692 130.988 408.54 131.059 408.386 131.059Z" fill="black"/>
<path d="M281.458 131.727C275.791 132.246 272.574 135.766 273.142 145.782C273.708 155.801 271.441 166.14 275.411 170.015C279.381 173.894 289.395 173.896 298.659 174.056C307.921 174.216 319.916 173.945 323.467 173.894C331.83 173.773 334.807 172.32 335.942 165.775C336.61 161.923 335.007 140.192 334.95 137.907C334.807 132.212 331.122 131.485 323.042 131.121C315.294 130.772 286.751 131.242 281.458 131.727Z" fill="#F2AC30"/>
<path d="M304.211 158.249C304.173 158.249 304.136 158.248 304.099 158.248C300.112 158.188 296.871 154.834 294.492 151.918C290.097 146.527 280.208 135.473 277.804 133.419C277.594 133.24 277.569 132.924 277.749 132.714C277.928 132.503 278.244 132.48 278.454 132.659C280.889 134.74 290.85 145.869 295.268 151.285C297.509 154.033 300.54 157.194 304.114 157.248C306.671 157.265 309.343 155.714 312.063 152.575C319.55 143.937 330.661 133.056 330.772 132.947C330.971 132.754 331.288 132.758 331.479 132.955C331.672 133.152 331.669 133.469 331.471 133.662C331.36 133.771 320.279 144.623 312.819 153.229C309.894 156.605 307.076 158.249 304.211 158.249Z" fill="black"/>
<path d="M275.411 170.512C275.227 170.512 275.05 170.41 274.963 170.235C274.84 169.988 274.94 169.688 275.188 169.565C276.488 168.918 283.118 162.66 287.958 158.091C291.968 154.306 294.263 152.148 294.807 151.816C295.043 151.671 295.35 151.746 295.495 151.982C295.639 152.217 295.565 152.525 295.329 152.67C294.849 152.964 291.835 155.808 288.645 158.819C282.085 165.01 276.962 169.799 275.634 170.46C275.562 170.496 275.486 170.512 275.411 170.512Z" fill="black"/>
<path d="M331.928 172.133C331.757 172.133 331.59 172.045 331.496 171.886C331.178 171.344 327.453 167.309 323.851 163.407C319.096 158.257 314.18 152.931 313.436 151.75C313.289 151.517 313.359 151.207 313.592 151.061C313.828 150.913 314.135 150.986 314.281 151.217C314.976 152.321 320.081 157.851 324.585 162.73C329.173 167.7 332.003 170.776 332.358 171.381C332.498 171.619 332.418 171.925 332.179 172.066C332.102 172.111 332.015 172.133 331.928 172.133Z" fill="black"/>
<mask id="mask1_3056_15885" style="mask-type:luminance" maskUnits="userSpaceOnUse" x="385" y="48" width="257" height="224">
<path d="M472.912 54.8061C437.978 62.1701 383.294 77.3741 385.81 144.02C388.326 210.666 413.95 245.016 456.733 258.345C499.516 271.674 604.495 285.364 626.784 241.054C649.074 196.744 641.725 133.484 630.222 107.185C618.718 80.8861 590.833 29.9501 472.912 54.8061Z" fill="white"/>
</mask>
<g mask="url(#mask1_3056_15885)">
<path d="M567.413 109.164C564.663 97.4977 539.329 82.4977 528.496 86.6647C517.663 90.8307 531.496 95.6637 531.496 95.6637C514.83 92.6637 506.83 94.6627 505.163 98.8307C503.496 102.998 510.496 104.664 510.496 104.664C499.163 104.998 486.497 113.831 488.33 119.998C490.163 126.164 497.663 123.914 497.663 123.914C486.996 132.498 488.736 141.226 499.866 140.195C488.163 148.998 486.498 165.164 490.997 170.998C495.496 176.832 499.864 168.002 499.864 168.002C495.163 180.998 502.162 189.498 508.829 178.665C507.33 193.498 520.496 195.498 524.663 188.165C528.663 202.332 538.163 200.164 539.83 193.165C544.997 199.665 555.163 197.498 557.163 190.498C562.83 197.165 567.83 191.081 567.33 185.915C573.163 192.748 582.33 193.581 584.163 181.165C592.496 187.332 596.663 187.165 594.413 172.415C608.33 177.498 615.663 161.998 599.663 148.665C610.33 151.498 609.163 140.498 593.913 133.915C604.663 133.665 605.996 126.331 600.663 120.915C595.33 115.498 586.33 104.997 567.413 109.164Z" fill="black"/>
<path d="M514.443 137.627C512.815 147.397 515.71 150.293 518.604 157.168C521.5 164.043 517.452 171.288 525.164 179.873C532.355 187.879 543.211 187.382 543.211 187.382L546.286 199.866L572.883 192.99L567.094 167.932C567.094 167.932 572.522 164.948 570.893 154.272C569.265 143.597 569.084 117.183 543.211 121.163C517.338 125.142 516.796 129.846 514.443 137.627Z" fill="white"/>
<path d="M546.286 200.368C546.196 200.368 546.108 200.344 546.03 200.297C545.915 200.229 545.833 200.117 545.801 199.987L542.821 187.889C540.931 187.888 531.345 187.503 524.793 180.208C519.838 174.691 519.615 169.589 519.419 165.087C519.301 162.391 519.19 159.844 518.145 157.362C517.585 156.03 517.03 154.861 516.493 153.73C514.327 149.166 512.616 145.562 513.952 137.545L514.199 136.707C516.46 129.134 517.824 124.562 543.137 120.669C544.909 120.397 546.618 120.258 548.217 120.258C567.266 120.258 569.546 139.185 570.908 150.493C571.072 151.859 571.222 153.11 571.388 154.197C572.836 163.689 568.864 167.302 567.66 168.16L573.371 192.877C573.431 193.141 573.271 193.406 573.009 193.474L546.412 200.35C546.37 200.363 546.328 200.368 546.286 200.368ZM543.211 186.884C543.44 186.884 543.642 187.04 543.696 187.264L546.65 199.257L572.286 192.629L566.606 168.046C566.556 167.828 566.657 167.603 566.852 167.495C566.902 167.467 571.948 164.504 570.398 154.348C570.231 153.252 570.079 151.991 569.913 150.614C568.591 139.635 566.377 121.259 548.215 121.259C546.666 121.259 545.008 121.393 543.287 121.658C518.599 125.455 517.304 129.798 515.155 136.993L514.922 137.772C513.653 145.417 515.222 148.725 517.395 153.302C517.937 154.443 518.497 155.622 519.066 156.975C520.18 159.621 520.295 162.255 520.418 165.044C520.616 169.589 520.821 174.29 525.537 179.54C531.82 186.535 541.048 186.889 542.834 186.889C543.314 186.889 543.196 186.884 543.211 186.884Z" fill="black"/>
<path d="M577.036 145.161C576.133 139.709 575.025 134.552 572.207 129.694C570.469 126.698 568.9 123.616 565.962 121.619C557.709 116.01 546.595 116.346 537.203 118.295C529.744 119.843 521.441 122.485 515.661 127.627C513.74 129.335 505.961 137.09 510.999 139.331C513.949 140.643 517.2 137.859 519.425 135.979C519.526 136.262 519.684 136.566 519.915 136.914C521.415 139.164 525.165 139.414 527.665 138.914C534.165 137.914 540.415 133.664 545.165 128.914C544.165 130.414 542.915 132.414 543.415 134.414C544.415 136.664 546.665 136.914 548.665 136.914C552.915 136.664 556.915 133.164 559.915 130.414C557.415 135.164 554.665 139.914 554.415 145.414C554.165 147.914 554.415 150.664 555.415 152.914C556.665 155.914 559.415 155.914 561.915 154.164C560.665 158.164 559.915 161.914 561.665 165.913C562.708 168.298 565.998 172.33 570.582 171.497C574.243 170.832 574.921 162.244 576.248 159.247C578.725 153.654 578.044 151.251 577.036 145.161Z" fill="black"/>
<path d="M509.433 141.123C507.195 141.123 505.03 140.327 504.426 138.058C504.074 136.739 504.283 135.14 504.596 134.083C505.202 132.025 507.073 129.112 508.764 127.59C508.967 127.405 509.283 127.421 509.47 127.627C509.655 127.832 509.638 128.148 509.432 128.333C507.884 129.726 506.109 132.489 505.555 134.366C505.281 135.292 505.094 136.68 505.393 137.8C506.144 140.621 510.128 140.129 510.92 140.001C513.291 139.62 515.049 139.076 516.452 138.292C516.692 138.159 516.998 138.244 517.133 138.484C517.268 138.725 517.182 139.03 516.941 139.165C515.432 140.008 513.57 140.588 511.079 140.989C510.54 141.075 509.984 141.123 509.433 141.123Z" fill="white"/>
<path d="M535.822 170.491C535.813 170.491 535.803 170.491 535.795 170.49C532.505 170.308 530.449 169.548 529.509 168.165C528.341 166.447 529.087 164.205 529.81 162.037C529.951 161.614 530.091 161.192 530.215 160.779C531.323 157.083 528.785 152.622 525.958 150.041C523.727 148.004 520.882 147.622 519.054 148.144C518.016 148.441 517.303 149.026 517.099 149.751C517.024 150.017 516.752 150.171 516.482 150.097C516.216 150.022 516.062 149.746 516.136 149.48C516.437 148.414 517.4 147.577 518.78 147.183C520.877 146.583 524.118 147.007 526.632 149.303C529.785 152.181 532.411 156.935 531.172 161.067C531.046 161.489 530.902 161.921 530.758 162.354C530.113 164.292 529.446 166.295 530.336 167.604C531.078 168.697 532.934 169.332 535.85 169.494C536.126 169.509 536.337 169.745 536.322 170.021C536.307 170.285 536.086 170.491 535.822 170.491Z" fill="black"/>
<path d="M534.29 148.393C534.181 148.393 534.071 148.358 533.979 148.285C533.762 148.113 533.726 147.799 533.898 147.582C535.644 145.377 540.701 140.815 549.913 146.059C550.153 146.196 550.237 146.501 550.101 146.741C549.964 146.981 549.659 147.064 549.419 146.928C541.188 142.244 536.654 145.716 534.682 148.203C534.583 148.329 534.438 148.393 534.29 148.393Z" fill="black"/>
<path d="M546.039 156.123C546.876 157.686 546.836 159.341 545.945 159.818C545.055 160.297 543.652 159.417 542.813 157.853C541.973 156.292 542.018 154.637 542.906 154.162C543.798 153.684 545.199 154.561 546.039 156.123Z" fill="black"/>
<path d="M543.518 154.905C543.438 154.905 543.358 154.886 543.283 154.846L540.452 153.338C540.209 153.208 540.116 152.905 540.246 152.662C540.377 152.418 540.681 152.329 540.923 152.456L543.754 153.964C543.997 154.094 544.09 154.397 543.96 154.64C543.87 154.809 543.697 154.905 543.518 154.905Z" fill="black"/>
<path d="M527.177 157.749C528.013 159.312 527.973 160.966 527.082 161.444C526.193 161.922 524.789 161.042 523.951 159.478C523.111 157.917 523.155 156.262 524.044 155.787C524.935 155.309 526.337 156.185 527.177 157.749Z" fill="black"/>
<path d="M524.655 156.532C524.575 156.532 524.495 156.513 524.42 156.473L521.589 154.965C521.346 154.835 521.253 154.532 521.383 154.289C521.513 154.044 521.818 153.954 522.06 154.082L524.891 155.59C525.134 155.72 525.227 156.023 525.097 156.266C525.007 156.436 524.834 156.532 524.655 156.532Z" fill="black"/>
<path d="M539.181 178.999C536.795 178.999 534.452 176.784 532.582 172.761C532.506 172.598 532.523 172.407 532.628 172.261C532.731 172.115 532.903 172.036 533.085 172.053C533.597 172.104 534.126 172.157 534.646 172.157C536.576 172.157 538.862 171.398 544.839 167.518C545 167.413 545.205 167.411 545.37 167.509C545.534 167.608 545.627 167.792 545.609 167.983C544.984 174.778 542.521 178.999 539.181 178.999ZM533.874 173.127C535.473 176.236 537.382 177.999 539.181 177.999C541.76 177.999 543.803 174.473 544.501 168.923C538.233 172.912 536.135 173.287 533.874 173.127Z" fill="black"/>
<path d="M537.786 178.612C537.743 178.612 537.698 178.607 537.654 178.594C537.387 178.521 537.231 178.246 537.303 177.98C538.184 174.749 541.774 172.335 544.135 172.474C544.41 172.491 544.62 172.728 544.603 173.004C544.586 173.279 544.373 173.489 544.073 173.472C542.062 173.344 539.01 175.525 538.268 178.243C538.208 178.466 538.006 178.612 537.786 178.612Z" fill="black"/>
<path d="M477.672 263.604C482.421 258.992 505.082 229.003 513.902 218.283C522.721 207.563 532.899 207.292 546.74 207.156C543.332 193.5 544.237 193.198 544.916 193.333C545.594 193.469 558.524 196.289 571.416 187.333C574.832 186.417 574.693 200.1 577.95 201.864C581.206 203.629 602.917 199.15 613.638 209.871C624.358 220.59 631.821 245.965 631.821 245.965C625.986 255.328 586.363 284.773 536.564 271.204C535.614 266.997 528.829 260.483 526.793 252.207C518.38 263.198 512.409 271.339 512.409 271.339C512.409 271.339 485.678 269.575 477.672 263.604Z" fill="#F2AC30"/>
<path d="M557.126 211.269C551.674 211.269 547.875 209.064 546.381 207.502C546.191 207.302 546.197 206.986 546.397 206.795C546.596 206.604 546.913 206.612 547.104 206.811C549.908 209.743 561.411 215.009 576.942 201.22C577.149 201.036 577.465 201.055 577.648 201.262C577.832 201.469 577.812 201.784 577.606 201.968C569.576 209.097 562.536 211.269 557.126 211.269Z" fill="black"/>
<path d="M554.249 211.14C554.034 211.14 553.836 211.001 553.77 210.786C553.589 210.191 549.326 196.181 548.876 194.196C548.815 193.927 548.984 193.659 549.253 193.598C549.524 193.537 549.789 193.706 549.851 193.975C550.293 195.924 554.682 210.349 554.727 210.495C554.807 210.759 554.659 211.039 554.394 211.119C554.346 211.133 554.297 211.14 554.249 211.14Z" fill="black"/>
<path d="M560.13 211.047C559.917 211.047 559.72 210.91 559.652 210.696L554.406 193.961C554.324 193.698 554.47 193.417 554.734 193.335C554.997 193.255 555.278 193.399 555.361 193.663L560.607 210.398C560.689 210.661 560.543 210.942 560.279 211.024C560.23 211.039 560.18 211.047 560.13 211.047Z" fill="black"/>
<path d="M566.279 209.239C566.069 209.239 565.873 209.105 565.803 208.895L560.556 192.883C560.47 192.62 560.614 192.338 560.876 192.252C561.133 192.166 561.42 192.309 561.507 192.571L566.754 208.583C566.84 208.846 566.696 209.128 566.434 209.214C566.383 209.231 566.331 209.239 566.279 209.239Z" fill="black"/>
<path d="M571.891 206.345C571.675 206.345 571.476 206.204 571.412 205.987L566.978 190.97C566.9 190.705 567.051 190.427 567.316 190.349C567.58 190.269 567.859 190.422 567.937 190.687L572.371 205.704C572.449 205.969 572.298 206.247 572.033 206.325C571.985 206.338 571.938 206.345 571.891 206.345Z" fill="black"/>
<path d="M543.356 187.982C543.302 187.982 543.25 187.981 543.198 187.98C542.923 187.973 542.704 187.744 542.711 187.468C542.718 187.192 542.919 186.979 543.224 186.98C546.767 187.104 556.289 183.993 562.364 176.49C562.538 176.275 562.852 176.243 563.067 176.416C563.282 176.59 563.315 176.905 563.141 177.119C556.937 184.781 547.168 187.982 543.356 187.982Z" fill="black"/>
<path d="M528.691 257.728C528.499 257.728 528.316 257.617 528.233 257.429C524.921 249.9 524.664 242.388 524.664 240.266C524.664 239.99 524.888 239.766 525.164 239.766C525.44 239.766 525.664 239.99 525.664 240.266C525.664 241.742 525.832 249.486 529.149 257.027C529.26 257.28 529.145 257.575 528.892 257.686C528.827 257.714 528.759 257.728 528.691 257.728Z" fill="black"/>
<path d="M601.561 267.221C601.344 267.221 601.145 267.079 601.082 266.862C601.037 266.709 596.584 251.469 594.708 245.709C594.623 245.446 594.767 245.165 595.028 245.079C595.296 244.995 595.573 245.138 595.659 245.4C597.54 251.174 601.997 266.428 602.041 266.581C602.119 266.847 601.967 267.124 601.702 267.201C601.655 267.214 601.607 267.221 601.561 267.221Z" fill="black"/>
<path d="M568.773 172.373C567.222 172.373 565.432 171.859 563.514 170.854C563.27 170.726 563.175 170.424 563.303 170.179C563.432 169.933 563.737 169.841 563.979 169.968C566.261 171.164 568.309 171.611 569.887 171.257C573.607 170.412 575.152 163.895 575.152 160.593C575.152 160.379 575.289 160.189 575.491 160.119C575.693 160.051 575.918 160.118 576.049 160.288C577.75 162.5 579.751 163.531 582.347 163.531C584.88 163.361 587.327 160.558 587.642 158.352C587.682 158.079 587.941 157.885 588.208 157.928C588.481 157.967 588.672 158.221 588.633 158.494C588.259 161.118 585.446 164.327 582.381 164.531H582.378C579.875 164.531 577.817 163.66 576.098 161.877C575.754 165.969 573.827 171.388 570.109 172.233C569.687 172.326 569.241 172.373 568.773 172.373Z" fill="white"/>
</g>
<path d="M546.175 271.835C546.17 271.835 546.169 271.835 546.164 271.835C510.871 271.834 475.851 264.824 456.587 258.822C411.006 244.621 387.692 207.075 385.313 144.039C384.208 114.742 394.203 92.1133 415.024 76.7803C432.258 64.0882 453.908 58.3023 472.811 54.3173C493.779 49.8983 513.072 47.6562 530.154 47.6562C560.958 47.6562 585.618 54.9273 603.451 69.2653C618.124 81.0623 625.712 95.6193 630.682 106.984C637.013 121.457 641.226 144.589 641.678 167.355C642.072 187.197 639.885 216.128 627.233 241.278C614.529 266.531 576.143 271.835 546.175 271.835ZM530.153 48.6562C513.14 48.6562 493.917 50.8902 473.017 55.2952C428.837 64.6092 383.987 82.4313 386.312 144.001C388.673 206.562 411.757 243.808 456.883 257.867C477.598 264.321 513.237 270.834 546.163 270.835C546.167 270.835 546.171 270.835 546.174 270.835C575.862 270.835 613.863 265.629 626.339 240.829C638.899 215.862 641.069 187.103 640.677 167.375C640.228 144.732 636.046 121.745 629.765 107.385C622.739 91.3233 604.075 48.6562 530.153 48.6562Z" fill="black"/>
<path d="M387.327 246.5H348.127C341.312 246.5 336.106 252.361 336.523 259.447L337.58 277.457C337.964 284.021 343.463 289.168 349.839 289.071L378.202 288.644C379.682 293.045 380.766 297.327 383.603 297.119C385.633 296.919 386.503 292.626 387.081 288.483C393.03 288.114 397.929 283.044 398.152 276.794L398.79 259.164C399.04 252.23 393.922 246.5 387.327 246.5Z" fill="white"/>
<path d="M383.406 297.626C380.628 297.626 379.484 294.142 378.16 290.108C378.056 289.791 377.951 289.471 377.844 289.15L349.661 289.573C343.003 289.573 337.477 284.264 337.081 277.486L336.024 259.476C335.81 255.834 337.063 252.286 339.463 249.742C341.738 247.329 344.816 246 348.128 246H387.328C390.501 246 393.479 247.276 395.715 249.594C398.117 252.084 399.42 255.579 399.29 259.181L398.652 276.811C398.426 283.108 393.572 288.36 387.519 288.949C386.883 293.366 385.953 297.389 383.652 297.616C383.562 297.623 383.483 297.626 383.406 297.626ZM378.202 288.144C378.417 288.144 378.607 288.281 378.676 288.485C378.824 288.924 378.968 289.363 379.111 289.796C380.345 293.555 381.43 296.786 383.567 296.62C385.467 296.433 386.28 290.607 386.587 288.414C386.62 288.179 386.814 287.999 387.051 287.984C392.784 287.629 397.442 282.706 397.654 276.776L398.292 259.146C398.413 255.814 397.212 252.585 394.997 250.289C392.952 248.169 390.23 247.001 387.33 247.001H348.13C345.096 247.001 342.277 248.218 340.192 250.429C337.981 252.774 336.827 256.05 337.024 259.419L338.081 277.429C338.44 283.575 343.636 288.574 349.663 288.574L349.833 288.572L378.196 288.145C378.196 288.145 378.199 288.144 378.202 288.144Z" fill="black"/>
<path d="M355.679 268.334C355.679 270.507 353.958 272.269 351.836 272.269C349.713 272.269 347.992 270.507 347.992 268.334C347.992 266.16 349.713 264.398 351.836 264.398C353.958 264.399 355.679 266.16 355.679 268.334Z" fill="#70BADB"/>
<path d="M370.872 268.334C370.872 270.507 369.151 272.269 367.028 272.269C364.906 272.269 363.184 270.507 363.184 268.334C363.184 266.16 364.906 264.398 367.028 264.398C369.151 264.399 370.872 266.16 370.872 268.334Z" fill="#70BADB"/>
<path d="M386.063 268.334C386.063 270.507 384.342 272.269 382.22 272.269C380.096 272.269 378.375 270.507 378.375 268.334C378.375 266.16 380.096 264.398 382.22 264.398C384.343 264.399 386.063 266.16 386.063 268.334Z" fill="#70BADB"/>
<path d="M556.112 438.117H517.191C516.915 438.117 516.691 437.893 516.691 437.617C516.691 437.341 516.915 437.117 517.191 437.117H556.113C556.389 437.117 556.613 437.341 556.613 437.617C556.612 437.894 556.389 438.117 556.112 438.117Z" fill="black"/>
<path d="M441.081 296.447C429.547 290.884 427.376 278.4 444.202 273.651C432.396 259.131 444.337 250.718 452.344 249.089C460.35 247.461 476.226 251.532 491.559 264.694C506.893 277.856 513.542 278.535 518.156 288.847C522.769 299.16 520.598 307.166 515.984 317.615C511.371 328.063 510.828 331.32 519.784 339.733C528.74 348.146 536.067 356.56 529.826 372.436C523.584 388.312 448.952 382.477 445.424 371.62C441.896 360.766 450.309 321.006 450.309 321.006L441.081 296.447Z" fill="black"/>
<path d="M432.535 361.449C430.77 353.715 432.819 335.956 448.275 327.118C459.548 320.672 465.508 329.697 465.508 329.697L467.272 359.414C467.272 359.414 436.334 361.585 432.535 361.449Z" fill="black"/>
<path d="M345.693 316.8C344.337 314.901 342.304 312.301 340.405 313.658C338.506 315.014 341.53 326.033 350.036 324.67C347.864 321.414 345.693 316.8 345.693 316.8Z" fill="white"/>
<path d="M348.609 325.286C343.842 325.286 340.901 321.39 339.833 318.056C339.279 316.327 339.02 314.032 340.113 313.251C340.549 312.94 341.022 312.781 341.516 312.781C343.204 312.781 344.716 314.573 346.098 316.508C346.165 316.632 348.325 321.205 350.45 324.392C350.544 324.534 350.56 324.713 350.492 324.869C350.424 325.025 350.281 325.136 350.113 325.163C349.605 325.245 349.099 325.286 348.609 325.286ZM341.516 313.781C341.23 313.781 340.962 313.874 340.694 314.065C340.322 314.33 340.148 315.758 340.786 317.751C341.798 320.91 344.384 324.286 348.609 324.286C348.609 324.286 348.609 324.286 348.61 324.286C348.796 324.286 348.986 324.279 349.176 324.266C347.163 321.087 345.259 317.055 345.239 317.012C344.577 316.1 342.921 313.781 341.516 313.781Z" fill="black"/>
<path d="M369.708 318.024C365.095 316.531 362.109 312.868 363.603 309.881C365.095 306.897 369.98 310.831 373.373 313.545C376.766 316.259 380.022 316.802 380.022 316.802C380.022 316.802 375 319.38 369.708 318.024Z" fill="white"/>
<path d="M372.937 318.917C371.774 318.917 370.646 318.78 369.584 318.508C366.491 317.508 364.02 315.535 363.104 313.353C362.568 312.075 362.586 310.797 363.155 309.658C363.595 308.778 364.341 308.312 365.311 308.312C367.631 308.312 370.951 310.969 373.619 313.103C376.924 315.747 380.073 316.304 380.104 316.309C380.316 316.345 380.482 316.512 380.515 316.725C380.547 316.938 380.441 317.148 380.249 317.246C380.117 317.314 376.948 318.917 372.937 318.917ZM365.312 309.311C364.721 309.311 364.32 309.563 364.05 310.103C363.609 310.986 363.6 311.95 364.026 312.965C364.832 314.887 367.068 316.643 369.862 317.547C370.813 317.789 371.857 317.917 372.937 317.917C375.207 317.917 377.224 317.354 378.473 316.904C377.165 316.47 375.143 315.6 373.06 313.934C370.583 311.954 367.281 309.311 365.312 309.311Z" fill="black"/>
<path d="M374.549 359.678C374.188 351.716 373.283 335.795 372.017 330.73C370.75 325.664 362.788 327.109 362.246 326.929C361.704 326.748 351.798 330.502 346.913 320.597C342.027 310.691 345.963 307.027 348.677 307.977C349.627 304.72 352.341 305.67 353.833 307.298C355.19 304.448 359.125 307.435 360.075 311.098C361.025 314.762 361.974 318.019 369.573 317.069C377.173 316.119 386.535 313.948 390.199 324.939C393.863 335.93 396.848 353.028 396.848 353.028C396.848 353.028 395.401 363.885 374.549 359.678Z" fill="white"/>
<path d="M383.244 361.148C380.627 361.148 377.668 360.819 374.449 360.169C374.224 360.123 374.058 359.931 374.048 359.701C373.804 354.318 372.9 336.331 371.53 330.851C370.951 328.541 368.665 327.369 364.734 327.369C364.095 327.369 363.529 327.398 363.1 327.421C362.605 327.446 362.33 327.457 362.162 327.425C362.054 327.433 361.863 327.476 361.602 327.528C360.754 327.698 359.334 327.981 357.618 327.981C352.63 327.981 348.773 325.504 346.462 320.819C343.062 313.925 344.05 310.491 344.942 309.057C345.728 307.793 347.05 307.153 348.349 307.378C349.038 305.587 350.265 305.305 350.969 305.305C351.874 305.305 352.875 305.745 353.737 306.506C354.172 305.959 354.761 305.664 355.445 305.664C357.435 305.664 359.825 308.146 360.558 310.973C361.36 314.066 362.053 316.737 367.124 316.737C367.842 316.737 368.645 316.682 369.51 316.574C370.067 316.505 370.634 316.428 371.207 316.351C373.439 316.05 375.747 315.74 378.012 315.74C382.153 315.74 387.971 316.678 390.673 324.782C394.307 335.682 397.311 352.771 397.34 352.943C397.349 352.993 397.35 353.045 397.343 353.095C397.331 353.176 396.118 361.148 383.244 361.148ZM375.029 359.266C378.035 359.852 380.797 360.149 383.244 360.149C394.622 360.149 396.197 353.763 396.339 353.031C396.106 351.714 393.201 335.534 389.723 325.099C387.253 317.691 382.166 316.741 378.011 316.741C375.814 316.741 373.539 317.047 371.34 317.343C370.764 317.421 370.194 317.497 369.634 317.568C368.728 317.681 367.884 317.739 367.124 317.739C361.279 317.739 360.382 314.279 359.59 311.227C358.924 308.659 356.815 306.666 355.445 306.666C354.936 306.666 354.556 306.944 354.283 307.516C354.212 307.666 354.07 307.771 353.906 307.795C353.738 307.821 353.575 307.762 353.463 307.639C352.71 306.818 351.755 306.307 350.969 306.307C350.116 306.307 349.506 306.917 349.155 308.12C349.116 308.252 349.026 308.362 348.904 308.425C348.782 308.489 348.638 308.496 348.511 308.452C347.531 308.111 346.431 308.559 345.793 309.587C345.164 310.6 344.056 313.678 347.361 320.38C349.522 324.762 352.974 326.983 357.62 326.983C359.237 326.983 360.596 326.712 361.408 326.549C361.793 326.472 362.026 326.425 362.19 326.425C362.244 326.425 362.353 326.441 362.404 326.457C362.589 326.448 362.795 326.437 363.05 326.424C363.492 326.402 364.076 326.371 364.736 326.371C369.185 326.371 371.799 327.798 372.502 330.611C373.861 336.052 374.76 353.429 375.029 359.266Z" fill="black"/>
<path d="M350.777 325.914C350.671 325.914 350.563 325.88 350.472 325.81C347.4 323.436 345.361 319.888 344.413 315.265C344.357 314.995 344.532 314.73 344.802 314.674C345.076 314.619 345.337 314.793 345.392 315.064C346.291 319.446 348.205 322.796 351.083 325.019C351.302 325.188 351.342 325.501 351.173 325.72C351.075 325.848 350.927 325.914 350.777 325.914Z" fill="black"/>
<path d="M363.603 324.089C363.596 324.089 363.588 324.089 363.581 324.089C360.786 323.967 358.47 322.772 356.7 320.535C353.314 316.257 352.929 309.364 353.34 307.211C353.391 306.94 353.651 306.76 353.926 306.814C354.197 306.866 354.375 307.127 354.323 307.399C353.95 309.353 354.343 315.947 357.484 319.915C359.065 321.914 361.132 322.982 363.624 323.09C363.9 323.103 364.113 323.336 364.101 323.611C364.089 323.879 363.869 324.089 363.603 324.089Z" fill="black"/>
<path d="M358.311 327.753C358.297 327.753 358.283 327.752 358.269 327.751C355.657 327.533 353.477 326.315 351.79 324.132C347.798 318.964 347.821 309.98 348.183 307.899C348.23 307.627 348.488 307.44 348.762 307.493C349.034 307.54 349.216 307.799 349.169 308.071C348.823 310.056 348.795 318.618 352.582 323.521C354.09 325.473 356.032 326.562 358.353 326.755C358.628 326.777 358.832 327.02 358.809 327.295C358.787 327.556 358.568 327.753 358.311 327.753Z" fill="black"/>
<path d="M452.348 368.641C456.826 370.676 469.852 375.29 493.463 369.32C492.648 385.603 491.021 419.934 491.021 419.934C491.021 419.934 471.345 431.061 458.182 426.448C454.519 420.205 452.348 368.641 452.348 368.641Z" fill="black"/>
<path d="M456.375 355.749C460.31 355.206 464.557 353.708 464.149 347.194C463.741 340.68 462.657 332.131 462.657 332.131C452.48 331.996 442.438 326.703 437.825 316.255C433.211 305.807 439.317 300.379 442.71 289.524C446.102 278.669 452.481 269.713 466.727 270.663C480.975 271.612 488.574 278.397 488.574 278.397C486.132 291.152 483.689 309.2 488.981 310.286C494.273 311.371 495.631 302.009 495.631 302.009C503.637 298.073 512.023 302.863 508.793 309.878C504.858 318.427 495.495 314.085 495.495 314.085C493.596 318.97 485.59 324.398 485.59 324.398C486.811 334.44 488.027 351.05 495.625 352C492.504 367.877 490.882 373.656 490.882 373.656C490.882 373.656 463.608 380.304 453.701 370.535C454.108 367.142 456.375 355.749 456.375 355.749Z" fill="white"/>
<path d="M472.244 376.364C463.39 376.364 457.034 374.522 453.35 370.89C453.241 370.781 453.187 370.627 453.205 370.474C453.609 367.101 455.792 356.117 455.885 355.651C455.926 355.442 456.096 355.283 456.307 355.254C460.154 354.723 464.034 353.355 463.651 347.226C463.301 341.627 462.438 334.436 462.215 332.623C451.145 332.321 441.651 326.158 437.368 316.458C433.973 308.772 436.198 303.795 439.015 297.492C440.127 295.003 441.278 292.428 442.232 289.375C446.533 275.612 454.535 269.348 466.76 270.164C481.016 271.114 488.591 277.743 488.907 278.024C489.038 278.141 489.098 278.319 489.065 278.491C485.4 297.632 485.406 309.042 489.082 309.796C489.332 309.848 489.579 309.874 489.816 309.874C493.937 309.874 495.125 302.017 495.135 301.938C495.16 301.774 495.262 301.633 495.41 301.561C497.365 300.6 499.466 300.092 501.486 300.092C504.804 300.092 507.636 301.42 509.062 303.646C510.244 305.492 510.309 307.78 509.247 310.087C507.117 314.716 503.442 315.688 500.735 315.688C498.527 315.688 496.618 315.066 495.761 314.737C493.743 319.133 487.483 323.684 486.121 324.637C486.213 325.403 486.305 326.204 486.401 327.032C487.549 337.014 489.123 350.683 495.685 351.504C495.823 351.522 495.948 351.595 496.029 351.707C496.11 351.819 496.141 351.96 496.114 352.097C493.025 367.812 491.379 373.734 491.362 373.791C491.313 373.965 491.174 374.1 490.999 374.142C490.91 374.163 481.769 376.364 472.244 376.364ZM454.229 370.349C457.747 373.678 463.805 375.365 472.244 375.365C480.705 375.365 488.866 373.605 490.478 373.237C490.83 371.911 492.389 365.826 495.036 352.405C488.142 350.891 486.567 337.206 485.409 327.146C485.302 326.212 485.198 325.311 485.095 324.458C485.073 324.271 485.156 324.089 485.311 323.983C485.389 323.93 493.209 318.586 495.031 313.903C495.081 313.775 495.182 313.673 495.31 313.621C495.438 313.569 495.582 313.574 495.706 313.631C495.728 313.642 498.025 314.688 500.736 314.688C504.249 314.688 506.807 312.999 508.34 309.669C509.269 307.652 509.228 305.756 508.221 304.185C506.981 302.249 504.463 301.092 501.488 301.092C499.699 301.092 497.836 301.525 496.085 302.347C495.825 303.843 494.363 310.874 489.818 310.874C489.513 310.874 489.199 310.841 488.883 310.776C484.425 309.861 484.138 299.033 488.03 278.592C486.708 277.525 479.299 272.001 466.696 271.161C454.858 270.374 447.39 276.227 443.189 289.673C442.216 292.782 441.001 295.501 439.93 297.9C437.214 303.976 435.07 308.775 438.284 316.053C442.464 325.518 451.805 331.488 462.666 331.631C462.915 331.634 463.124 331.82 463.155 332.069C463.166 332.154 464.247 340.708 464.65 347.163C465.078 354.006 460.481 355.63 456.798 356.193C456.426 358.077 454.654 367.106 454.229 370.349Z" fill="black"/>
<path d="M453.159 310.248C453.075 310.248 452.99 310.227 452.912 310.183C450.049 308.552 448.548 306.953 448.323 305.296C448.045 303.238 449.713 301.566 451.326 299.948C451.641 299.632 451.956 299.316 452.252 299.002C454.893 296.189 454.613 291.064 453.235 287.492C452.644 285.961 451.647 285.053 450.272 284.797C448.456 284.464 446.497 285.362 445.569 286.383C445.383 286.588 445.068 286.603 444.863 286.417C444.658 286.231 444.643 285.915 444.829 285.711C445.967 284.459 448.263 283.411 450.456 283.814C451.651 284.038 453.267 284.794 454.169 287.133C455.705 291.115 455.934 296.542 452.98 299.687C452.678 300.008 452.357 300.331 452.034 300.655C450.593 302.1 449.102 303.595 449.314 305.163C449.492 306.472 450.868 307.868 453.406 309.314C453.646 309.451 453.73 309.756 453.594 309.996C453.501 310.157 453.333 310.248 453.159 310.248Z" fill="black"/>
<path d="M477.673 293.33C477.512 293.33 477.355 293.252 477.258 293.108C471.983 285.239 466.375 286.323 463.501 287.673C463.254 287.79 462.955 287.683 462.836 287.432C462.719 287.182 462.827 286.884 463.077 286.767C465.625 285.575 472.186 283.746 478.088 292.551C478.242 292.78 478.181 293.091 477.951 293.244C477.866 293.303 477.769 293.33 477.673 293.33Z" fill="black"/>
<path d="M469.618 300.447C469.089 302.138 467.878 303.268 466.913 302.968C465.949 302.666 465.596 301.049 466.124 299.356C466.651 297.664 467.863 296.535 468.826 296.838C469.791 297.139 470.146 298.753 469.618 300.447Z" fill="black"/>
<path d="M469.08 297.942C468.864 297.942 468.664 297.801 468.601 297.584L467.696 294.508C467.618 294.242 467.769 293.965 468.034 293.887C468.303 293.81 468.578 293.959 468.655 294.225L469.56 297.301C469.638 297.567 469.487 297.844 469.222 297.922C469.174 297.936 469.127 297.942 469.08 297.942Z" fill="black"/>
<path d="M449.852 296.736C449.324 298.427 448.113 299.556 447.148 299.257C446.183 298.956 445.831 297.338 446.358 295.646C446.886 293.953 448.098 292.825 449.061 293.127C450.024 293.428 450.381 295.042 449.852 296.736Z" fill="black"/>
<path d="M449.315 294.233C449.099 294.233 448.899 294.092 448.836 293.875L447.931 290.798C447.853 290.532 448.004 290.255 448.27 290.177C448.533 290.098 448.813 290.249 448.89 290.515L449.795 293.593C449.873 293.858 449.722 294.135 449.457 294.213C449.409 294.227 449.362 294.233 449.315 294.233Z" fill="black"/>
<path d="M452.961 320.283C451.907 320.283 451.024 319.92 450.337 319.202C449.122 317.932 448.58 315.58 448.727 312.212C448.736 312.018 448.856 311.846 449.036 311.772C449.215 311.698 449.421 311.734 449.564 311.865C450.281 312.52 452.383 313.285 455.951 313.285C458.177 313.285 460.628 312.972 463.039 312.382C463.255 312.33 463.474 312.422 463.586 312.609C463.699 312.796 463.678 313.034 463.534 313.198C459.575 317.7 455.722 320.283 452.961 320.283ZM449.704 313.157C449.693 315.726 450.157 317.567 451.059 318.51C452.962 320.495 457.198 318.466 461.725 313.693C456.883 314.642 452.014 314.365 449.704 313.157Z" fill="black"/>
<path d="M450.852 319.386C450.767 319.386 450.681 319.365 450.603 319.32C450.364 319.182 450.281 318.877 450.418 318.637C451.594 316.591 456.37 315.315 459.222 316.282C459.484 316.371 459.624 316.655 459.535 316.916C459.447 317.178 459.161 317.316 458.901 317.229C456.32 316.353 452.157 317.619 451.285 319.135C451.193 319.296 451.025 319.386 450.852 319.386Z" fill="black"/>
<path d="M462.445 332.684C462.152 332.681 461.886 332.478 461.887 332.182C461.888 331.907 462.112 331.684 462.387 331.684C462.409 331.682 462.427 331.684 462.447 331.684C467.513 331.684 475.679 328.762 481.149 325.864C481.393 325.733 481.697 325.827 481.825 326.071C481.955 326.315 481.862 326.618 481.618 326.747C476.038 329.703 467.676 332.684 462.445 332.684Z" fill="black"/>
<path d="M374.188 357.374C376.494 358.188 387.757 358.188 396.849 353.031C398.341 361.308 403.905 386.005 403.905 386.005C411.639 377.592 422.359 367.687 427.245 363.48C432.13 359.274 439.592 355.203 446.919 355.474C454.247 355.745 458.047 355.338 458.047 355.338C458.047 355.338 452.213 365.651 455.198 394.282C458.182 422.914 459.133 426.713 459.133 426.713L449.091 425.764C449.091 425.764 451.127 419.386 445.021 412.059C438.915 404.731 437.151 400.118 436.336 394.69C429.823 401.339 412.454 419.793 397.935 419.929C383.416 420.065 378.259 407.038 376.224 390.754C374.188 374.471 374.188 357.374 374.188 357.374Z" fill="#70BADB"/>
<path d="M486.003 419.75C481.932 420.971 464.424 426.17 456.418 425.627C448.412 425.084 440.135 421.148 433.621 422.777C427.108 424.405 415.935 432.615 416.727 435.871C417.337 438.382 420.323 437.025 420.323 437.025C421.409 439.332 423.58 438.11 423.58 438.11C424.666 440.418 429.687 439.06 432.672 436.482C435.657 433.904 439.32 432.547 443.935 434.175C448.548 435.803 455.74 438.11 464.153 438.517C472.566 438.924 492.379 437.999 492.379 437.999C492.379 437.999 495.365 426.263 486.003 419.75Z" fill="white"/>
<path d="M425.979 439.791C424.556 439.791 423.79 439.284 423.378 438.739C423.103 438.836 422.721 438.932 422.299 438.932C421.634 438.932 420.742 438.697 420.09 437.644C419.736 437.758 419.21 437.89 418.657 437.89C417.397 437.89 416.539 437.214 416.24 435.988C415.295 432.098 427.246 423.854 433.499 422.291C434.595 422.018 435.764 421.884 437.074 421.884C440.221 421.884 443.564 422.656 447.103 423.474C450.174 424.184 453.349 424.917 456.451 425.127C463.495 425.613 478.093 421.599 485.858 419.271C486.004 419.227 486.163 419.252 486.287 419.339C495.824 425.973 492.892 438.002 492.861 438.122C492.807 438.336 492.62 438.488 492.4 438.498C492.266 438.505 478.973 439.12 469.636 439.12H469.635C467.407 439.12 465.554 439.085 464.126 439.016C455.932 438.619 448.941 436.473 443.767 434.647C439.84 433.262 436.335 433.976 432.997 436.861C430.999 438.586 428.113 439.791 425.979 439.791ZM423.579 437.61C423.631 437.61 423.683 437.618 423.732 437.634C423.864 437.676 423.972 437.771 424.031 437.896C424.379 438.635 425.282 438.791 425.978 438.791C427.894 438.791 430.511 437.686 432.343 436.102C435.956 432.982 439.829 432.196 444.099 433.703C449.21 435.507 456.111 437.627 464.175 438.017C465.587 438.085 467.424 438.12 469.635 438.12C478.057 438.12 489.714 437.618 491.968 437.517C492.353 435.544 493.753 425.925 485.911 420.298C478.018 422.657 463.516 426.612 456.382 426.125C453.201 425.909 449.986 425.166 446.878 424.448C443.395 423.643 440.106 422.884 437.073 422.884C435.845 422.884 434.756 423.008 433.74 423.262C427.189 424.899 416.53 432.953 417.211 435.752C417.4 436.528 417.859 436.891 418.656 436.891C419.391 436.891 420.108 436.573 420.115 436.569C420.365 436.46 420.658 436.566 420.773 436.812C421.128 437.566 421.628 437.933 422.297 437.933C422.855 437.933 423.329 437.675 423.334 437.673C423.411 437.631 423.494 437.61 423.579 437.61Z" fill="black"/>
<path d="M547.468 410.161C541.497 394.149 536.341 376.781 531.456 368.91C526.571 361.04 520.736 353.712 509.881 352.626C502.011 352.083 494.954 351.812 494.954 351.812C492.376 358.597 484.099 391.436 488.441 418.982C486.541 418.982 485.184 420.068 485.184 420.068C489.526 423.596 491.968 429.973 490.883 438.522C509.744 440.014 529.692 437.03 536.204 435.401C542.719 433.773 553.438 426.174 547.468 410.161ZM509.202 415.182L510.152 403.785L513.273 414.368L509.202 415.182Z" fill="#70BADB"/>
<path d="M366.902 317.657C366.64 317.657 366.42 317.453 366.403 317.188C366.386 316.913 366.595 316.675 366.871 316.658C367.803 316.599 368.925 316.494 370.147 316.379C374.248 315.991 379.351 315.512 382.402 316.298C382.67 316.367 382.83 316.64 382.761 316.907C382.692 317.174 382.42 317.335 382.152 317.266C379.266 316.521 374.262 316.994 370.241 317.373C369.007 317.489 367.874 317.597 366.933 317.655C366.923 317.657 366.912 317.657 366.902 317.657Z" fill="black"/>
<path d="M436.74 397.498C436.507 397.498 436.299 397.334 436.251 397.096C435.344 392.556 436.358 386.736 437.767 382.982C437.864 382.723 438.154 382.589 438.411 382.69C438.67 382.787 438.801 383.075 438.703 383.334C437.69 386.036 436.239 391.934 437.232 396.901C437.286 397.172 437.111 397.435 436.839 397.489C436.806 397.495 436.773 397.498 436.74 397.498Z" fill="black"/>
<path d="M485.484 420.2C485.262 420.2 485.06 420.052 485.001 419.828C484.931 419.561 485.09 419.287 485.356 419.217C489.745 418.055 517.239 412.661 526.933 411.83C527.204 411.806 527.45 412.01 527.474 412.285C527.497 412.56 527.293 412.803 527.019 412.826C517.366 413.654 489.984 419.026 485.612 420.183C485.569 420.195 485.526 420.2 485.484 420.2Z" fill="black"/>
<path d="M510.831 406.046C510.619 406.046 510.423 405.91 510.354 405.698C509.372 402.629 506.958 392.947 505.798 388.294L505.46 386.942C505.394 386.674 505.556 386.403 505.824 386.335C506.088 386.268 506.363 386.431 506.43 386.699L506.768 388.052C507.925 392.695 510.334 402.356 511.306 405.394C511.39 405.657 511.245 405.939 510.982 406.023C510.933 406.038 510.882 406.046 510.831 406.046Z" fill="black"/>
<path d="M423.579 438.614C423.563 438.614 423.548 438.613 423.533 438.612C423.258 438.587 423.054 438.343 423.08 438.069C423.245 436.252 430.552 430.155 437.145 428.271C437.414 428.191 437.688 428.349 437.763 428.614C437.839 428.88 437.686 429.157 437.42 429.232C430.785 431.128 424.182 436.983 424.075 438.159C424.053 438.419 423.834 438.614 423.579 438.614Z" fill="black"/>
<path d="M420.32 437.525C420.044 437.525 419.82 437.301 419.82 437.025C419.82 434.417 425.296 428.916 433.876 426.234C434.144 426.151 434.42 426.299 434.503 426.562C434.585 426.826 434.439 427.106 434.175 427.189C425.365 429.942 420.821 435.331 420.821 437.025C420.82 437.302 420.597 437.525 420.32 437.525Z" fill="black"/>
<path d="M455.732 436.638H412.881L395.637 386.274C394.132 381.882 389.103 378.289 384.461 378.289H311.283C306.642 378.289 304.075 381.883 305.578 386.274L323.342 438.156C325.285 443.193 325.513 447.339 330.563 447.339H455.733C458.686 447.339 461.083 444.944 461.083 441.987C461.082 439.032 458.686 436.638 455.732 436.638Z" fill="#F2AC30"/>
<path d="M409.104 438.07H323.996C323.72 438.07 323.496 437.846 323.496 437.57C323.496 437.294 323.72 437.07 323.996 437.07H409.104C409.38 437.07 409.604 437.294 409.604 437.57C409.604 437.846 409.38 438.07 409.104 438.07Z" fill="black"/>
<path d="M358.025 420.104C354.327 420.104 350.26 416.435 348.958 411.924C348.211 409.342 348.481 406.933 349.699 405.313C350.593 404.124 351.946 403.469 353.509 403.469C357.209 403.469 361.275 407.139 362.574 411.649C363.321 414.229 363.051 416.639 361.832 418.26C360.938 419.449 359.587 420.104 358.025 420.104ZM353.509 404.469C352.25 404.469 351.209 404.968 350.499 405.913C349.472 407.279 349.261 409.369 349.919 411.646C351.106 415.758 354.743 419.103 358.026 419.103C359.283 419.103 360.323 418.604 361.033 417.659C362.061 416.291 362.273 414.202 361.614 411.926C360.429 407.814 356.793 404.469 353.509 404.469Z" fill="black"/>
</g>
<defs>
<clipPath id="clip0_3056_15885">
<rect width="750" height="500" fill="white"/>
</clipPath>
</defs>
</svg>
