<svg width="1440" height="743" viewBox="0 0 1440 743" fill="none" xmlns="http://www.w3.org/2000/svg">
<rect x="132" y="52" width="60" height="60" fill="#E2E8FE"/>
<rect x="860" y="91" width="60" height="60" fill="#E2E8FE"/>
<rect x="479" y="478" width="60" height="60" fill="#FFE3BB" fill-opacity="0.45"/>
<rect x="1304" y="663" width="60" height="60" fill="#D7FFF9"/>
<rect x="373" y="121" width="120" height="60" fill="#D7FFF9"/>
<rect x="1124" y="414" width="120" height="60" fill="#E2E8FE"/>
<rect x="800" y="331" width="120" height="60" transform="rotate(-90 800 331)" fill="#FFE3BB" fill-opacity="0.45"/>
<rect x="42" y="271" width="120" height="60" transform="rotate(-90 42 271)" fill="#F4E0FF"/>
<rect x="253" y="282" width="180" height="60" fill="#E2E8FE"/>
<rect x="253" y="437" width="95" height="60" transform="rotate(-90 253 437)" fill="#E2E8FE"/>
<rect x="810" y="538" width="180" height="60" fill="#F4E0FF"/>
<rect x="810" y="693" width="95" height="60" transform="rotate(-90 810 693)" fill="#F4E0FF"/>
<rect x="1246" y="33" width="180" height="60" fill="#F4E0FF"/>
<rect x="1246" y="188" width="95" height="60" transform="rotate(-90 1246 188)" fill="#F4E0FF"/>
<rect width="120" height="60" transform="matrix(-1 0 0 1 1184 162)" fill="#D7FFF9"/>
<rect width="60" height="60" transform="matrix(0 -1 -1 0 1184 282)" fill="#D7FFF9"/>
<rect width="120" height="60" transform="matrix(-1 0 0 1 162 542)" fill="#D7FFF9"/>
<rect width="60" height="60" transform="matrix(0 -1 -1 0 162 662)" fill="#D7FFF9"/>
<line x1="13.1484" y1="743" x2="13.1484" stroke="#C9C9C9" stroke-opacity="0.6"/>
<line x1="77.1484" y1="743" x2="77.1484" stroke="#C9C9C9" stroke-opacity="0.6"/>
<line x1="141.148" y1="743" x2="141.148" stroke="#C9C9C9" stroke-opacity="0.6"/>
<line x1="205.148" y1="743" x2="205.148" stroke="#C9C9C9" stroke-opacity="0.6"/>
<line x1="269.148" y1="743" x2="269.148" stroke="#C9C9C9" stroke-opacity="0.6"/>
<line x1="333.148" y1="743" x2="333.148" stroke="#C9C9C9" stroke-opacity="0.6"/>
<line x1="397.148" y1="743" x2="397.148" stroke="#C9C9C9" stroke-opacity="0.6"/>
<line x1="461.148" y1="743" x2="461.148" stroke="#C9C9C9" stroke-opacity="0.6"/>
<line x1="525.148" y1="743" x2="525.148" stroke="#C9C9C9" stroke-opacity="0.6"/>
<line x1="589.148" y1="743" x2="589.148" stroke="#C9C9C9" stroke-opacity="0.6"/>
<line x1="653.148" y1="743" x2="653.148" stroke="#C9C9C9" stroke-opacity="0.6"/>
<line x1="717.148" y1="743" x2="717.148" stroke="#C9C9C9" stroke-opacity="0.6"/>
<line x1="781.148" y1="743" x2="781.148" stroke="#C9C9C9" stroke-opacity="0.6"/>
<line x1="845.148" y1="743" x2="845.148" stroke="#C9C9C9" stroke-opacity="0.6"/>
<line x1="909.148" y1="743" x2="909.148" stroke="#C9C9C9" stroke-opacity="0.6"/>
<line x1="973.148" y1="743" x2="973.148" stroke="#C9C9C9" stroke-opacity="0.6"/>
<line x1="1037.15" y1="743" x2="1037.15" stroke="#C9C9C9" stroke-opacity="0.6"/>
<line x1="1101.15" y1="743" x2="1101.15" stroke="#C9C9C9" stroke-opacity="0.6"/>
<line x1="1165.15" y1="743" x2="1165.15" stroke="#C9C9C9" stroke-opacity="0.6"/>
<line x1="1229.15" y1="743" x2="1229.15" stroke="#C9C9C9" stroke-opacity="0.6"/>
<line x1="1293.15" y1="743" x2="1293.15" stroke="#C9C9C9" stroke-opacity="0.6"/>
<line x1="1357.15" y1="743" x2="1357.15" stroke="#C9C9C9" stroke-opacity="0.6"/>
<line x1="1421.15" y1="743" x2="1421.15" stroke="#C9C9C9" stroke-opacity="0.6"/>
<line y1="38.5" x2="1460" y2="38.5" stroke="#C9C9C9" stroke-opacity="0.6"/>
<line y1="102.5" x2="1460" y2="102.5" stroke="#C9C9C9" stroke-opacity="0.6"/>
<line y1="166.5" x2="1460" y2="166.5" stroke="#C9C9C9" stroke-opacity="0.6"/>
<line y1="230.5" x2="1460" y2="230.5" stroke="#C9C9C9" stroke-opacity="0.6"/>
<line y1="294.5" x2="1460" y2="294.5" stroke="#C9C9C9" stroke-opacity="0.6"/>
<line y1="358.5" x2="1460" y2="358.5" stroke="#C9C9C9" stroke-opacity="0.6"/>
<line y1="422.5" x2="1460" y2="422.5" stroke="#C9C9C9" stroke-opacity="0.6"/>
<line y1="486.5" x2="1460" y2="486.5" stroke="#C9C9C9" stroke-opacity="0.6"/>
<line y1="550.5" x2="1460" y2="550.5" stroke="#C9C9C9" stroke-opacity="0.6"/>
<line y1="614.5" x2="1460" y2="614.5" stroke="#C9C9C9" stroke-opacity="0.6"/>
<line y1="678.5" x2="1460" y2="678.5" stroke="#C9C9C9" stroke-opacity="0.6"/>
<line y1="742.5" x2="1460" y2="742.5" stroke="#C9C9C9" stroke-opacity="0.6"/>
</svg>
