<svg width="184" height="145" viewBox="0 0 184 145" fill="none" xmlns="http://www.w3.org/2000/svg">
<path d="M181.294 61.5495C176.307 35.841 155.859 4.25628 115.462 0.950884C115.462 0.950884 84.7912 -1.98721 54.5563 2.46576C36.6118 5.10857 20.8771 12.9757 10.9209 24.2826C0.964577 35.5896 -2.36119 49.3769 1.67503 62.5214C4.29653 71.0589 6.06798 79.8948 5.58177 88.6676C4.73565 103.936 5.22245 118.187 24.0371 127.293C40.8365 135.423 61.9787 142.594 82.1487 143.85C95.8561 144.703 111.228 143.322 124.439 140.511C191.767 126.188 186.281 87.2581 181.294 61.5495Z" fill="#F4F7FA"/>
<path d="M139.752 123.791C136.235 124.997 130.315 127.026 123.211 125.908C110.295 123.877 101.85 112.764 99.5006 103.664C97.4828 95.8479 100.652 87.7621 106.99 71.5906C112.959 56.3601 116.59 52.6314 113.404 47.9181C108.862 41.1987 96.8872 41.9784 93.0808 33.5139C92.6241 32.4982 91.0553 29.0096 93.0343 25.9708C96.422 20.7687 107.828 20.5357 114.423 21.5861C120.783 22.5993 130.13 25.9954 132.569 32.1784C134.337 36.658 130.977 38.795 133.55 42.2792C136.138 45.7848 140.32 44.6789 147.173 48.7053C149.911 50.3138 155.407 53.5426 156.9 58.4952C158.83 64.8991 152.321 68.3881 155.251 72.8229C157.369 76.0272 161.459 75.2533 164.755 78.3962C169.094 82.5337 167.291 88.9164 165.701 94.2119C163.828 100.448 158.775 117.271 139.752 123.791Z" fill="url(#paint0_linear_2930_24111)"/>
<path opacity="0.16" d="M96.903 26.3587C95.8802 29.8447 111.625 30.8889 119.603 41.3974C128.186 52.7039 122.541 68.0694 119.932 75.1702C115.482 87.2854 109.985 89.3103 109.85 99.4814C109.797 103.507 109.685 111.893 117.567 117.799C118.299 118.348 126.579 124.37 136.561 122.895C147.883 121.222 152.788 111.175 157.013 102.519C159.567 97.2884 164.668 86.8396 159.259 83.2124C155.953 80.9951 149.481 81.8375 145.429 83.6358C139.647 86.2023 138.004 91.0674 136.815 90.7196C135.744 90.4063 136.048 86.1579 138.07 81.7283C142.115 72.8683 148.901 72.3423 151.195 65.1463C151.474 64.2741 153.55 57.3378 148.402 52.6898C145.433 50.009 139.984 48.0198 136.661 49.4109C132.903 50.9842 133.487 56.2023 132.183 56.1917C130.935 56.1817 129.643 51.4047 129.241 46.5366C128.651 39.3837 130.476 37.9943 129 34.2517C126.749 28.5415 120.086 25.6507 119.121 25.2459C110.075 21.4533 97.7774 23.3783 96.903 26.3587Z" fill="white"/>
<path d="M132.828 130.637C130.232 129.992 125.863 128.907 122.721 125.704C117.007 119.88 119.057 110.833 123.18 105.1C126.721 100.176 133.199 97.0093 146.154 90.6763C158.355 84.7117 162.504 84.047 163.585 80.3553C165.127 75.0923 158.255 71.1182 161.222 65.1908C161.578 64.4796 162.801 62.0366 165.657 61.1355C170.547 59.593 176.791 63.6513 179.7 66.632C182.507 69.5071 185.502 74.7529 183.152 78.9576C181.45 82.004 178.388 81.9158 177.705 84.7245C177.017 87.5505 179.91 88.492 181.198 93.1608C181.713 95.026 182.746 98.7701 180.617 101.969C177.864 106.105 172.316 105.586 171.262 109.035C170.501 111.527 173.149 112.613 173.055 115.504C172.931 119.31 168.192 122.066 164.209 124.317C159.519 126.969 146.867 134.122 132.828 130.637Z" fill="url(#paint1_linear_2930_24111)"/>
<path opacity="0.16" d="M167.502 62.7716C164.894 64.2628 172.705 70.5959 170.763 79.1473C168.672 88.3481 156.565 94.5038 150.97 97.3485C141.423 102.202 137.283 101.27 131.197 106.666C128.788 108.801 123.77 113.25 124.497 119.303C124.565 119.865 125.437 126.125 131.653 128.996C138.704 132.253 147.269 128.673 154.65 125.588C159.11 123.725 168.019 120.002 167.268 116.076C166.809 113.677 162.846 111.754 159.614 111.231C155.001 110.484 151.244 112.486 150.814 111.864C150.426 111.304 153.1 109.141 156.802 107.511C164.206 104.251 168.15 106.458 173.633 103.447C174.298 103.082 179.511 100.131 179.503 95.7543C179.499 93.2303 177.758 90.167 175.156 89.6931C172.214 89.1572 169.442 92.165 168.749 91.6809C168.087 91.218 170.22 88.1867 172.884 85.4333C176.797 81.3877 178.596 81.313 180.019 78.7681C182.19 74.8854 180.332 70.8945 180.055 70.3239C177.455 64.9762 169.733 61.4967 167.502 62.7716Z" fill="white"/>
<path d="M57.4898 65.0034C59.6491 66.5137 63.083 66.2453 65.1595 64.404C67.236 62.5626 67.1689 59.8455 65.0096 58.3353C64.8978 58.257 64.7804 58.1865 64.6622 58.1177C65.5162 57.0379 66.2595 55.9254 66.888 54.7887C67.0309 54.8179 67.1748 54.8456 67.3237 54.8654C70.232 55.2527 73.1722 53.6618 73.8909 51.3119C74.6096 48.962 72.8346 46.7431 69.9263 46.3558C69.7743 46.3357 69.6222 46.3239 69.4703 46.3144C69.5592 45.0947 69.5292 43.879 69.3806 42.6779C69.5314 42.6446 69.6822 42.6092 69.8326 42.5654C72.7105 41.7259 74.3694 39.2387 73.5377 37.01C72.7059 34.7814 69.6985 33.6553 66.8206 34.4947C66.6731 34.5378 66.5312 34.5878 66.3902 34.6393C65.7083 33.6049 64.913 32.6126 64.0087 31.6702C64.1233 31.5833 64.2367 31.4947 64.3442 31.3993C66.4208 29.558 68.9827 27.6072 66.7936 26.1237C61.7295 22.6919 58.6012 24.0886 56.5246 25.93C56.4171 26.0254 56.3187 26.1245 56.2226 26.2242C54.9275 25.6285 53.5825 25.1237 52.1978 24.7125C52.246 24.5962 52.2923 24.4793 52.3292 24.3589C53.0478 22.0091 54.3497 20.926 51.5116 20.2933C45.3227 18.9136 42.516 20.6066 41.7973 22.9563C41.7597 23.0792 41.733 23.2013 41.7087 23.3231C40.1767 23.3488 38.6404 23.4689 37.113 23.6824C37.0829 23.5647 37.0502 23.4472 37.0069 23.3307C36.1751 21.102 33.1678 19.976 30.2897 20.8155C27.4116 21.655 25.7529 24.1422 26.5847 26.3708C26.6272 26.485 26.6792 26.5943 26.7328 26.7026C25.3738 27.3283 24.0589 28.041 22.7982 28.8364C22.6976 28.752 22.5947 28.6685 22.4828 28.5904C20.3235 27.08 16.8897 27.3484 14.8131 29.1898C12.7365 31.0312 12.8036 33.7482 14.963 35.2585C15.0749 35.3368 15.1922 35.4073 15.3104 35.4761C14.4564 36.5559 13.713 37.6684 13.0846 38.8051C12.9416 38.776 12.7978 38.7482 12.649 38.7283C9.74043 38.3411 6.80032 39.932 6.08155 42.2819C5.36285 44.6317 7.13802 46.8506 10.0463 47.2378C10.1982 47.258 10.3503 47.2698 10.502 47.2794C10.4132 48.4991 10.4432 49.7147 10.5917 50.9159C10.441 50.9492 10.2902 50.9846 10.1398 51.0284C7.26185 51.8679 5.60299 54.3551 6.43474 56.5838C7.2665 58.8125 11.8437 60.7132 14.7217 59.8737C14.8692 59.8306 13.4413 59.006 13.5821 58.9546C14.2641 59.989 15.0595 60.9813 15.9635 61.9237C15.8491 62.0106 15.7357 62.0992 15.6282 62.1946C13.5516 64.0359 13.6187 66.7531 15.778 68.2633C17.9373 69.7736 21.3712 69.5053 23.4477 67.664C23.5553 67.5686 23.6536 67.4695 23.7496 67.3697C25.0447 67.9654 26.3897 68.4703 27.7745 68.8815C27.7263 68.9977 27.68 69.1146 27.6431 69.2351C26.9244 71.5849 28.6995 73.8037 31.6078 74.1911C34.5161 74.5783 37.4564 72.9874 38.175 70.6376C38.2126 70.5148 38.2394 70.3927 38.2634 70.2708C39.7955 70.2452 41.3318 70.1251 42.8592 69.9116C42.8893 70.0292 42.922 70.1468 42.9654 70.2632C43.7973 72.4918 46.8045 73.618 49.6825 72.7785C52.5606 71.9389 54.2194 69.4518 53.3877 67.223C53.345 67.1089 53.2931 66.9997 53.2395 66.8914C54.5985 66.2657 55.9134 65.5531 57.174 64.7576C57.2751 64.8418 57.3779 64.9252 57.4898 65.0034ZM26.3349 58.9022C18.495 53.4185 18.2513 43.5534 25.7908 36.8679C33.3303 30.1822 45.7977 29.2079 53.6378 34.6915C61.4778 40.1752 61.7215 50.0403 54.1821 56.7258C46.6425 63.4114 34.175 64.3858 26.3349 58.9022Z" fill="url(#paint2_linear_2930_24111)"/>
<path d="M67.3259 54.8677C70.2342 55.2549 73.1744 53.6639 73.8932 51.3141C74.6118 48.9643 72.8369 46.7453 69.9285 46.3581C69.7765 46.3378 69.6244 46.3262 69.4725 46.3166C69.5615 45.0968 69.5313 43.8813 69.3828 42.6801C69.5336 42.6469 69.6844 42.6114 69.8348 42.5675C72.7127 41.7281 76.7999 39.1078 75.6824 36.9581C73.5611 32.8781 69.7007 33.6575 66.8228 34.4969C66.6753 34.54 66.5334 34.5899 66.3926 34.6414C65.7105 33.607 64.9152 32.6148 64.011 31.6723C64.1256 31.5854 64.2389 31.4969 64.3465 31.4015C65.4766 30.3994 65.9667 29.1384 65.8352 27.9531C62.4031 30.7234 58.9981 33.5139 55.6287 36.3308C61.4574 41.9842 61.0228 50.6638 54.1841 56.728C48.389 61.8669 39.684 63.6269 32.4052 61.6782C31.8494 62.2857 31.2984 62.8981 30.7211 63.4942C29.1549 65.112 27.4704 66.6653 25.7852 68.216C26.4391 68.4602 27.1031 68.6832 27.777 68.8834C27.7288 68.9997 27.6825 69.1166 27.6456 69.237C26.9269 71.5868 28.0678 73.945 33.2899 74.7933C36.1786 75.2626 37.4588 72.9894 38.1775 70.6395C38.215 70.5167 38.2418 70.3947 38.266 70.2728C39.7981 70.2472 41.3343 70.1271 42.8617 69.9136C42.8917 70.0312 42.9245 70.1487 42.968 70.2651C43.7997 72.4939 48.6356 74.3663 51.5136 73.5268C54.3918 72.6873 54.2219 69.4537 53.3902 67.2251C53.3475 67.1109 53.2956 67.0016 53.242 66.8933C54.601 66.2676 55.916 65.555 57.1765 64.7595C57.2772 64.844 57.38 64.9274 57.4919 65.0055C59.6512 66.5159 63.0852 66.2474 65.1617 64.4061C67.2382 62.5648 67.1711 59.8476 65.0118 58.3374C64.8999 58.2591 64.7826 58.1886 64.6643 58.1198C65.5184 57.04 66.2617 55.9275 66.8901 54.7909C67.0331 54.8201 67.177 54.8478 67.3259 54.8677Z" fill="url(#paint3_linear_2930_24111)"/>
<path d="M60.0989 65.7992C62.2582 67.3095 65.6921 67.0412 67.7686 65.1998C69.8451 63.3584 69.778 60.6414 67.6187 59.131C67.5068 59.0527 67.3896 58.9822 67.2712 58.9134C68.1254 57.8336 68.8686 56.7211 69.497 55.5844C69.64 55.6136 69.7839 55.6413 69.9328 55.6611C72.8412 56.0484 75.7813 54.4575 76.5 52.1077C77.2188 49.7578 75.4438 47.5389 72.5355 47.1516C72.3834 47.1314 72.2314 47.1197 72.0795 47.1101C72.1684 45.8903 72.1383 44.6748 71.9898 43.4736C72.1406 43.4404 72.2914 43.405 72.4418 43.3611C75.3197 42.5217 76.9786 40.0344 76.1469 37.8057C75.3151 35.5771 72.3077 34.4509 69.4297 35.2905C69.2822 35.3335 69.1403 35.3835 68.9994 35.435C68.3174 34.4006 67.5221 33.4084 66.6179 32.466C66.7325 32.3791 66.8458 32.2904 66.9534 32.1951C69.0299 30.3538 68.9628 27.6366 66.8035 26.1263C64.6442 24.6159 61.2103 24.8844 59.1338 26.7257C59.0263 26.8211 58.9279 26.9202 58.8318 27.02C57.5368 26.4242 56.1918 25.9194 54.8071 25.5082C54.8553 25.392 54.9016 25.2751 54.9385 25.1547C55.6571 22.8049 53.8821 20.586 50.9737 20.1987C48.0654 19.8114 45.1252 21.4024 44.4065 23.7521C44.369 23.8749 44.3422 23.997 44.318 24.1188C42.786 24.1445 41.2498 24.2646 39.7223 24.4781C39.6922 24.3605 39.6595 24.243 39.6162 24.1264C38.7845 21.8978 35.777 20.7716 32.899 21.6112C30.0209 22.4508 28.3623 24.9379 29.1939 27.1666C29.2366 27.2807 29.2885 27.3901 29.3421 27.4983C27.9831 28.124 26.6681 28.8366 25.4075 29.6321C25.3068 29.5477 25.204 29.4643 25.0921 29.3861C22.9328 27.8758 19.499 28.1442 17.4224 29.9855C15.3458 31.8269 15.4129 34.544 17.5722 36.0543C17.6842 36.1326 17.8014 36.2031 17.9197 36.2718C17.0657 37.3516 16.3223 38.4641 15.6939 39.6008C15.5511 39.5717 15.4071 39.544 15.2582 39.524C12.3499 39.1369 9.40962 40.7277 8.69092 43.0776C7.97222 45.4274 9.74739 47.6462 12.6557 48.0336C12.8075 48.0538 12.9596 48.0655 13.1114 48.0751C13.0225 49.2948 13.0526 50.5104 13.2011 51.7116C13.0504 51.7448 12.8996 51.7802 12.7492 51.8241C9.87122 52.6635 8.21236 55.1509 9.04412 57.3794C9.87581 59.6081 12.8832 60.7342 15.7612 59.8948C15.9087 59.8517 16.0506 59.8017 16.1915 59.7503C16.8736 60.7847 17.6688 61.7769 18.573 62.7193C18.4585 62.8063 18.3451 62.8948 18.2375 62.9902C16.161 64.8316 16.2281 67.5486 18.3874 69.059C20.5467 70.5693 23.9806 70.301 26.0571 68.4596C26.1647 68.3643 26.263 68.2651 26.3591 68.1653C27.6541 68.7611 28.9992 69.2658 30.3839 69.6771C30.3358 69.7934 30.2893 69.9103 30.2525 70.0307C29.5339 72.3805 31.3089 74.5994 34.2172 74.9867C37.1255 75.374 40.0657 73.783 40.7844 71.4332C40.8219 71.3104 40.8487 71.1883 40.8728 71.0665C42.4049 71.0408 43.9411 70.9208 45.4685 70.7072C45.4987 70.8248 45.5314 70.9424 45.5749 71.0588C46.4066 73.2875 49.4139 74.4137 52.2919 73.5741C55.17 72.7345 56.8287 70.2474 55.9971 68.0186C55.9544 67.9045 55.9024 67.7952 55.8488 67.687C57.2078 67.0612 58.5227 66.3486 59.7834 65.5531C59.8842 65.6376 59.987 65.7209 60.0989 65.7992ZM28.9441 59.6979C21.1041 54.2143 20.8604 44.3493 28.3999 37.6636C35.9395 30.9781 48.4068 30.0037 56.2468 35.4874C64.0868 40.9711 64.3305 50.8361 56.7911 57.5217C49.2516 64.2073 36.7841 65.1816 28.9441 59.6979Z" fill="url(#paint4_linear_2930_24111)"/>
<path d="M111.125 37.4854C112.623 38.5332 115.005 38.347 116.445 37.0696C117.886 35.7923 117.839 33.9074 116.341 32.8597C116.264 32.8054 116.182 32.7564 116.1 32.7087C116.693 31.9597 117.208 31.1879 117.644 30.3994C117.744 30.4196 117.843 30.4388 117.947 30.4526C119.964 30.7212 122.004 29.6176 122.503 27.9875C123.001 26.3573 121.77 24.8181 119.752 24.5494C119.647 24.5354 119.541 24.5273 119.436 24.5206C119.498 23.6745 119.477 22.8312 119.374 21.9979C119.478 21.9749 119.583 21.9503 119.687 21.9199C121.684 21.3375 122.834 19.6121 122.257 18.0661C121.68 16.52 119.594 15.7388 117.598 16.3212C117.495 16.351 117.397 16.3857 117.299 16.4214C116.826 15.7039 116.274 15.0155 115.647 14.3617C115.727 14.3014 115.805 14.24 115.88 14.1738C117.32 12.8964 119.098 11.5431 117.579 10.514C114.066 8.13333 111.896 9.10226 110.455 10.3796C110.381 10.4458 110.312 10.5145 110.246 10.5838C109.347 10.1705 108.414 9.82031 107.454 9.53503C107.487 9.45437 107.519 9.3733 107.545 9.28971C108.043 7.65966 108.946 6.9083 106.978 6.46935C102.684 5.51226 100.737 6.6867 100.239 8.31675C100.213 8.40201 100.194 8.4867 100.177 8.57118C99.1145 8.58899 98.0488 8.67227 96.9892 8.82038C96.9684 8.73878 96.9456 8.65723 96.9155 8.57642C96.3385 7.03038 94.2523 6.24922 92.2558 6.83162C90.2592 7.41402 89.1085 9.13939 89.6855 10.6854C89.7151 10.7647 89.7512 10.8405 89.7883 10.9156C88.8455 11.3496 87.9334 11.844 87.0589 12.3958C86.989 12.3373 86.9177 12.2794 86.8401 12.2251C85.3421 11.1774 82.96 11.3636 81.5195 12.6409C80.079 13.9183 80.1255 15.8032 81.6235 16.8509C81.7011 16.9052 81.7825 16.9541 81.8645 17.0018C81.2721 17.7509 80.7563 18.5226 80.3204 19.3112C80.2212 19.2909 80.1214 19.2717 80.0182 19.2579C78.0006 18.9893 75.961 20.0929 75.4623 21.7231C74.9638 23.3532 76.1952 24.8924 78.2127 25.1611C78.3181 25.1751 78.4236 25.1833 78.5289 25.1899C78.4673 26.0361 78.488 26.8793 78.5911 27.7126C78.4866 27.7356 78.3819 27.7602 78.2776 27.7906C76.2811 28.373 75.1304 30.0984 75.7074 31.6444C76.2844 33.1905 79.4597 34.509 81.4561 33.9267C81.5584 33.8968 80.5679 33.3248 80.6657 33.2891C81.1388 34.0067 81.6906 34.695 82.3177 35.3488C82.2383 35.4091 82.1596 35.4705 82.0851 35.5367C80.6445 36.8141 80.6911 38.699 82.189 39.7467C83.6869 40.7944 86.0691 40.6083 87.5096 39.3309C87.5842 39.2647 87.6525 39.196 87.719 39.1267C88.6175 39.54 89.5505 39.8902 90.5111 40.1755C90.4777 40.2561 90.4455 40.3373 90.42 40.4208C89.9214 42.0508 91.1528 43.5901 93.1704 43.8588C95.1879 44.1275 97.2276 43.0238 97.7261 41.3937C97.7522 41.3085 97.7707 41.2238 97.7875 41.1393C98.8504 41.1215 99.9161 41.0382 100.976 40.8901C100.997 40.9717 101.019 41.0532 101.049 41.134C101.626 42.68 103.713 43.4613 105.709 42.8789C107.706 42.2965 108.856 40.5711 108.279 39.025C108.25 38.9458 108.214 38.87 108.177 38.7949C109.119 38.3609 110.032 37.8665 110.906 37.3147C110.976 37.3733 111.047 37.4312 111.125 37.4854ZM89.5122 33.2529C84.0735 29.4488 83.9045 22.6052 89.1347 17.9674C94.365 13.3295 103.014 12.6536 108.453 16.4577C113.891 20.2617 114.06 27.1052 108.83 31.7431C103.6 36.3811 94.9509 37.0569 89.5122 33.2529Z" fill="url(#paint5_linear_2930_24111)"/>
<path d="M117.942 30.4522C119.96 30.7208 122 29.6172 122.498 27.9871C122.997 26.357 121.765 24.8176 119.748 24.549C119.642 24.535 119.537 24.5269 119.432 24.5202C119.493 23.674 119.472 22.8309 119.369 21.9975C119.474 21.9745 119.579 21.9499 119.683 21.9195C121.679 21.3371 124.515 19.5193 123.739 18.0281C122.268 15.1978 119.59 15.7384 117.593 16.3207C117.491 16.3506 117.393 16.3853 117.295 16.4209C116.822 15.7034 116.27 15.015 115.643 14.3613C115.722 14.301 115.801 14.2395 115.875 14.1734C116.659 13.4782 116.999 12.6034 116.908 11.7812C114.527 13.703 112.165 15.6389 109.828 17.5929C113.871 21.5148 113.57 27.536 108.826 31.7428C104.806 35.3077 98.7668 36.5286 93.7174 35.1768C93.3318 35.5982 92.9495 36.023 92.5491 36.4365C91.4627 37.5588 90.2941 38.6363 89.125 39.7121C89.5786 39.8815 90.0393 40.0362 90.5067 40.1751C90.4733 40.2558 90.4412 40.3369 90.4156 40.4204C89.9171 42.0505 90.7085 43.6864 94.3311 44.2749C96.3352 44.6005 97.2232 43.0235 97.7218 41.3934C97.7478 41.3082 97.7664 41.2235 97.7831 41.139C98.846 41.1212 99.9117 41.0379 100.971 40.8898C100.992 40.9714 101.015 41.0529 101.045 41.1337C101.622 42.6797 104.977 43.9787 106.973 43.3963C108.97 42.8139 108.852 40.5708 108.275 39.0247C108.245 38.9456 108.209 38.8698 108.172 38.7946C109.115 38.3605 110.027 37.8662 110.902 37.3144C110.971 37.373 111.043 37.4308 111.12 37.485C112.618 38.5328 115.001 38.3466 116.441 37.0693C117.882 35.7919 117.835 33.907 116.337 32.8593C116.259 32.805 116.178 32.7561 116.096 32.7084C116.689 31.9593 117.204 31.1875 117.64 30.399C117.739 30.4192 117.839 30.4383 117.942 30.4522Z" fill="url(#paint6_linear_2930_24111)"/>
<path d="M112.925 38.0334C114.423 39.0811 116.805 38.8949 118.246 37.6176C119.687 36.3402 119.64 34.4553 118.142 33.4076C118.064 33.3533 117.983 33.3043 117.901 33.2566C118.493 32.5076 119.009 31.7358 119.445 30.9472C119.544 30.9675 119.644 30.9867 119.747 31.0005C121.765 31.2691 123.805 30.1655 124.303 28.5353C124.802 26.9052 123.57 25.3659 121.553 25.0972C121.447 25.0833 121.342 25.0751 121.237 25.0684C121.298 24.2223 121.277 23.379 121.174 22.5458C121.279 22.5227 121.383 22.4982 121.488 22.4677C123.484 21.8854 124.635 20.16 124.058 18.6139C123.481 17.0678 121.395 16.2866 119.398 16.869C119.296 16.8988 119.198 16.9335 119.1 16.9692C118.627 16.2517 118.075 15.5633 117.448 14.9095C117.527 14.8493 117.606 14.7878 117.68 14.7216C119.121 13.4443 119.074 11.5594 117.576 10.5117C116.079 9.46392 113.696 9.65011 112.256 10.9275C112.181 10.9937 112.113 11.0624 112.046 11.1317C111.148 10.7184 110.215 10.3682 109.254 10.0829C109.288 10.0023 109.32 9.9212 109.346 9.83767C109.844 8.20757 108.613 6.66834 106.595 6.39966C104.578 6.13098 102.538 7.23466 102.039 8.86471C102.013 8.94992 101.995 9.03461 101.978 9.11914C100.915 9.137 99.8495 9.22028 98.7899 9.36839C98.7691 9.28679 98.7464 9.2053 98.7163 9.12443C98.1393 7.57839 96.053 6.79718 94.0565 7.37958C92.06 7.96203 90.9093 9.6874 91.4862 11.2334C91.5158 11.3126 91.5518 11.3885 91.5891 11.4636C90.6463 11.8977 89.7341 12.392 88.8596 12.9438C88.7897 12.8853 88.7184 12.8274 88.6408 12.7731C87.1428 11.7254 84.7607 11.9116 83.3202 13.1889C81.8797 14.4663 81.9263 16.3513 83.4242 17.3989C83.5018 17.4533 83.5831 17.5022 83.6653 17.5499C83.0728 18.2989 82.5571 19.0707 82.1212 19.8593C82.0221 19.8391 81.9222 19.8198 81.8189 19.806C79.8014 19.5374 77.7617 20.641 77.2631 22.2712C76.7645 23.9013 77.996 25.4405 80.0135 25.7092C80.1189 25.7232 80.2244 25.7314 80.3296 25.738C80.2681 26.5841 80.2889 27.4274 80.3919 28.2606C80.2874 28.2837 80.1827 28.3082 80.0784 28.3387C78.0819 28.921 76.9312 30.6465 77.5082 32.1925C78.0852 33.7386 80.1714 34.5198 82.1679 33.9375C82.2702 33.9076 82.3687 33.8729 82.4664 33.8373C82.9396 34.5548 83.4912 35.2432 84.1185 35.8969C84.0391 35.9572 83.9604 36.0187 83.8858 36.0849C82.4453 37.3623 82.4918 39.2471 83.9898 40.2948C85.4878 41.3425 87.8699 41.1564 89.3104 39.879C89.385 39.8129 89.4532 39.7441 89.5199 39.6748C90.4183 40.0881 91.3514 40.4383 92.312 40.7236C92.2786 40.8042 92.2464 40.8853 92.2208 40.9689C91.7223 42.599 92.9536 44.1383 94.9712 44.4069C96.9887 44.6756 99.0284 43.5719 99.5269 41.9419C99.553 41.8567 99.5716 41.772 99.5883 41.6874C100.651 41.6696 101.717 41.5863 102.776 41.4382C102.797 41.5198 102.82 41.6014 102.85 41.6821C103.427 43.2282 105.513 44.0094 107.51 43.427C109.506 42.8446 110.657 41.1193 110.08 39.5732C110.051 39.494 110.014 39.4182 109.977 39.3431C110.92 38.909 111.832 38.4147 112.707 37.8629C112.776 37.9212 112.848 37.9791 112.925 38.0334ZM91.3129 33.8009C85.8742 29.9968 85.7051 23.1533 90.9354 18.5154C96.1657 13.8775 104.815 13.2016 110.253 17.0057C115.692 20.8098 115.861 27.6533 110.631 32.2912C105.4 36.929 96.7516 37.6049 91.3129 33.8009Z" fill="url(#paint7_linear_2930_24111)"/>
<path d="M182.397 130.961L6.80078 129.766V133.302C6.80078 134.262 7.56663 135.079 8.60395 135.224L58.2573 142.189C58.8466 142.272 59.4441 142.293 60.0388 142.254L180.489 134.313C181.564 134.243 182.397 133.424 182.397 132.437L182.397 130.961Z" fill="#BFC8D6"/>
<path d="M117.769 125.29L6.16387 131.76C4.16678 131.876 2.54297 130.646 2.54297 129.012V63.5597C2.54297 61.926 4.16678 60.6016 6.16387 60.6016L10.1122 62.3938L117.769 60.6016C119.415 60.6016 120.745 61.7988 120.745 63.2756V122.443C120.745 123.92 119.415 125.195 117.769 125.29Z" fill="#BFC8D6"/>
<path d="M119.547 125.29L7.94122 131.76C5.94406 131.876 4.32031 130.646 4.32031 129.012V63.5597C4.32031 61.926 5.94406 60.6016 7.94122 60.6016H119.547C121.192 60.6016 122.522 61.7988 122.522 63.2756V122.443C122.522 123.92 121.192 125.195 119.547 125.29Z" fill="white"/>
<path d="M116.078 121.115L12.1295 126.736C10.5043 126.823 9.18359 125.814 9.18359 124.48V67.1763C9.18359 65.8426 10.5043 64.7569 12.1295 64.7514L116.078 64.3985C117.436 64.3938 118.534 65.3749 118.534 66.5896V118.783C118.534 119.998 117.436 121.042 116.078 121.115Z" fill="#D8DEE8"/>
<path d="M48.9911 70.1348L20.9377 70.1924L20.9336 68.0859L48.9871 68.0931L48.9911 70.1348Z" fill="white"/>
<path d="M62.2022 69.5239L55.7216 69.5329L55.7188 68.0938L62.1994 68.0954L62.2022 69.5239Z" fill="white"/>
<path d="M62.2022 71.5067L55.7216 71.5304L55.7188 70.0913L62.1993 70.0781L62.2022 71.5067Z" fill="white"/>
<path d="M94.5039 71.3912L69.3622 71.4833L69.3594 70.0664L94.5012 70.0156L94.5039 71.3912Z" fill="white"/>
<path d="M98.6288 73.2751L73.7372 73.4229L73.7344 72.0133L98.626 71.9062L98.6288 73.2751Z" fill="white"/>
<path d="M98.6364 75.1813L73.745 75.3858L73.7422 73.9762L98.6338 73.8125L98.6364 75.1813Z" fill="white"/>
<path d="M98.6402 77.0797L73.7489 77.3409L73.7461 75.9313L98.6376 75.7109L98.6402 77.0797Z" fill="white"/>
<path d="M62.206 73.4989L55.7255 73.5373L55.7227 72.0982L62.2032 72.0703L62.206 73.4989Z" fill="white"/>
<path d="M62.2177 75.4754L55.7372 75.5286L55.7344 74.0895L62.2149 74.0469L62.2177 75.4754Z" fill="white"/>
<path d="M62.2177 77.4676L55.7372 77.5356L55.7344 76.0964L62.2149 76.0391L62.2177 77.4676Z" fill="white"/>
<path d="M62.2216 79.4519L55.7411 79.5347L55.7383 78.0956L62.2188 78.0234L62.2216 79.4519Z" fill="white"/>
<path d="M79.5868 79.2282L63.6356 79.4318L63.6328 78.0057L79.584 77.8281L79.5868 79.2282Z" fill="white"/>
<path d="M62.2215 81.4363L55.7411 81.5338L55.7383 80.0947L62.2187 80.0078L62.2215 81.4363Z" fill="white"/>
<path d="M62.2293 83.4207L55.749 83.533L55.7461 82.0938L62.2265 81.9922L62.2293 83.4207Z" fill="white"/>
<path d="M62.2293 85.4051L55.749 85.5321L55.7461 84.0929L62.2265 83.9766L62.2293 85.4051Z" fill="white"/>
<path d="M87.063 81.0597L69.3777 81.3258L69.375 79.909L87.0604 79.6719L87.063 81.0597Z" fill="white"/>
<path d="M96.2532 82.8259L73.7528 83.2156L73.75 81.806L96.2505 81.4531L96.2532 82.8259Z" fill="white"/>
<path d="M96.2609 84.7399L73.7606 85.1809L73.7578 83.7713L96.2582 83.3672L96.2609 84.7399Z" fill="white"/>
<path d="M62.241 87.3894L55.7607 87.5312L55.7578 86.0921L62.2382 85.9609L62.241 87.3894Z" fill="white"/>
<path d="M62.241 89.3738L55.7607 89.5304L55.7578 88.0912L62.2382 87.9453L62.241 89.3738Z" fill="white"/>
<path d="M62.2487 91.3582L55.7685 91.5295L55.7656 90.0903L62.2459 89.9297L62.2487 91.3582Z" fill="white"/>
<path d="M62.2565 93.3426L55.7763 93.5286L55.7734 92.0895L62.2537 91.9141L62.2565 93.3426Z" fill="white"/>
<path d="M62.2565 95.3269L55.7763 95.5277L55.7734 94.0886L62.2537 93.8984L62.2565 95.3269Z" fill="white"/>
<path d="M62.2604 97.3113L55.7802 97.5268L55.7773 96.0877L62.2576 95.8828L62.2604 97.3113Z" fill="white"/>
<path d="M62.2643 99.2957L55.7841 99.526L55.7812 98.0869L62.2614 97.8672L62.2643 99.2957Z" fill="white"/>
<path d="M62.2642 101.28L55.7841 101.525L55.7812 100.086L62.2614 99.8516L62.2642 101.28Z" fill="white"/>
<path d="M62.272 103.264L55.7919 103.524L55.7891 102.085L62.2692 101.836L62.272 103.264Z" fill="white"/>
<path d="M62.2719 105.249L55.7919 105.523L55.7891 104.084L62.2691 103.82L62.2719 105.249Z" fill="white"/>
<path d="M62.2759 107.233L55.7958 107.523L55.793 106.083L62.2731 105.805L62.2759 107.233Z" fill="white"/>
<path d="M62.2836 109.225L55.8036 109.529L55.8008 108.09L62.2808 107.797L62.2836 109.225Z" fill="white"/>
<path d="M62.2836 111.202L55.8036 111.521L55.8008 110.082L62.2808 109.773L62.2836 111.202Z" fill="white"/>
<path d="M62.2914 113.186L55.8115 113.52L55.8086 112.081L62.2885 111.758L62.2914 113.186Z" fill="white"/>
<path d="M62.2913 115.171L55.8115 115.519L55.8086 114.08L62.2885 113.742L62.2913 115.171Z" fill="white"/>
<path d="M62.2952 117.155L55.8154 117.518L55.8125 116.079L62.2925 115.727L62.2952 117.155Z" fill="white"/>
<path d="M62.2952 119.139L55.8154 119.517L55.8125 118.078L62.2924 117.711L62.2952 119.139Z" fill="white"/>
<path d="M62.303 121.132L55.8232 121.524L55.8203 120.085L62.3002 119.703L62.303 121.132Z" fill="white"/>
<path d="M81.2435 69.4955L63.5692 69.52L63.5664 68.0938L81.2407 68.0983L81.2435 69.4955Z" fill="white"/>
<path d="M94.5798 109.618L69.4403 110.855L69.4375 109.438L94.577 108.242L94.5798 109.618Z" fill="white"/>
<path d="M98.7046 111.314L73.8153 112.595L73.8125 111.186L98.702 109.945L98.7046 111.314Z" fill="white"/>
<path d="M98.7045 113.213L73.8153 114.551L73.8125 113.141L98.7018 111.844L98.7045 113.213Z" fill="white"/>
<path d="M109.435 114.515L85.1902 115.874L85.1875 114.483L109.432 113.164L109.435 114.515Z" fill="white"/>
<path d="M109.435 116.398L85.1902 117.812L85.1875 116.421L109.432 115.047L109.435 116.398Z" fill="white"/>
<path d="M109.443 118.273L85.198 119.742L85.1953 118.351L109.44 116.922L109.443 118.273Z" fill="white"/>
<path d="M81.32 108.327L63.6473 109.156L63.6445 107.73L81.3173 106.93L81.32 108.327Z" fill="white"/>
<path d="M94.5341 88.5944L69.3934 89.2016L69.3906 87.7848L94.5314 87.2188L94.5341 88.5944Z" fill="white"/>
<path d="M98.6629 90.3922L73.7723 91.0501L73.7695 89.6405L98.6601 89.0234L98.6629 90.3922Z" fill="white"/>
<path d="M98.6628 92.2985L73.7723 93.0131L73.7695 91.6035L98.6601 90.9297L98.6628 92.2985Z" fill="white"/>
<path d="M98.6705 94.1969L73.7801 94.9681L73.7773 93.5585L98.6678 92.8281L98.6705 94.1969Z" fill="white"/>
<path d="M79.6252 96.736L63.6747 97.2666L63.6719 95.8404L79.6225 95.3359L79.6252 96.736Z" fill="white"/>
<path d="M87.1014 98.4112L69.4169 99.0397L69.4141 97.623L87.0988 97.0234L87.1014 98.4112Z" fill="white"/>
<path d="M96.2913 99.9899L73.7919 100.841L73.7891 99.4311L96.2887 98.6172L96.2913 99.9899Z" fill="white"/>
<path d="M96.2913 101.904L73.7919 102.806L73.7891 101.396L96.2885 100.531L96.2913 101.904Z" fill="white"/>
<path d="M101.286 103.599L79.0575 104.541L79.0547 103.14L101.283 102.234L101.286 103.599Z" fill="white"/>
<path d="M101.286 105.497L79.0574 106.49L79.0547 105.089L101.283 104.133L101.286 105.497Z" fill="white"/>
<path d="M81.2818 86.9676L63.6083 87.3542L63.6055 85.928L81.2791 85.5703L81.2818 86.9676Z" fill="white"/>
<path d="M48.9986 73.323L32.9416 73.4138L32.9375 71.335L48.9946 71.2812L48.9986 73.323Z" fill="white"/>
<path d="M28.7932 73.4422L31.8174 73.4251L31.8134 71.3438L28.7891 71.3539L28.7932 73.4422Z" fill="white"/>
<path d="M48.9985 76.2605L32.9416 76.4046L32.9375 74.3258L48.9945 74.2188L48.9985 76.2605Z" fill="white"/>
<path d="M28.7932 76.4445L31.8174 76.4173L31.8133 74.3359L28.7891 74.3561L28.7932 76.4445Z" fill="white"/>
<path d="M49.0101 79.198L32.9533 79.3953L32.9492 77.3165L49.0061 77.1562L49.0101 79.198Z" fill="white"/>
<path d="M28.8009 79.4467L31.8252 79.4095L31.821 77.3281L28.7969 77.3583L28.8009 79.4467Z" fill="white"/>
<path d="M49.0517 100.026L21.0002 101.031L20.9961 98.9249L49.0477 97.9844L49.0517 100.026Z" fill="white"/>
<path d="M49.0639 103.221L33.008 103.855L33.0039 101.776L49.0599 101.18L49.0639 103.221Z" fill="white"/>
<path d="M28.8439 104.021L31.8679 103.902L31.8639 101.82L28.8398 101.933L28.8439 104.021Z" fill="white"/>
<path d="M49.0639 106.151L33.008 106.838L33.0039 104.759L49.0598 104.109L49.0639 106.151Z" fill="white"/>
<path d="M28.8557 107.015L31.8797 106.886L31.8756 104.805L28.8516 104.927L28.8557 107.015Z" fill="white"/>
<path d="M49.0676 109.089L33.0119 109.828L33.0078 107.75L49.0636 107.047L49.0676 109.089Z" fill="white"/>
<path d="M28.8556 110.018L31.8797 109.878L31.8755 107.797L28.8516 107.929L28.8556 110.018Z" fill="white"/>
<path d="M49.0215 82.1511L20.969 82.5896L20.9648 80.4831L49.0175 80.1094L49.0215 82.1511Z" fill="white"/>
<path d="M49.0177 85.3386L32.9612 85.6475L32.957 83.5687L49.0137 83.2969L49.0177 85.3386Z" fill="white"/>
<path d="M28.8166 85.7255L31.8408 85.6673L31.8367 83.5859L28.8125 83.6371L28.8166 85.7255Z" fill="white"/>
<path d="M49.0332 88.2761L32.9767 88.6382L32.9727 86.5594L49.0292 86.2344L49.0332 88.2761Z" fill="white"/>
<path d="M28.8205 88.7277L31.8446 88.6595L31.8405 86.5781L28.8164 86.6394L28.8205 88.7277Z" fill="white"/>
<path d="M49.0486 94.1823L32.9924 94.6517L32.9883 92.5729L49.0446 92.1406L49.0486 94.1823Z" fill="white"/>
<path d="M28.8322 94.7713L31.8564 94.6829L31.8522 92.6016L28.8281 92.6829L28.8322 94.7713Z" fill="white"/>
<path d="M49.0486 97.1198L32.9924 97.6424L32.9883 95.5636L49.0446 95.0781L49.0486 97.1198Z" fill="white"/>
<path d="M28.8322 97.7736L31.8563 97.6752L31.8522 95.5938L28.8281 95.6853L28.8322 97.7736Z" fill="white"/>
<path d="M49.0371 91.2136L32.9806 91.629L32.9766 89.5502L49.033 89.1719L49.0371 91.2136Z" fill="white"/>
<path d="M28.8283 91.7299L31.8524 91.6517L31.8484 89.5703L28.8242 89.6415L28.8283 91.7299Z" fill="white"/>
<path d="M49.0744 112.026L21.0237 113.412L21.0195 111.305L49.0704 109.984L49.0744 112.026Z" fill="white"/>
<path d="M49.0831 115.214L33.0275 116.065L33.0234 113.986L49.0791 113.172L49.0831 115.214Z" fill="white"/>
<path d="M28.8752 116.288L31.8991 116.128L31.8951 114.047L28.8711 114.2L28.8752 116.288Z" fill="white"/>
<path d="M49.0869 118.143L33.0314 119.047L33.0273 116.969L49.0828 116.102L49.0869 118.143Z" fill="white"/>
<path d="M28.883 119.283L31.907 119.113L31.9029 117.031L28.8789 117.195L28.883 119.283Z" fill="white"/>
<path d="M49.0907 121.081L33.0354 122.038L33.0312 119.959L49.0867 119.039L49.0907 121.081Z" fill="white"/>
<path d="M28.8908 122.285L31.9148 122.105L31.9106 120.023L28.8867 120.197L28.8908 122.285Z" fill="white"/>
<path d="M52.4988 120.889L51.881 120.926L51.7773 68.0938L52.3952 68.0939L52.4988 120.889Z" fill="white"/>
<path d="M67.6875 62.3896C67.6875 62.9977 67.1131 63.4922 66.4038 63.4939C65.6935 63.4957 65.1172 63.003 65.1172 62.3935C65.1172 61.7839 65.6936 61.2895 66.4038 61.2891C67.1132 61.2886 67.6875 61.7813 67.6875 62.3896Z" fill="white"/>
<path opacity="0.48" d="M7.94082 131.76L118.982 125.323L119.547 125.29C120.302 125.246 120.988 124.952 121.512 124.506C113.522 124.162 108.559 121.929 105.357 119.621C98.9277 114.987 100.043 110.417 93.1094 107.371C84.4617 103.57 77.6618 108.386 71.0996 103.635C67.1212 100.754 69.0744 98.6062 64.179 94.3018C58.7569 89.5342 55.2269 91.1368 49.7778 86.846C42.8879 81.4205 46.3338 77.1993 40.399 73.304C33.1992 68.5784 25.4345 72.9522 18.5808 68.4202C15.6247 66.4655 14.0027 63.6238 13.1558 60.6016H7.94129C5.94412 60.6016 4.32031 61.926 4.32031 63.5597V129.012C4.32031 130.646 5.94379 131.876 7.94082 131.76Z" fill="white"/>
<path d="M124.815 124.933L6.80078 131.744L58.2573 138.961C58.8466 139.044 59.4441 139.066 60.0388 139.027L182.397 130.96L126.692 124.979C126.07 124.912 125.441 124.897 124.815 124.933Z" fill="url(#paint8_linear_2930_24111)"/>
<path d="M24.0117 131.801L122.262 126.047L152.67 129.285L55.2658 135.437L24.0117 131.801Z" fill="#D8DEE8"/>
<path d="M68.6238 95.8025C69.5209 96.3396 70.8011 96.2023 71.4831 95.4958L71.7056 95.2652C72.3876 94.5586 72.2133 93.5505 71.3161 93.0134L38.4746 73.3512C37.5775 72.8141 36.2973 72.9514 35.6153 73.658L35.3928 73.8886C34.7108 74.5951 34.8851 75.6033 35.7823 76.1404L68.6238 95.8025Z" fill="url(#paint9_linear_2930_24111)"/>
<path d="M64.5642 99.6164C65.4613 100.153 66.7414 100.016 67.4234 99.3096L75.2102 91.2429C75.8922 90.5364 75.7178 89.5282 74.8207 88.9911L73.3473 88.109C72.4502 87.5719 71.1701 87.7092 70.4881 88.4158L62.7014 96.4825C62.0194 97.1891 62.1937 98.1972 63.0909 98.7343L64.5642 99.6164Z" fill="url(#paint10_linear_2930_24111)"/>
<path d="M65.0053 102.18L96.9515 121.306C97.7109 121.761 98.6134 121.97 99.5005 121.956C100.705 121.939 101.893 121.498 102.678 120.685L110.808 112.263C112.171 110.85 111.822 108.833 110.029 107.759L78.0824 88.633C76.772 87.8484 75.0472 87.7814 73.6856 88.3556C73.1819 88.5654 72.7236 88.8614 72.3562 89.2419L64.2267 97.6638C62.8632 99.0764 63.2117 101.106 65.0053 102.18Z" fill="url(#paint11_linear_2930_24111)"/>
<g opacity="0.5">
<path d="M103.606 111.457C104.258 111.848 105.188 111.748 105.684 111.234C106.18 110.721 106.053 109.988 105.401 109.598L78.9234 93.746C78.2714 93.3557 77.3411 93.4555 76.8454 93.969C76.3498 94.4825 76.4765 95.2151 77.1285 95.6055L103.606 111.457Z" fill="url(#paint12_linear_2930_24111)"/>
<path d="M97.9614 117.301C98.6134 117.692 99.5438 117.592 100.039 117.078C100.535 116.565 100.408 115.832 99.7563 115.442L73.2789 99.5898C72.6269 99.1994 71.6966 99.2993 71.2009 99.8127C70.7053 100.326 70.832 101.059 71.484 101.449L97.9614 117.301Z" fill="url(#paint13_linear_2930_24111)"/>
</g>
<path d="M30.2564 75.6324L24.0305 70.035C23.7526 69.7853 23.74 69.4183 23.995 69.154L24.9838 68.1297L25.807 67.2768L26.8094 66.2384C27.0645 65.9741 27.5169 65.8856 27.8968 66.0297L36.4124 69.258C36.677 69.3583 36.8932 69.5221 37.0311 69.7263L38.1665 71.4381C38.5438 71.9973 38.4412 72.6588 37.9546 73.1629L37.1064 74.0417L36.2831 74.8945L35.4484 75.7592C34.9618 76.2633 34.1795 76.5178 33.3945 76.3811L30.9799 75.9675C30.693 75.9175 30.45 75.8063 30.2564 75.6324Z" fill="url(#paint14_linear_2930_24111)"/>
<path opacity="0.3" d="M99.4987 121.951C100.703 121.933 101.887 121.497 102.672 120.683L110.802 112.261C112.165 110.849 111.816 108.832 110.023 107.758L78.0766 88.6316C76.7662 87.8471 75.0452 87.7823 73.6836 88.3565C76.134 89.3408 79.7865 90.6882 81.0353 92.758C82.2263 94.7327 85.6833 98.2322 90.6379 99.5164C95.5925 100.801 104.846 105.266 105.803 109.363C106.762 113.459 107.381 116.633 99.4987 121.951Z" fill="url(#paint15_linear_2930_24111)"/>
<path d="M89.527 77.648L76.2525 74.8752L72.6645 64.4351L86.6131 54.5655C87.4567 53.8977 85.9474 52.3333 84.7522 52.295C78.9251 52.1083 73.0194 53.8209 68.6602 57.4311C60.8108 63.9317 61.0076 74.249 69.0908 80.5694C77.3179 87.0022 90.6089 86.9715 98.7878 80.4975C103.111 77.0759 105.875 73.0351 105.616 68.5658C105.562 67.6235 103.38 66.6831 102.535 67.3518L89.527 77.648Z" fill="url(#paint16_linear_2930_24111)"/>
<path d="M69.0946 74.6406L20.718 110.281C17.6139 112.624 17.5675 116.52 20.6153 118.908C23.6622 121.296 28.6071 121.24 31.5665 118.785L76.6082 80.528L69.0946 74.6406Z" fill="url(#paint17_linear_2930_24111)"/>
<path d="M90.2964 78.3199L77.022 75.547L73.434 65.107L86.4417 54.8109C87.2854 54.1431 86.7169 53.0052 85.5217 52.9669C79.6946 52.7802 73.7889 54.4928 69.4297 58.1029C61.5803 64.6036 61.7771 74.921 69.8603 81.2413C78.0874 87.6741 91.3783 87.6434 99.5573 81.1694C103.88 77.7478 105.909 73.2109 105.65 68.7416C105.596 67.7993 104.149 67.355 103.304 68.0237L90.2964 78.3199Z" fill="url(#paint18_linear_2930_24111)"/>
<path d="M69.8681 75.3125L21.4915 110.953C18.3874 113.296 18.341 117.192 21.3887 119.58C24.4357 121.968 29.3806 121.912 32.34 119.457L77.3817 81.1999L69.8681 75.3125Z" fill="url(#paint19_linear_2930_24111)"/>
<path opacity="0.4" d="M72.2412 79.3219C73.4579 80.2753 73.4629 81.825 72.2523 82.7832C71.0417 83.7414 69.074 83.7454 67.8572 82.7919C66.6405 81.8386 66.6355 80.2889 67.8461 79.3306C69.0568 78.3724 71.0245 78.3685 72.2412 79.3219Z" fill="url(#paint20_linear_2930_24111)"/>
<path opacity="0.4" d="M68.269 84.5267L29.1221 115.513C28.406 116.08 27.242 116.082 26.5222 115.518C25.8025 114.954 25.7995 114.037 26.5156 113.471L65.6625 82.4844L68.269 84.5267Z" fill="url(#paint21_linear_2930_24111)"/>
<defs>
<linearGradient id="paint0_linear_2930_24111" x1="153.678" y1="48.6594" x2="100.032" y2="111.326" gradientUnits="userSpaceOnUse">
<stop stop-color="#AA80F9"/>
<stop offset="0.9964" stop-color="#6165D7"/>
</linearGradient>
<linearGradient id="paint1_linear_2930_24111" x1="184.709" y1="95.5202" x2="118.525" y2="97.8659" gradientUnits="userSpaceOnUse">
<stop offset="0.0036" stop-color="#E38DDD"/>
<stop offset="1" stop-color="#9571F6"/>
</linearGradient>
<linearGradient id="paint2_linear_2930_24111" x1="6.81522" y1="40.0749" x2="70.5679" y2="61.2981" gradientUnits="userSpaceOnUse">
<stop stop-color="#AB316D"/>
<stop offset="1" stop-color="#792D3D"/>
</linearGradient>
<linearGradient id="paint3_linear_2930_24111" x1="32.5581" y1="47.8709" x2="70.8024" y2="60.6024" gradientUnits="userSpaceOnUse">
<stop stop-color="#AB316D"/>
<stop offset="1" stop-color="#792D3D"/>
</linearGradient>
<linearGradient id="paint4_linear_2930_24111" x1="70.5417" y1="24.8687" x2="-22.0278" y2="146.23" gradientUnits="userSpaceOnUse">
<stop stop-color="#FF9085"/>
<stop offset="1" stop-color="#FB6FBB"/>
</linearGradient>
<linearGradient id="paint5_linear_2930_24111" x1="75.9711" y1="20.1922" x2="120.197" y2="34.915" gradientUnits="userSpaceOnUse">
<stop stop-color="#AB316D"/>
<stop offset="1" stop-color="#792D3D"/>
</linearGradient>
<linearGradient id="paint6_linear_2930_24111" x1="93.8235" y1="25.5984" x2="120.354" y2="34.4304" gradientUnits="userSpaceOnUse">
<stop stop-color="#AB316D"/>
<stop offset="1" stop-color="#792D3D"/>
</linearGradient>
<linearGradient id="paint7_linear_2930_24111" x1="120.17" y1="9.63932" x2="55.9531" y2="93.829" gradientUnits="userSpaceOnUse">
<stop stop-color="#FF9085"/>
<stop offset="1" stop-color="#FB6FBB"/>
</linearGradient>
<linearGradient id="paint8_linear_2930_24111" x1="6.80075" y1="131.98" x2="182.397" y2="131.98" gradientUnits="userSpaceOnUse">
<stop offset="0.494" stop-color="#EBEFF2"/>
<stop offset="1" stop-color="white"/>
</linearGradient>
<linearGradient id="paint9_linear_2930_24111" x1="70.4901" y1="96.386" x2="43.7901" y2="66.3776" gradientUnits="userSpaceOnUse">
<stop stop-color="#40447E"/>
<stop offset="0.9964" stop-color="#3C3B6B"/>
</linearGradient>
<linearGradient id="paint10_linear_2930_24111" x1="55.8912" y1="86.041" x2="67.4993" y2="97.2461" gradientUnits="userSpaceOnUse">
<stop offset="0.0036" stop-color="#E38DDD"/>
<stop offset="1" stop-color="#9571F6"/>
</linearGradient>
<linearGradient id="paint11_linear_2930_24111" x1="94.0516" y1="98.1938" x2="84.6305" y2="113.93" gradientUnits="userSpaceOnUse">
<stop offset="0.0036" stop-color="#E38DDD"/>
<stop offset="1" stop-color="#9571F6"/>
</linearGradient>
<linearGradient id="paint12_linear_2930_24111" x1="110.649" y1="116.114" x2="79.6532" y2="81.2775" gradientUnits="userSpaceOnUse">
<stop offset="0.0036" stop-color="#E38DDD"/>
<stop offset="1" stop-color="#9571F6"/>
</linearGradient>
<linearGradient id="paint13_linear_2930_24111" x1="104.483" y1="121.594" x2="73.4871" y2="86.7577" gradientUnits="userSpaceOnUse">
<stop offset="0.0036" stop-color="#E38DDD"/>
<stop offset="1" stop-color="#9571F6"/>
</linearGradient>
<linearGradient id="paint14_linear_2930_24111" x1="36.6265" y1="74.7185" x2="28.076" y2="65.1085" gradientUnits="userSpaceOnUse">
<stop stop-color="#40447E"/>
<stop offset="0.9964" stop-color="#3C3B6B"/>
</linearGradient>
<linearGradient id="paint15_linear_2930_24111" x1="107.276" y1="116.601" x2="78.4062" y2="84.1546" gradientUnits="userSpaceOnUse">
<stop offset="0.0036" stop-color="#E38DDD"/>
<stop offset="1" stop-color="#9571F6"/>
</linearGradient>
<linearGradient id="paint16_linear_2930_24111" x1="76.5135" y1="60.6144" x2="107.713" y2="127.253" gradientUnits="userSpaceOnUse">
<stop stop-color="#40447E"/>
<stop offset="0.9964" stop-color="#3C3B6B"/>
</linearGradient>
<linearGradient id="paint17_linear_2930_24111" x1="33.9802" y1="80.5224" x2="65.1881" y2="147.179" gradientUnits="userSpaceOnUse">
<stop stop-color="#40447E"/>
<stop offset="0.9964" stop-color="#3C3B6B"/>
</linearGradient>
<linearGradient id="paint18_linear_2930_24111" x1="566.599" y1="386.986" x2="527.747" y2="345.987" gradientUnits="userSpaceOnUse">
<stop offset="0.0036" stop-color="#F36F56"/>
<stop offset="1" stop-color="#FFC444"/>
</linearGradient>
<linearGradient id="paint19_linear_2930_24111" x1="534.386" y1="417.349" x2="495.542" y2="376.359" gradientUnits="userSpaceOnUse">
<stop offset="0.0036" stop-color="#F36F56"/>
<stop offset="1" stop-color="#FFC444"/>
</linearGradient>
<linearGradient id="paint20_linear_2930_24111" x1="81.2341" y1="90.6996" x2="72.8571" y2="79.0555" gradientUnits="userSpaceOnUse">
<stop offset="0.0036" stop-color="#F36F56"/>
<stop offset="1" stop-color="#FFC444"/>
</linearGradient>
<linearGradient id="paint21_linear_2930_24111" x1="58.1223" y1="109.271" x2="49.6025" y2="97.4288" gradientUnits="userSpaceOnUse">
<stop offset="0.0036" stop-color="#F36F56"/>
<stop offset="1" stop-color="#FFC444"/>
</linearGradient>
</defs>
</svg>
