<svg width="500" height="500" viewBox="0 0 500 500" fill="none" xmlns="http://www.w3.org/2000/svg">
<g clip-path="url(#clip0_2540_10056)">
<path d="M500 0H0V500H500V0Z" fill="white"/>
<path d="M500 0H0V500H500V0Z" fill="white"/>
<path d="M250.665 68.239C250.24 68.239 249.895 67.894 249.895 67.469V0.77C249.895 0.345 250.24 0 250.665 0C251.09 0 251.435 0.345 251.435 0.77V67.469C251.435 67.894 251.09 68.239 250.665 68.239Z" fill="#2D3962"/>
<path d="M289.883 94.9299C289.883 73.2699 272.324 55.7109 250.664 55.7109C229.004 55.7109 211.445 73.2699 211.445 94.9299H289.883Z" fill="#F4B04E"/>
<mask id="mask0_2540_10056" style="mask-type:luminance" maskUnits="userSpaceOnUse" x="211" y="55" width="79" height="40">
<path d="M289.883 94.9299C289.883 73.2699 272.324 55.7109 250.664 55.7109C229.004 55.7109 211.445 73.2699 211.445 94.9299H289.883Z" fill="white"/>
</mask>
<g mask="url(#mask0_2540_10056)">
<g opacity="0.47">
<path d="M279.021 58.4453C272.698 63.4073 263.844 64.9453 256.218 62.4063C254.259 61.7543 252.343 60.8453 250.283 60.7103C245.43 60.3923 241.305 64.3573 236.494 65.0653C230.963 65.8803 225.833 62.3283 221.371 58.9593C221.371 58.9593 236.568 44.4753 251.916 47.4703C267.264 50.4653 279.021 58.4453 279.021 58.4453Z" fill="white"/>
</g>
</g>
<mask id="mask1_2540_10056" style="mask-type:luminance" maskUnits="userSpaceOnUse" x="211" y="55" width="79" height="40">
<path d="M289.883 94.9299C289.883 73.2699 272.324 55.7109 250.664 55.7109C229.004 55.7109 211.445 73.2699 211.445 94.9299H289.883Z" fill="white"/>
</mask>
<g mask="url(#mask1_2540_10056)">
<g opacity="0.52">
<path d="M205.777 81.5025C214.53 77.5815 224.825 77.2405 233.819 80.5735C238.764 82.4065 243.521 85.3375 248.796 85.3235C253.512 85.3105 257.876 82.9245 262.507 82.0365C266.554 81.2605 270.82 81.6605 274.652 83.1755C276.303 83.8285 277.892 84.6875 279.636 85.0205C282.397 85.5485 285.216 84.7045 288.024 84.5815C292.517 84.3845 297.062 86.1365 300.259 89.3005L299.038 105.996L205.012 100.407L205.777 81.5025Z" fill="#D89741"/>
</g>
</g>
<g opacity="0.15">
<path d="M211.092 95.1953L92 446.941H415.289L289.53 95.1953H211.092Z" fill="#F4CE2C"/>
</g>
<path d="M178.217 354.059C181.432 354.071 184.175 351.723 184.644 348.542C186.263 337.55 185.68 298.286 176.531 293.125C159.42 283.473 147.135 290.493 136.605 283.034C126.075 275.575 129.871 240.723 112.035 236.527C82.1999 229.507 54.8209 239.028 54.8209 239.028L53.0039 283.927L75.6189 353.673L178.217 354.059Z" fill="#56B2A1"/>
<path d="M127.528 261.891C127.528 261.891 123.166 308.559 134.458 312.251C146.47 316.178 181.935 309.196 184.839 327.036C184.839 327.036 188.139 303.38 181.122 296.081C167.705 282.125 144.3 288.994 138.906 284.015C133.513 279.036 127.528 261.891 127.528 261.891Z" fill="#2D3962"/>
<path d="M180.099 445.553L122.128 413.802V361.048H161.537C166.184 361.048 169.952 357.281 169.952 352.633H76.0592C76.0592 357.281 79.8262 361.048 84.4742 361.048H117.301V414.188L60.0352 445.553L69.8852 445.345L117.301 430.464V445.454H122.127V430.243L170.248 445.345L180.099 445.553Z" fill="#2D3962"/>
<path d="M240.515 420.011L231.636 406.164L219.332 414.429L229.874 429.799L240.515 420.011Z" fill="#FFCEAB"/>
<path d="M237.002 413.664L224.512 422.045L228.653 428.19L240.228 419.293L237.002 413.664Z" fill="white"/>
<path d="M267.1 414.811C258.78 417.82 245.544 422.876 245.544 422.876L241.296 417.914L227.219 427.642C227.219 427.642 234.811 441.732 235.635 442.997C236.459 444.262 238.265 447.498 240.473 446.16C246.101 442.747 278.092 421.071 283.035 416.138C284.282 414.894 282.037 411.885 278.115 411.611C274.491 411.358 269.405 413.977 267.1 414.811Z" fill="#459687"/>
<path d="M246.788 432.027C246.056 432.027 245.427 431.612 244.995 430.835C244.315 429.61 244.06 423.481 244.175 422.112C244.194 421.882 244.346 421.683 244.564 421.605C244.78 421.528 245.024 421.582 245.187 421.747C246.393 422.973 249.043 427.336 248.888 429.93C248.818 431.108 248.177 431.845 247.085 432.006C246.984 432.02 246.885 432.027 246.788 432.027ZM245.337 423.876C245.395 426.179 245.688 429.642 246.03 430.259C246.392 430.91 246.757 430.856 246.912 430.833C247.297 430.776 247.66 430.619 247.706 429.858C247.8 428.28 246.462 425.584 245.337 423.876Z" fill="#2D3962"/>
<path d="M251.06 429.096C250.749 429.096 250.391 429.023 249.985 428.832C248.717 428.234 244.93 423.409 244.225 422.231C244.106 422.033 244.114 421.783 244.244 421.592C244.375 421.402 244.604 421.31 244.833 421.342C246.528 421.633 251.226 423.626 252.616 425.822C253.247 426.819 253.158 427.791 252.365 428.559C252.123 428.795 251.689 429.096 251.06 429.096ZM246.198 422.985C247.59 424.821 249.851 427.461 250.488 427.761C251.163 428.078 251.428 427.822 251.539 427.71C251.818 427.439 252.021 427.1 251.614 426.456C250.769 425.121 248.108 423.713 246.198 422.985Z" fill="#2D3962"/>
<path d="M237.323 445.451C237.135 445.451 236.95 445.362 236.835 445.195C236.649 444.927 236.717 444.557 236.986 444.372L281.989 413.324C282.26 413.136 282.627 413.207 282.812 413.475C282.998 413.744 282.93 414.113 282.661 414.298L237.659 445.346C237.556 445.417 237.439 445.451 237.323 445.451Z" fill="#2D3962"/>
<path d="M259 421.707C258.677 421.707 258.413 421.448 258.408 421.124C258.362 417.959 259.074 416.663 259.155 416.525C259.322 416.244 259.683 416.151 259.966 416.317C260.245 416.483 260.339 416.842 260.177 417.123C260.161 417.151 259.55 418.296 259.591 421.106C259.596 421.433 259.335 421.702 259.008 421.707C259.005 421.707 259.003 421.707 259 421.707Z" fill="#2D3962"/>
<path d="M255.532 423.091C255.209 423.091 254.945 422.832 254.94 422.508C254.894 419.341 255.606 418.046 255.688 417.909C255.854 417.628 256.215 417.532 256.499 417.702C256.778 417.867 256.872 418.226 256.71 418.508C256.692 418.539 256.083 419.684 256.124 422.491C256.129 422.818 255.868 423.087 255.541 423.091C255.538 423.091 255.535 423.091 255.532 423.091Z" fill="#2D3962"/>
<path d="M252.313 424.191C251.99 424.191 251.726 423.932 251.721 423.608C251.674 420.443 252.386 419.147 252.467 419.009C252.634 418.728 252.995 418.635 253.278 418.801C253.557 418.967 253.651 419.326 253.489 419.607C253.476 419.631 252.862 420.775 252.904 423.59C252.909 423.917 252.648 424.186 252.321 424.191C252.319 424.191 252.316 424.191 252.313 424.191Z" fill="#2D3962"/>
<path d="M138.039 290.837C157.644 308.916 179.013 320.442 197.481 342.874C215.949 365.306 223.912 385.512 236.643 407.889C231.142 411.978 220.389 420.806 216.215 419.699C213.561 418.995 183.184 381.391 164.595 362.033C154.656 351.684 126.402 348.286 110.584 340.57C97.5939 334.233 90.4519 322.574 95.4679 285.922" fill="#AACBF2"/>
<path d="M240.941 307.467L232.414 304.875L209.875 446.391L216.172 446.628L240.941 307.467Z" fill="#2D3962"/>
<path d="M245.25 305.914H227.32V313.086H245.25V305.914Z" fill="#468E80"/>
<path d="M389.172 307.467L397.699 304.875L420.238 446.391L413.941 446.628L389.172 307.467Z" fill="#2D3962"/>
<path d="M384.863 313.086H402.793V305.914H384.863V313.086Z" fill="#468E80"/>
<path d="M405.281 299.688H224.281V309.257H405.281V299.688Z" fill="#56B2A1"/>
<path d="M241.099 285C241.099 285 245.301 279.483 243.591 268.219C242.691 262.295 239.568 258.172 236.796 254.164C233.321 249.137 232.287 246.273 232.135 238.76C232.07 235.552 231.906 232.228 230.886 229.417C229.866 226.607 227.759 224.461 225.692 225.12C223.82 225.716 222.488 228.457 222.13 231.313C221.771 234.169 222.209 237.113 222.785 239.885C224.019 245.828 225.939 251.546 228.68 256.215C231.159 260.438 235.375 263.468 237.094 268.553C239.137 271.585 241.099 285 241.099 285Z" fill="white"/>
<path d="M245.966 280C245.966 280 244.565 278.161 245.135 274.406C245.435 272.432 246.476 271.057 247.4 269.721C248.558 268.046 248.903 267.091 248.954 264.587C248.975 263.517 249.03 262.409 249.37 261.472C249.71 260.536 250.412 259.82 251.101 260.04C251.726 260.239 252.169 261.152 252.289 262.104C252.408 263.056 252.262 264.038 252.071 264.962C251.659 266.943 251.019 268.849 250.105 270.405C249.279 271.813 247.874 272.823 247.301 274.518C246.62 275.528 245.966 280 245.966 280Z" fill="white"/>
<path d="M233.576 273.111C234.451 272.754 235.515 273.321 236.257 273.909C236.998 274.496 237.303 275.733 236.616 276.384C236.095 276.878 235.25 276.829 234.592 276.543C233.83 276.213 233.164 275.556 233.033 274.736C232.902 273.916 233.179 273.273 233.576 273.111Z" fill="white"/>
<path d="M245.507 256.165C246.403 255.696 248.153 256.258 247.989 257.467C247.926 257.933 247.558 258.33 247.111 258.476C246.663 258.622 246.157 258.532 245.758 258.284C245.391 258.056 245.101 257.687 245.024 257.262C244.924 256.712 245.146 256.354 245.507 256.165Z" fill="white"/>
<path d="M252.534 283.113C252.522 283.113 252.509 283.113 252.496 283.113C252.154 283.116 251.821 283.155 251.497 283.222L251.941 279.57L230.027 279.621L232.267 299.545C235.346 300.954 249.453 300.03 249.453 300.03L250.319 292.907C251.004 293.235 251.751 293.426 252.532 293.426C252.545 293.426 252.559 293.426 252.572 293.426C253.95 293.416 255.241 292.871 256.208 291.89C257.174 290.909 257.701 289.609 257.691 288.232C257.671 285.401 255.361 283.113 252.534 283.113ZM254.635 290.339C254.083 290.9 253.344 291.212 252.556 291.218C252.548 291.218 252.541 291.218 252.532 291.218C251.818 291.218 251.149 290.954 250.613 290.49L251.201 285.656C251.597 285.453 252.038 285.326 252.512 285.323C252.52 285.323 252.527 285.323 252.535 285.323C254.15 285.323 255.471 286.631 255.483 288.249C255.489 289.035 255.188 289.778 254.635 290.339Z" fill="#F4B04E"/>
<mask id="mask2_2540_10056" style="mask-type:luminance" maskUnits="userSpaceOnUse" x="230" y="279" width="28" height="22">
<path d="M252.534 283.113C252.522 283.113 252.509 283.113 252.496 283.113C252.154 283.116 251.821 283.155 251.497 283.222L251.941 279.57L230.027 279.621L232.267 299.545C235.346 300.954 249.453 300.03 249.453 300.03L250.319 292.907C251.004 293.235 251.751 293.426 252.532 293.426C252.545 293.426 252.559 293.426 252.572 293.426C253.95 293.416 255.241 292.871 256.208 291.89C257.174 290.909 257.701 289.609 257.691 288.232C257.671 285.401 255.361 283.113 252.534 283.113ZM254.635 290.339C254.083 290.9 253.344 291.212 252.556 291.218C252.548 291.218 252.541 291.218 252.532 291.218C251.818 291.218 251.149 290.954 250.613 290.49L251.201 285.656C251.597 285.453 252.038 285.326 252.512 285.323C252.52 285.323 252.527 285.323 252.535 285.323C254.15 285.323 255.471 286.631 255.483 288.249C255.489 289.035 255.188 289.778 254.635 290.339Z" fill="white"/>
</mask>
<g mask="url(#mask2_2540_10056)">
<g opacity="0.52">
<path d="M255.663 290.384C253.336 289.421 250.675 290.049 248.299 290.885C245.924 291.721 243.518 292.771 241.005 292.618C239.487 292.526 238.013 291.994 236.493 291.995C233.598 291.996 231.088 293.884 228.82 295.682C228.617 295.843 229.028 296.135 228.77 296.125L229.225 303.496L254.904 300.628L255.663 290.384Z" fill="#D89741"/>
</g>
</g>
<mask id="mask3_2540_10056" style="mask-type:luminance" maskUnits="userSpaceOnUse" x="230" y="279" width="28" height="22">
<path d="M252.534 283.113C252.522 283.113 252.509 283.113 252.496 283.113C252.154 283.116 251.821 283.155 251.497 283.222L251.941 279.57L230.027 279.621L232.267 299.545C235.346 300.954 249.453 300.03 249.453 300.03L250.319 292.907C251.004 293.235 251.751 293.426 252.532 293.426C252.545 293.426 252.559 293.426 252.572 293.426C253.95 293.416 255.241 292.871 256.208 291.89C257.174 290.909 257.701 289.609 257.691 288.232C257.671 285.401 255.361 283.113 252.534 283.113ZM254.635 290.339C254.083 290.9 253.344 291.212 252.556 291.218C252.548 291.218 252.541 291.218 252.532 291.218C251.818 291.218 251.149 290.954 250.613 290.49L251.201 285.656C251.597 285.453 252.038 285.326 252.512 285.323C252.52 285.323 252.527 285.323 252.535 285.323C254.15 285.323 255.471 286.631 255.483 288.249C255.489 289.035 255.188 289.778 254.635 290.339Z" fill="white"/>
</mask>
<g mask="url(#mask3_2540_10056)">
<g opacity="0.47">
<path d="M226.676 283.324C228.59 283.753 230.319 284.753 232.137 285.491C233.955 286.228 236.018 286.702 237.863 286.036C239.791 285.341 241.234 283.489 243.261 283.186C244.112 283.059 244.975 283.225 245.832 283.296C248.857 283.547 251.967 282.559 254.292 280.607L253.403 275.156L227.323 275.808L226.676 283.324Z" fill="white"/>
</g>
</g>
<path d="M345.324 279.461L350.863 299.636H299.039L318.028 294.494L312.885 279.856L345.324 279.461Z" fill="#2D3962"/>
<path d="M277.687 282.317H386.748C393.23 282.317 398.744 276.705 399.738 269.096L407.232 211.728C408.468 202.263 402.306 193.719 394.242 193.719H285.181C278.699 193.719 273.185 199.331 272.191 206.94L264.697 264.308C263.461 273.773 269.624 282.317 277.687 282.317Z" fill="#56B2A1"/>
<path d="M264.697 264.305C263.461 273.77 269.623 282.314 277.687 282.314H386.748C393.23 282.314 398.744 276.702 399.738 269.093L400.331 264.892L264.697 264.305Z" fill="#2D3962"/>
<path d="M303.138 253.553H359.366C362.708 253.553 365.551 250.66 366.063 246.737L369.927 217.16C370.564 212.28 367.387 207.875 363.23 207.875H307.002C303.66 207.875 300.817 210.768 300.305 214.691L296.441 244.268C295.803 249.148 298.981 253.553 303.138 253.553Z" fill="white"/>
<path d="M314.988 244.545H349.039C351.063 244.545 352.784 242.793 353.095 240.417L355.435 222.506C355.821 219.551 353.897 216.883 351.379 216.883H317.328C315.304 216.883 313.583 218.635 313.272 221.011L310.932 238.922C310.547 241.877 312.471 244.545 314.988 244.545Z" fill="#E8E8E8"/>
<path d="M355.397 222.016C355.783 219.061 353.896 216.883 351.379 216.883H317.328C315.304 216.883 313.659 218.333 313.113 221.88L355.397 222.016Z" fill="#56B2A1"/>
<mask id="mask4_2540_10056" style="mask-type:luminance" maskUnits="userSpaceOnUse" x="310" y="216" width="46" height="29">
<path d="M314.988 244.545H349.039C351.063 244.545 352.784 242.793 353.095 240.417L355.435 222.506C355.821 219.551 353.897 216.883 351.379 216.883H317.328C315.304 216.883 313.583 218.635 313.272 221.011L310.932 238.922C310.547 241.877 312.471 244.545 314.988 244.545Z" fill="white"/>
</mask>
<g mask="url(#mask4_2540_10056)">
<path d="M331.207 229.491C333.325 227.635 336.546 227.847 338.402 229.964C340.258 232.082 340.046 235.303 337.929 237.159C335.811 239.015 332.59 238.803 330.734 236.686C328.877 234.568 329.089 231.347 331.207 229.491Z" fill="#F4B04E"/>
</g>
<mask id="mask5_2540_10056" style="mask-type:luminance" maskUnits="userSpaceOnUse" x="310" y="216" width="46" height="29">
<path d="M314.988 244.545H349.039C351.063 244.545 352.784 242.793 353.095 240.417L355.435 222.506C355.821 219.551 353.897 216.883 351.379 216.883H317.328C315.304 216.883 313.583 218.635 313.272 221.011L310.932 238.922C310.547 241.877 312.471 244.545 314.988 244.545Z" fill="white"/>
</mask>
<g mask="url(#mask5_2540_10056)">
<path d="M350.971 245.843C349.898 240.739 344.707 228.695 343.736 227.567C340.24 230.979 337.851 233.438 334.525 236.84C332.75 234.725 326.124 224.753 325.918 224.789C325.659 224.834 313.048 244.382 312.625 245.636L350.971 245.843Z" fill="#2D3962"/>
</g>
<path d="M306.866 210.99C307.258 210.99 307.576 210.672 307.576 210.28C307.576 209.888 307.258 209.57 306.866 209.57C306.474 209.57 306.156 209.888 306.156 210.28C306.156 210.672 306.474 210.99 306.866 210.99Z" fill="#F4B04E"/>
<path d="M310.213 210.28C310.213 210.672 309.895 210.99 309.503 210.99C309.111 210.99 308.793 210.672 308.793 210.28C308.793 209.888 309.111 209.57 309.503 209.57C309.895 209.57 310.213 209.888 310.213 210.28Z" fill="#56B2A1"/>
<path d="M317.885 218.702C317.885 219.094 317.567 219.412 317.175 219.412C316.783 219.412 316.465 219.094 316.465 218.702C316.465 218.31 316.783 217.992 317.175 217.992C317.568 217.993 317.885 218.31 317.885 218.702Z" fill="#F4B04E"/>
<path d="M320.522 218.702C320.522 219.094 320.204 219.412 319.812 219.412C319.42 219.412 319.102 219.094 319.102 218.702C319.102 218.31 319.42 217.992 319.812 217.992C320.204 217.992 320.522 218.31 320.522 218.702Z" fill="white"/>
<path d="M335.37 275.15H322.458C321.629 275.15 320.957 274.478 320.957 273.649C320.957 272.82 321.629 272.148 322.458 272.148H335.37C336.199 272.148 336.871 272.82 336.871 273.649C336.872 274.477 336.199 275.15 335.37 275.15Z" fill="#56B2A1"/>
<path d="M55.3398 238.719C55.3398 238.719 53.0858 279.084 69.7688 283.033C86.4518 286.982 110.8 282.594 117.563 297.95C124.326 313.306 123.425 354.11 123.425 354.11L76.5318 353.671C76.5318 353.671 44.4258 355.51 44.0678 319.449C43.7958 292.191 37.3038 249.688 55.3398 238.719Z" fill="#2D3962"/>
<path d="M330.525 80.7963C330.187 80.7963 329.914 80.5223 329.914 80.1843V73.8073C329.914 73.4693 330.187 73.1953 330.525 73.1953C330.863 73.1953 331.136 73.4693 331.136 73.8073V80.1843C331.136 80.5223 330.863 80.7963 330.525 80.7963Z" fill="#2D3962"/>
<path d="M333.715 77.6068H327.338C327 77.6068 326.727 77.3328 326.727 76.9948C326.727 76.6568 327 76.3828 327.338 76.3828H333.715C334.053 76.3828 334.326 76.6568 334.326 76.9948C334.326 77.3328 334.052 77.6068 333.715 77.6068Z" fill="#2D3962"/>
<path d="M150.989 117.12C149.726 117.12 148.699 116.092 148.699 114.829C148.699 113.566 149.727 112.539 150.989 112.539C152.251 112.539 153.28 113.567 153.28 114.829C153.28 116.092 152.252 117.12 150.989 117.12ZM150.989 113.762C150.401 113.762 149.922 114.241 149.922 114.829C149.922 115.417 150.401 115.896 150.989 115.896C151.577 115.896 152.056 115.417 152.056 114.829C152.056 114.241 151.578 113.762 150.989 113.762Z" fill="#2D3962"/>
<path d="M245.241 123.992C244.903 123.992 244.629 123.718 244.629 123.38V117.003C244.629 116.665 244.903 116.391 245.241 116.391C245.579 116.391 245.853 116.665 245.853 117.003V123.38C245.853 123.718 245.579 123.992 245.241 123.992Z" fill="#2D3962"/>
<path d="M248.43 120.802H242.053C241.715 120.802 241.441 120.528 241.441 120.19C241.441 119.852 241.715 119.578 242.053 119.578H248.43C248.768 119.578 249.042 119.852 249.042 120.19C249.042 120.528 248.768 120.802 248.43 120.802Z" fill="#2D3962"/>
<path d="M258.399 176.752C257.136 176.752 256.109 175.724 256.109 174.462C256.109 173.2 257.136 172.172 258.399 172.172C259.662 172.172 260.689 173.199 260.689 174.462C260.689 175.725 259.662 176.752 258.399 176.752ZM258.399 173.395C257.81 173.395 257.332 173.873 257.332 174.461C257.332 175.049 257.81 175.528 258.399 175.528C258.988 175.528 259.466 175.049 259.466 174.461C259.467 173.873 258.988 173.395 258.399 173.395Z" fill="#2D3962"/>
<path d="M207.026 184.359C206.688 184.359 206.414 184.085 206.414 183.747V177.37C206.414 177.032 206.688 176.758 207.026 176.758C207.364 176.758 207.638 177.032 207.638 177.37V183.747C207.638 184.085 207.364 184.359 207.026 184.359Z" fill="#2D3962"/>
<path d="M210.216 181.169H203.839C203.501 181.169 203.227 180.895 203.227 180.557C203.227 180.219 203.501 179.945 203.839 179.945H210.216C210.554 179.945 210.828 180.219 210.828 180.557C210.828 180.895 210.554 181.169 210.216 181.169Z" fill="#2D3962"/>
<path d="M194.166 254.424C192.903 254.424 191.875 253.397 191.875 252.134C191.875 250.871 192.903 249.844 194.166 249.844C195.429 249.844 196.456 250.872 196.456 252.134C196.456 253.396 195.428 254.424 194.166 254.424ZM194.166 251.067C193.578 251.067 193.099 251.546 193.099 252.134C193.099 252.723 193.578 253.201 194.166 253.201C194.754 253.201 195.232 252.722 195.232 252.134C195.232 251.545 194.754 251.067 194.166 251.067Z" fill="#2D3962"/>
<path d="M175.565 72.2494C175.227 72.2494 174.953 71.9754 174.953 71.6374V65.2604C174.953 64.9224 175.227 64.6484 175.565 64.6484C175.903 64.6484 176.177 64.9224 176.177 65.2604V71.6374C176.177 71.9754 175.903 72.2494 175.565 72.2494Z" fill="#2D3962"/>
<path d="M178.755 69.0599H172.378C172.04 69.0599 171.766 68.7859 171.766 68.4479C171.766 68.1099 172.04 67.8359 172.378 67.8359H178.755C179.093 67.8359 179.367 68.1099 179.367 68.4479C179.367 68.7859 179.092 69.0599 178.755 69.0599Z" fill="#2D3962"/>
<path d="M405.173 123.034C403.91 123.034 402.883 122.006 402.883 120.743C402.883 119.48 403.91 118.453 405.173 118.453C406.436 118.453 407.462 119.48 407.462 120.743C407.463 122.006 406.436 123.034 405.173 123.034ZM405.173 119.677C404.584 119.677 404.106 120.155 404.106 120.743C404.106 121.331 404.585 121.81 405.173 121.81C405.761 121.81 406.239 121.331 406.239 120.743C406.24 120.155 405.761 119.677 405.173 119.677Z" fill="#2D3962"/>
<path d="M213.399 408.168L214.417 391.751L199.607 391.148L199.031 409.779L213.399 408.168Z" fill="#FFCEAB"/>
<path d="M214.318 400.971L199.29 400.352L199 407.756L213.594 407.418L214.318 400.971Z" fill="white"/>
<path d="M237.923 419.683C229.433 417.194 215.767 413.453 215.767 413.453L215.272 406.939L198.168 406.469C198.168 406.469 195.967 422.322 195.884 423.83C195.801 425.337 195.346 429.015 197.918 429.24C204.475 429.813 243.092 431.228 249.995 430.169C251.736 429.902 251.703 426.148 248.7 423.61C245.926 421.264 240.276 420.372 237.923 419.683Z" fill="#56B2A1"/>
<path d="M212.635 422.004C212.302 422.004 211.957 421.913 211.609 421.73C210.843 421.327 210.49 420.552 210.615 419.551C210.79 418.161 214.205 413.066 215.107 412.03C215.259 411.856 215.501 411.789 215.72 411.85C215.942 411.915 216.106 412.104 216.139 412.332C216.388 414.034 215.948 419.119 214.29 421.121C213.806 421.706 213.238 422.004 212.635 422.004ZM215.001 414.141C213.687 416.032 211.878 418.999 211.79 419.7C211.697 420.438 212.023 420.61 212.162 420.683C212.509 420.865 212.893 420.954 213.379 420.367C214.387 419.149 214.901 416.183 215.001 414.141Z" fill="#2D3962"/>
<path d="M217.629 422.084C216.889 422.084 216.258 421.663 215.829 420.876C215.16 419.646 214.955 413.515 215.082 412.147C215.103 411.917 215.257 411.72 215.475 411.643C215.691 411.567 215.936 411.623 216.097 411.79C217.293 413.026 219.906 417.411 219.729 420.004C219.648 421.181 219.002 421.912 217.908 422.065C217.814 422.078 217.721 422.084 217.629 422.084ZM216.229 413.922C216.268 416.225 216.532 419.691 216.869 420.31C217.225 420.964 217.59 420.913 217.746 420.892C218.131 420.838 218.495 420.684 218.547 419.924C218.655 418.346 217.34 415.639 216.229 413.922Z" fill="#2D3962"/>
<path d="M250.795 428.46C250.789 428.46 250.783 428.46 250.778 428.46L196.126 426.917C195.799 426.908 195.541 426.636 195.551 426.309C195.56 425.982 195.873 425.73 196.159 425.734L250.811 427.277C251.138 427.286 251.395 427.558 251.387 427.885C251.377 428.206 251.114 428.46 250.795 428.46Z" fill="#2D3962"/>
<path d="M227.662 420.572C227.543 420.572 227.424 420.537 227.32 420.463C227.053 420.275 226.991 419.904 227.18 419.638C229.013 417.056 230.354 416.432 230.501 416.368C230.802 416.239 231.15 416.381 231.278 416.681C231.406 416.98 231.269 417.326 230.972 417.455C230.936 417.472 229.768 418.038 228.146 420.323C228.03 420.485 227.848 420.572 227.662 420.572Z" fill="#2D3962"/>
<path d="M224.044 419.641C223.925 419.641 223.806 419.606 223.702 419.532C223.435 419.343 223.373 418.973 223.562 418.707C225.395 416.125 226.736 415.501 226.883 415.439C227.184 415.309 227.531 415.452 227.659 415.752C227.786 416.051 227.649 416.397 227.353 416.526C227.32 416.542 226.152 417.105 224.527 419.393C224.412 419.554 224.229 419.641 224.044 419.641Z" fill="#2D3962"/>
<path d="M220.798 418.627C220.679 418.627 220.56 418.592 220.456 418.518C220.189 418.329 220.127 417.959 220.316 417.693C222.149 415.111 223.49 414.487 223.637 414.423C223.937 414.293 224.285 414.436 224.414 414.736C224.541 415.035 224.405 415.381 224.108 415.51C224.073 415.527 222.905 416.092 221.282 418.378C221.166 418.54 220.983 418.627 220.798 418.627Z" fill="#2D3962"/>
<path d="M138.559 291.898C140.217 292.965 156.533 294.593 179.572 299.039C201.563 303.283 214.182 304.49 223.94 314.857C230.113 321.416 224.815 375.137 218.256 396.356C207.387 395.028 206.442 395.409 195.493 395.584C195.623 376.754 197.007 340.554 195.004 338.005C192.975 335.423 193.743 336.768 190.679 335.586L138.559 291.898Z" fill="#9BBBEA"/>
<path d="M196.232 354.681C195.948 354.681 195.717 354.453 195.715 354.168L195.516 331.85C195.514 331.564 195.743 331.33 196.029 331.328H196.033C196.317 331.328 196.548 331.556 196.551 331.841L196.75 354.159C196.753 354.445 196.523 354.679 196.237 354.681C196.235 354.681 196.234 354.681 196.232 354.681Z" fill="#2D3962"/>
<path d="M424.13 395.861C419.386 397.303 413.95 397.056 409.283 395.294C390.749 388.297 389.23 367.9 392.325 352.311C394.4 341.859 398.058 331.639 398.884 321.043C400.15 304.808 394.987 287.176 403.741 273.013C405.583 270.032 408.185 267.222 411.73 266.132C416.947 264.528 422.872 267.233 426.016 271.37C429.161 275.507 430.041 280.733 430.248 285.771C430.713 297.086 428.225 308.402 429.081 319.698C430.178 334.179 437.735 347.808 438.639 362.302C439.248 372.082 438.907 385.509 430.304 392.614C428.511 394.096 426.4 395.172 424.13 395.861Z" fill="#97DDCF"/>
<path d="M414.926 403.017C414.543 403.017 414.231 402.708 414.227 402.325L413.34 305.089C413.337 304.702 413.647 304.387 414.032 304.383C414.035 304.383 414.037 304.383 414.039 304.383C414.422 304.383 414.734 304.692 414.738 305.075L415.625 402.311C415.628 402.698 415.318 403.013 414.933 403.017C414.93 403.017 414.928 403.017 414.926 403.017Z" fill="#2D3962"/>
<path d="M430.235 399.032C426.076 399.555 421.649 398.731 418.124 396.86C404.122 389.426 406.496 373.936 411.812 362.597C415.375 354.995 420.2 347.753 422.761 339.897C426.686 327.859 425.572 314.016 435.289 304.413C437.334 302.392 439.972 300.589 443.082 300.188C447.658 299.597 452.05 302.326 453.902 305.801C455.754 309.277 455.55 313.304 454.825 317.109C453.197 325.658 449.141 333.86 447.839 342.441C446.168 353.44 449.963 364.56 448.131 375.547C446.895 382.96 444.229 393 435.891 397.321C434.152 398.222 432.224 398.782 430.235 399.032Z" fill="#56B2A1"/>
<path d="M423.002 405.87C422.981 405.871 422.962 405.872 422.941 405.871C422.554 405.865 422.247 405.548 422.253 405.161C422.616 382.746 439.419 319.968 439.589 319.337C439.688 318.964 440.072 318.744 440.445 318.842C440.818 318.943 441.041 319.326 440.94 319.699C440.771 320.329 424.012 382.94 423.652 405.183C423.645 405.548 423.359 405.845 423.002 405.87Z" fill="#2D3962"/>
<path d="M404.16 404.865L394.195 446.642H440.166L431.213 405.16C430.934 403.866 429.796 402.937 428.472 402.923L406.949 402.688C405.625 402.673 404.467 403.577 404.16 404.865Z" fill="#F4B04E"/>
<mask id="mask6_2540_10056" style="mask-type:luminance" maskUnits="userSpaceOnUse" x="394" y="402" width="47" height="45">
<path d="M404.16 404.865L394.195 446.642H440.166L431.213 405.16C430.934 403.866 429.796 402.937 428.472 402.923L406.949 402.688C405.625 402.673 404.467 403.577 404.16 404.865Z" fill="white"/>
</mask>
<g mask="url(#mask6_2540_10056)">
<g opacity="0.47">
<path d="M437.61 402.03C437.8 403.58 436.767 404.986 435.79 406.204C434.336 408.019 432.813 409.889 430.729 410.922C429.467 411.547 428.067 411.828 426.738 412.297C422.813 413.682 419.558 416.688 415.521 417.701C412.309 418.506 408.782 417.995 405.77 419.37C401.86 421.155 399.754 425.693 395.832 427.451L398.16 399.297L437.61 402.03Z" fill="white"/>
</g>
</g>
<mask id="mask7_2540_10056" style="mask-type:luminance" maskUnits="userSpaceOnUse" x="394" y="402" width="47" height="45">
<path d="M404.16 404.865L394.195 446.642H440.166L431.213 405.16C430.934 403.866 429.796 402.937 428.472 402.923L406.949 402.688C405.625 402.673 404.467 403.577 404.16 404.865Z" fill="white"/>
</mask>
<g mask="url(#mask7_2540_10056)">
<g opacity="0.52">
<path d="M391.762 446.272C394.56 443.755 397.399 441.21 400.745 439.487C404.091 437.764 408.058 436.927 411.659 438.021C412.562 438.295 413.439 438.688 414.378 438.785C417.196 439.077 419.492 436.749 421.73 435.012C427.764 430.329 435.754 429.239 443.335 428.312L443.832 449.81L392.056 449.599L391.762 446.272Z" fill="#D89741"/>
</g>
</g>
<path d="M336.131 431.719C336.131 431.719 326.005 409.441 355.033 398.977L360.405 372.177C360.63 371.055 361.865 370.998 362.712 371.767C364.472 373.363 369.008 379.111 369.008 379.111L378.185 378.81C378.185 378.81 382.846 372.996 384.867 371.526C385.394 371.143 387.347 370.791 387.671 373.003C389.245 383.77 393.938 442.434 391.488 444.884C388.788 447.584 334.105 444.884 334.105 444.884L336.131 431.719Z" fill="#FFD194"/>
<path d="M337.043 426.758C337.043 426.758 325.58 436.947 331.184 444.589C333.394 447.603 344.648 446.59 357.124 446.579C376.284 446.561 398.714 446.301 398.714 446.301C398.714 446.301 402.633 439.427 398.047 437.134C393.462 434.841 338.825 435.419 338.825 435.419" fill="#FFD194"/>
<path d="M398.55 446.816C398.382 446.816 398.216 446.734 398.116 446.582C397.96 446.343 398.027 446.022 398.266 445.865C399.271 445.209 400.321 443.254 400.282 441.392C400.26 440.272 399.836 438.701 397.95 437.576C395.656 436.207 388.561 436.868 380.35 437.634C376.502 437.992 372.142 438.399 367.745 438.649C353.841 439.441 340.13 437.995 339.993 437.98C339.709 437.95 339.504 437.694 339.534 437.41C339.564 437.127 339.806 436.916 340.104 436.951C340.24 436.966 353.872 438.402 367.686 437.616C372.064 437.366 376.415 436.961 380.252 436.603C388.992 435.79 395.893 435.145 398.48 436.688C400.772 438.055 401.288 439.99 401.316 441.372C401.364 443.68 400.09 445.91 398.832 446.733C398.747 446.788 398.648 446.816 398.55 446.816Z" fill="#2D3962"/>
<path d="M331.185 445.108C331.026 445.108 330.869 445.035 330.768 444.896C328.341 441.587 328.62 437.314 331.573 432.537C333.754 429.011 336.582 426.478 336.701 426.373C336.915 426.183 337.241 426.202 337.431 426.416C337.621 426.629 337.602 426.957 337.388 427.146C337.278 427.245 326.343 437.112 331.602 444.285C331.772 444.515 331.722 444.839 331.491 445.008C331.399 445.076 331.292 445.108 331.185 445.108Z" fill="#2D3962"/>
<path d="M373 387.5C373 387.776 372.328 388 371.5 388C370.672 388 370 387.776 370 387.5C370 387.224 370.672 387 371.5 387C372.328 387 373 387.224 373 387.5Z" fill="#2D3962"/>
<path d="M378.277 387.969C379.106 387.969 379.777 387.745 379.777 387.469C379.777 387.193 379.106 386.969 378.277 386.969C377.449 386.969 376.777 387.193 376.777 387.469C376.777 387.745 377.449 387.969 378.277 387.969Z" fill="#2D3962"/>
<path d="M367.715 438.65C367.468 438.65 367.249 438.472 367.206 438.22L363.957 419.327C363.908 419.045 364.098 418.777 364.379 418.729C364.664 418.672 364.928 418.869 364.977 419.151L368.226 438.043C368.275 438.325 368.085 438.593 367.804 438.641C367.774 438.648 367.745 438.65 367.715 438.65Z" fill="#2D3962"/>
<path d="M381.593 437.243C381.564 437.243 381.534 437.241 381.504 437.235C381.223 437.187 381.033 436.92 381.082 436.637L384.33 417.744C384.378 417.462 384.641 417.267 384.928 417.322C385.209 417.37 385.399 417.638 385.35 417.92L382.102 436.813C382.059 437.065 381.84 437.243 381.593 437.243Z" fill="#2D3962"/>
<path d="M374.943 437.282C374.666 437.282 374.436 437.063 374.425 436.785L373.821 421.272C373.81 420.986 374.033 420.746 374.318 420.734C374.6 420.735 374.845 420.946 374.856 421.231L375.461 436.744C375.472 437.03 375.249 437.27 374.964 437.282C374.957 437.282 374.95 437.282 374.943 437.282Z" fill="#2D3962"/>
<path d="M374.545 421.631C373.088 421.631 371.684 421.391 371.426 421.345C371.145 421.294 370.958 421.025 371.008 420.743C371.059 420.461 371.33 420.279 371.61 420.325C373.171 420.607 375.995 420.808 376.918 420.157C377.151 419.993 377.476 420.048 377.64 420.281C377.805 420.515 377.749 420.838 377.516 421.003C376.827 421.489 375.67 421.631 374.545 421.631Z" fill="#2D3962"/>
<path d="M375.064 391.856C374.93 391.856 374.797 391.804 374.698 391.705L373.101 390.108C372.964 389.97 372.915 389.768 372.974 389.583C373.034 389.398 373.191 389.263 373.382 389.23C374.256 389.085 376.364 388.784 377.044 389.126C377.274 389.241 377.419 389.457 377.43 389.704C377.44 389.914 377.463 390.474 375.334 391.779C375.251 391.831 375.157 391.856 375.064 391.856ZM374.566 390.109L375.136 390.678C375.49 390.444 375.822 390.199 376.059 389.999C375.672 390 375.13 390.042 374.566 390.109Z" fill="#2D3962"/>
<path d="M367.752 379.937C367.483 379.937 367.256 379.729 367.236 379.456C367.216 379.171 367.43 378.924 367.716 378.903C368.112 378.876 377.446 378.216 379.966 378.448C380.251 378.474 380.46 378.726 380.435 379.011C380.409 379.296 380.156 379.497 379.872 379.48C377.434 379.258 367.885 379.93 367.788 379.937C367.777 379.937 367.764 379.937 367.752 379.937Z" fill="#2D3962"/>
<g opacity="0.47">
<path d="M360.798 371.249C358.961 371.984 358.961 379.517 358.961 379.517C358.961 379.517 364.945 379.889 365.208 378.047C365.292 377.457 364.422 376.176 363.646 374.648C362.732 372.847 361.816 370.842 360.798 371.249Z" fill="white"/>
</g>
<g opacity="0.47">
<path d="M386.529 371.249C388.366 371.984 388.366 379.517 388.366 379.517C388.366 379.517 382.382 379.889 382.119 378.047C382.035 377.457 382.905 376.176 383.681 374.648C384.595 372.847 385.511 370.842 386.529 371.249Z" fill="white"/>
</g>
<path d="M353.983 402.848C353.825 402.848 353.672 402.775 353.575 402.651C353.369 402.391 353.314 402.321 355.712 392.166C355.778 391.888 356.055 391.712 356.335 391.781C356.613 391.846 356.785 392.126 356.72 392.404C355.896 395.896 354.585 401.572 354.499 402.281C354.5 402.298 354.501 402.314 354.501 402.331C354.501 402.617 354.269 402.848 353.983 402.848Z" fill="#2D3962"/>
<path d="M350.089 401.156C350.448 402.6 350.492 404.515 350.478 406.003C350.464 407.491 350.033 409.032 348.999 410.102C348.272 410.855 347.254 411.382 346.834 412.341C346.619 412.833 346.591 413.382 346.497 413.91C346.087 416.228 344.268 418.237 342.002 418.876C339.736 419.514 336.744 418.391 335.184 416.628C335.184 416.628 337.313 409.767 341.986 405.679C345.927 402.231 350.089 401.156 350.089 401.156Z" fill="#D89741"/>
<path d="M350.391 419.389C350.456 419.389 350.442 419.289 350.378 419.289C350.313 419.289 350.327 419.389 350.391 419.389Z" fill="#56B2A1"/>
<path d="M351.704 415.54C351.544 415.404 351.37 415.305 351.185 415.255C349.837 414.895 348.293 415.458 347.744 416.804C347.42 417.598 347.533 418.562 348.052 419.245C348.409 419.715 348.932 420.04 349.487 420.238C350.578 420.626 352.004 420.43 352.579 419.424C353.118 418.482 352.656 416.35 351.704 415.54Z" fill="#D89741"/>
<path d="M464.033 447.461H35.9688C35.4168 447.461 34.9688 447.014 34.9688 446.461C34.9688 445.908 35.4168 445.461 35.9688 445.461H464.033C464.586 445.461 465.033 445.908 465.033 446.461C465.033 447.014 464.586 447.461 464.033 447.461Z" fill="#2D3962"/>
<path d="M410.77 153.656H366.518C364.903 153.656 363.594 154.965 363.594 156.58V180.342C363.594 181.957 364.903 183.266 366.518 183.266H369.407V188.082C369.407 188.767 370.252 189.09 370.709 188.581L375.479 183.266H410.77C412.385 183.266 413.694 181.957 413.694 180.342V156.58C413.694 154.965 412.385 153.656 410.77 153.656Z" fill="#F4B04E"/>
<path d="M406.036 161.519H371.061C370.717 161.519 370.438 161.24 370.438 160.896C370.438 160.552 370.717 160.273 371.061 160.273H406.036C406.381 160.273 406.66 160.552 406.66 160.896C406.66 161.24 406.381 161.519 406.036 161.519Z" fill="white"/>
<path d="M406.036 169.238H371.061C370.717 169.238 370.438 168.959 370.438 168.615C370.438 168.271 370.717 167.992 371.061 167.992H406.036C406.381 167.992 406.66 168.271 406.66 168.615C406.66 168.96 406.381 169.238 406.036 169.238Z" fill="white"/>
<path d="M398.693 176.91H371.061C370.717 176.91 370.438 176.631 370.438 176.287C370.438 175.943 370.717 175.664 371.061 175.664H398.693C399.037 175.664 399.316 175.943 399.316 176.287C399.316 176.631 399.037 176.91 398.693 176.91Z" fill="white"/>
<path d="M368.275 136.885C368.275 138.038 367.34 138.973 366.187 138.973H337.791C336.638 138.973 335.703 138.038 335.703 136.885V119.346C335.703 118.193 336.638 117.258 337.791 117.258H366.187C367.34 117.258 368.275 118.193 368.275 119.346V136.885Z" fill="#FFD194"/>
<mask id="mask8_2540_10056" style="mask-type:luminance" maskUnits="userSpaceOnUse" x="335" y="117" width="34" height="22">
<path d="M368.275 136.885C368.275 138.038 367.34 138.973 366.187 138.973H337.791C336.638 138.973 335.703 138.038 335.703 136.885V119.346C335.703 118.193 336.638 117.258 337.791 117.258H366.187C367.34 117.258 368.275 118.193 368.275 119.346V136.885Z" fill="white"/>
</mask>
<g mask="url(#mask8_2540_10056)">
<path d="M367.258 140.614L355.588 127.759L367.236 116.142L366.41 115.137L351.667 129.841L337.315 114.031L336.445 114.989L348.115 127.844L336.467 139.462L337.293 140.466L348.986 128.804L351.625 131.712L354.675 128.67L366.388 141.573L367.258 140.614Z" fill="white"/>
</g>
<path d="M365.04 124.784C369.052 124.784 372.303 121.532 372.303 117.521C372.303 113.51 369.052 110.258 365.04 110.258C361.029 110.258 357.777 113.51 357.777 117.521C357.777 121.532 361.029 124.784 365.04 124.784Z" fill="#56B2A1"/>
<path d="M360.272 118.92H361.287V116.351H360.266V115.815C360.455 115.794 360.687 115.735 360.961 115.639C361.236 115.542 361.483 115.431 361.701 115.305H362.148V118.92H363.074V119.626H360.271L360.272 118.92Z" fill="white"/>
<path d="M364.175 119.506C363.958 119.374 363.792 119.144 363.677 118.817C363.562 118.489 363.504 118.04 363.504 117.469C363.504 116.898 363.562 116.448 363.677 116.121C363.792 115.794 363.958 115.564 364.175 115.432C364.391 115.3 364.663 115.234 364.99 115.234C365.317 115.234 365.59 115.301 365.805 115.436C366.021 115.57 366.187 115.8 366.303 116.125C366.418 116.45 366.476 116.898 366.476 117.47C366.476 118.041 366.418 118.489 366.303 118.815C366.187 119.14 366.021 119.37 365.805 119.504C365.589 119.638 365.317 119.706 364.99 119.706C364.664 119.705 364.391 119.638 364.175 119.506ZM365.366 118.864C365.452 118.774 365.511 118.636 365.542 118.451C365.573 118.266 365.59 118.012 365.59 117.689V117.248C365.59 116.925 365.573 116.671 365.542 116.486C365.511 116.301 365.452 116.164 365.366 116.073C365.279 115.983 365.155 115.937 364.991 115.937C364.827 115.937 364.702 115.982 364.616 116.073C364.53 116.163 364.471 116.301 364.44 116.486C364.408 116.671 364.392 116.924 364.392 117.248V117.689C364.392 118.012 364.408 118.267 364.44 118.451C364.471 118.636 364.53 118.773 364.616 118.864C364.702 118.954 364.827 118.999 364.991 118.999C365.155 118.999 365.279 118.954 365.366 118.864Z" fill="white"/>
<path d="M367.012 119.403C367.012 119.164 367.065 118.948 367.17 118.757C367.274 118.566 367.403 118.399 367.557 118.256C367.71 118.113 367.911 117.952 368.159 117.771C368.373 117.607 368.542 117.471 368.666 117.362C368.79 117.253 368.894 117.133 368.979 117.003C369.083 116.84 369.136 116.655 369.136 116.449C369.136 116.315 369.086 116.196 368.988 116.093C368.889 115.99 368.748 115.939 368.563 115.939C368.147 115.939 367.939 116.139 367.939 116.538V116.796H367.083C367.079 116.783 367.074 116.754 367.067 116.708C367.061 116.662 367.057 116.607 367.057 116.545C367.057 116.108 367.203 115.781 367.495 115.562C367.786 115.343 368.155 115.234 368.6 115.234C368.99 115.234 369.29 115.31 369.5 115.461C369.71 115.612 369.848 115.782 369.912 115.971C369.977 116.16 370.01 116.336 370.01 116.5C370.01 116.79 369.945 117.047 369.815 117.271C369.685 117.496 369.531 117.685 369.352 117.838C369.173 117.991 368.952 118.158 368.688 118.339C368.486 118.478 368.336 118.591 368.234 118.679C368.163 118.742 368.111 118.803 368.077 118.862H370.036V119.631H367.013V119.403H367.012Z" fill="white"/>
<path d="M311.364 185.445H284.496C283.389 185.445 282.492 184.548 282.492 183.441V160.09C282.492 158.983 283.389 158.086 284.496 158.086H311.364C312.471 158.086 313.368 158.983 313.368 160.09V183.441C313.368 184.547 312.471 185.445 311.364 185.445Z" fill="#FFD194"/>
<path d="M307.413 165.596H292.032C291.639 165.596 291.32 165.277 291.32 164.884C291.32 164.491 291.639 164.172 292.032 164.172H307.413C307.806 164.172 308.125 164.491 308.125 164.884C308.126 165.277 307.807 165.596 307.413 165.596Z" fill="white"/>
<path d="M288.977 164.883C288.977 165.461 288.508 165.93 287.93 165.93C287.352 165.93 286.883 165.461 286.883 164.883C286.883 164.305 287.352 163.836 287.93 163.836C288.508 163.836 288.977 164.305 288.977 164.883Z" fill="white"/>
<path d="M307.413 172.697H292.032C291.639 172.697 291.32 172.378 291.32 171.985C291.32 171.592 291.639 171.273 292.032 171.273H307.413C307.806 171.273 308.125 171.592 308.125 171.985C308.126 172.378 307.807 172.697 307.413 172.697Z" fill="white"/>
<path d="M288.977 171.984C288.977 172.562 288.508 173.032 287.93 173.032C287.352 173.032 286.883 172.562 286.883 171.984C286.883 171.406 287.352 170.938 287.93 170.938C288.508 170.938 288.977 171.406 288.977 171.984Z" fill="white"/>
<path d="M307.413 179.807H292.032C291.639 179.807 291.32 179.488 291.32 179.095C291.32 178.702 291.639 178.383 292.032 178.383H307.413C307.806 178.383 308.125 178.702 308.125 179.095C308.126 179.488 307.807 179.807 307.413 179.807Z" fill="white"/>
<path d="M288.977 179.094C288.977 179.672 288.508 180.141 287.93 180.141C287.352 180.141 286.883 179.672 286.883 179.094C286.883 178.516 287.352 178.047 287.93 178.047C288.508 178.047 288.977 178.515 288.977 179.094Z" fill="white"/>
<path d="M355.036 176.201H321.876C320.592 176.201 319.551 175.16 319.551 173.876V147.192C319.551 145.908 320.592 144.867 321.876 144.867H355.036C356.32 144.867 357.361 145.908 357.361 147.192V173.876C357.361 175.16 356.32 176.201 355.036 176.201Z" fill="#97DDCF"/>
<path d="M357.361 153.849V147.192C357.361 145.908 356.32 144.867 355.036 144.867H321.876C320.592 144.867 319.551 145.908 319.551 147.192V153.849C319.551 153.849 356.734 153.849 357.361 153.849Z" fill="#56B2A1"/>
<path d="M331.686 166.851H334V160.987H331.672V159.766C332.104 159.718 332.633 159.584 333.26 159.363C333.888 159.143 334.45 158.889 334.948 158.602H335.969V166.851H338.082V168.46H331.686V166.851Z" fill="white"/>
<path d="M339.914 167.765C339.286 167.185 338.973 166.397 338.973 165.401H340.999C340.999 165.909 341.126 166.306 341.38 166.594C341.634 166.881 341.985 167.025 342.436 167.025C342.876 167.025 343.224 166.874 343.478 166.572C343.732 166.27 343.859 165.827 343.859 165.242C343.859 164.706 343.73 164.299 343.471 164.02C343.212 163.743 342.872 163.603 342.45 163.603C342.163 163.603 341.919 163.666 341.718 163.79C341.517 163.915 341.334 164.082 341.171 164.293L339.303 164.063L339.692 158.602H345.397V160.355H341.43L341.301 162.54C341.53 162.396 341.78 162.279 342.048 162.188C342.317 162.097 342.642 162.051 343.026 162.051C343.869 162.051 344.556 162.322 345.088 162.863C345.62 163.405 345.886 164.198 345.886 165.241C345.886 166.314 345.579 167.148 344.966 167.742C344.353 168.336 343.51 168.633 342.437 168.633C341.382 168.635 340.541 168.345 339.914 167.765Z" fill="white"/>
<path d="M329.064 147.985C328.726 147.985 328.453 147.711 328.453 147.373V144.276C328.453 143.938 328.726 143.664 329.064 143.664C329.402 143.664 329.675 143.938 329.675 144.276V147.373C329.675 147.711 329.402 147.985 329.064 147.985Z" fill="#2D3962"/>
<path d="M338.455 147.985C338.117 147.985 337.844 147.711 337.844 147.373V144.276C337.844 143.938 338.117 143.664 338.455 143.664C338.793 143.664 339.066 143.938 339.066 144.276V147.373C339.066 147.711 338.793 147.985 338.455 147.985Z" fill="#2D3962"/>
<path d="M347.849 147.985C347.511 147.985 347.238 147.711 347.238 147.373V144.276C347.238 143.938 347.511 143.664 347.849 143.664C348.187 143.664 348.46 143.938 348.46 144.276V147.373C348.461 147.711 348.187 147.985 347.849 147.985Z" fill="#2D3962"/>
<path d="M314.205 138.718C318.627 129.468 314.713 118.384 305.463 113.962C296.212 109.539 285.128 113.453 280.706 122.704C276.284 131.954 280.198 143.038 289.449 147.46C298.699 151.882 309.783 147.968 314.205 138.718Z" fill="white"/>
<path d="M297.456 150.57C286.507 150.57 277.598 141.661 277.598 130.711C277.598 119.761 286.507 110.852 297.456 110.852C308.407 110.852 317.316 119.761 317.316 130.711C317.316 141.661 308.407 150.57 297.456 150.57ZM297.456 113.44C287.933 113.44 280.185 121.188 280.185 130.711C280.185 140.235 287.933 147.982 297.456 147.982C306.98 147.982 314.728 140.234 314.728 130.711C314.729 121.187 306.981 113.44 297.456 113.44Z" fill="#56B2A1"/>
<path d="M305.461 132.597H296.854C296.417 132.597 296.062 132.242 296.062 131.806V119.135C296.062 118.698 296.417 118.344 296.854 118.344C297.291 118.344 297.645 118.698 297.645 119.135V131.015H305.461C305.898 131.015 306.251 131.37 306.251 131.806C306.251 132.242 305.898 132.597 305.461 132.597Z" fill="#2D3962"/>
<path d="M74.3319 291.169C74.3319 291.169 60.5059 208.703 74.8849 188.363C80.3219 180.672 105.005 186.211 105.005 186.211C116.801 198.146 122.843 210.519 127.17 226.732C131.497 242.945 139.393 278.01 140.866 294.726C127.286 294.759 74.3319 291.169 74.3319 291.169Z" fill="#F4B04E"/>
<path d="M123.498 281.672C123.498 281.672 136.976 286.872 137.328 292.05C137.636 296.587 122.152 292.743 122.152 292.743L123.498 281.672Z" fill="#FFCEAB"/>
<path d="M137.1 292.841C136.975 292.841 136.85 292.796 136.75 292.705C135.328 291.399 131.939 290.196 131.905 290.185C131.635 290.09 131.493 289.794 131.589 289.525C131.685 289.256 131.981 289.115 132.249 289.209C132.396 289.261 135.873 290.496 137.45 291.942C137.66 292.135 137.675 292.464 137.481 292.673C137.379 292.784 137.239 292.841 137.1 292.841Z" fill="#2D3962"/>
<path d="M134.674 294.416C134.559 294.416 134.443 294.378 134.347 294.299C133.099 293.279 130.41 292.336 130.383 292.327C130.113 292.233 129.97 291.937 130.064 291.668C130.158 291.397 130.454 291.255 130.723 291.349C130.841 291.39 133.614 292.363 135.002 293.498C135.223 293.679 135.256 294.005 135.075 294.226C134.973 294.352 134.824 294.416 134.674 294.416Z" fill="#2D3962"/>
<path d="M90.28 222.244C83.583 246.34 85.899 246.363 78.8 269.601C92.941 274.067 113.831 274.589 126.585 282.157C126.263 284.798 125.353 292.059 124.679 292.74C123.605 293.824 68.248 298.953 54.666 284.684C43.689 273.151 51.673 204.868 75.911 187.236C83.561 181.669 90.28 222.244 90.28 222.244Z" fill="#F4B04E"/>
<path d="M107.519 295.271C107.233 295.271 107.001 295.04 107.001 294.753C107.001 294.467 107.232 294.236 107.519 294.236C110.316 294.236 121.586 293.256 123.818 293.059L125.96 282.577C117.632 279.043 107.536 276.877 97.766 274.781C90.888 273.305 84.392 271.912 78.643 270.095C78.372 270.01 78.221 269.722 78.304 269.45C82.061 257.151 83.193 251.28 84.391 245.064C85.492 239.35 86.631 233.442 89.782 222.107C89.858 221.831 90.143 221.666 90.419 221.747C90.694 221.823 90.856 222.109 90.779 222.384C87.64 233.679 86.505 239.567 85.408 245.26C84.221 251.42 83.099 257.243 79.445 269.261C85.028 270.989 91.327 272.34 97.985 273.768C107.955 275.907 118.265 278.119 126.759 281.791C126.984 281.889 127.11 282.13 127.061 282.37L124.758 293.644C124.712 293.869 124.525 294.036 124.297 294.056C123.739 294.106 110.658 295.271 107.519 295.271Z" fill="#2D3962"/>
<path d="M157.101 172.987C154.474 172.81 153.708 175.535 153.617 169.565C153.569 166.424 152.097 162.843 151.821 160.197C151.68 158.849 152.309 158.214 152.708 157.975C153.373 157.577 154.059 157.96 154.059 157.96C154.28 156.894 155.848 157.036 156.174 157.083C156.807 157.174 157.193 157.785 157.193 157.785C157.193 157.785 157.476 156.965 158.899 157.001C159.76 157.023 160.244 157.271 160.503 157.823C160.503 157.823 162.138 157.402 162.653 158.643C162.906 159.253 164.27 163.004 164.403 169.803C164.485 173.992 162.829 173.337 160.306 173.167L157.101 172.987Z" fill="#FFCEAB"/>
<path d="M161.265 165.454C160.947 165.454 160.684 165.201 160.675 164.881C160.587 162.009 160.096 158.359 160.092 158.325C160.046 158.006 160.263 157.707 160.581 157.656C160.903 157.607 161.2 157.815 161.258 158.131C161.262 158.156 161.765 161.862 161.857 164.845C161.867 165.171 161.611 165.444 161.284 165.454C161.278 165.454 161.271 165.454 161.265 165.454Z" fill="#2D3962"/>
<path d="M158.353 165.323C158.035 165.323 157.772 165.07 157.763 164.75C157.674 161.874 156.936 158.081 156.929 158.043C156.866 157.723 157.073 157.412 157.392 157.348C157.712 157.282 158.022 157.49 158.088 157.81C158.095 157.847 158.853 161.743 158.945 164.714C158.955 165.04 158.699 165.313 158.372 165.323C158.366 165.322 158.36 165.323 158.353 165.323Z" fill="#2D3962"/>
<path d="M155.383 165.364C155.065 165.364 154.802 165.111 154.793 164.791C154.703 161.843 153.972 158.083 153.941 157.925C153.88 157.612 154.075 157.3 154.385 157.228C154.696 157.154 155.004 157.333 155.088 157.64C155.092 157.657 155.098 157.681 155.101 157.698C155.133 157.861 155.881 161.713 155.974 164.756C155.984 165.082 155.727 165.355 155.401 165.365C155.395 165.363 155.389 165.364 155.383 165.364Z" fill="#2D3962"/>
<path d="M149.399 164.074C148.247 164.965 149.806 167.245 151.306 169.102C152.016 169.982 152.861 171.227 153.582 171.551C154.645 172.029 154.278 167.69 154.278 167.69C154.278 167.69 151.713 162.285 149.399 164.074Z" fill="#FFCEAB"/>
<path d="M153.243 167.107C153.024 167.107 152.813 166.985 152.711 166.775C152.703 166.759 151.94 165.212 150.844 164.384C150.583 164.188 150.532 163.817 150.728 163.556C150.925 163.296 151.296 163.243 151.556 163.44C152.883 164.441 153.739 166.183 153.774 166.257C153.917 166.55 153.794 166.903 153.501 167.046C153.418 167.088 153.33 167.107 153.243 167.107Z" fill="#2D3962"/>
<path d="M154 172C154.303 179.293 156.622 212.672 153.013 212.672C144.72 212.672 122.01 196.189 107.281 188.825L113.243 226.699C120.3 229.71 150.763 244.777 162.628 239.596C184.945 229.852 167 171 167 171L154 172Z" fill="#F4B04E"/>
<path d="M131.002 246.206C130.742 246.206 130.518 246.01 130.488 245.746C126.477 209.646 107.104 189.384 106.909 189.184C106.709 188.979 106.714 188.651 106.918 188.452C107.122 188.252 107.45 188.256 107.65 188.461C107.848 188.664 127.464 209.16 131.517 245.631C131.548 245.915 131.344 246.171 131.059 246.203C131.04 246.205 131.021 246.206 131.002 246.206Z" fill="#2D3962"/>
<path d="M78.8092 169.225C78.8092 169.225 72.6492 169.021 72.3672 160.453C72.3672 160.453 76.7102 161.881 78.5052 161.844C78.5052 161.844 78.6902 169.524 78.8092 169.225Z" fill="#2D3962"/>
<path d="M121.797 131.25C122.652 134.816 124.312 141.223 124.836 144.847C125.83 151.714 126.54 156.317 125.745 163.245C125.299 167.135 124.034 171.034 121.545 174.275C116.787 180.47 103.499 179.595 103.499 179.595L104.027 187.366C104.027 187.366 91.8832 192.375 80.0512 186.957L78.2312 163.242C78.2312 163.242 73.2732 163.251 70.1702 160.962C67.1352 158.723 67.8302 149.875 74.8752 149.886C81.3982 149.896 82.1352 150.727 82.1352 150.727L88.7722 133.225L121.797 131.25Z" fill="#FFCEAB"/>
<path d="M73.3891 156.479C73.2491 156.479 73.1101 156.423 73.0071 156.311C72.8141 156.101 72.8281 155.773 73.0391 155.58C74.7801 153.984 78.1181 153.554 78.2591 153.536C78.5501 153.499 78.8021 153.702 78.8371 153.986C78.8721 154.27 78.6711 154.528 78.3871 154.564C78.3561 154.568 75.2351 154.972 73.7381 156.344C73.6401 156.434 73.5141 156.479 73.3891 156.479Z" fill="#2D3962"/>
<path d="M76.6545 158.708C76.4565 158.708 76.2675 158.594 76.1815 158.402C75.7505 157.44 75.3876 156.223 75.1036 154.782C75.0486 154.501 75.2305 154.229 75.5115 154.174C75.7915 154.117 76.0645 154.302 76.1195 154.582C76.4545 156.281 76.8515 157.366 77.1255 157.978C77.2425 158.239 77.1255 158.545 76.8655 158.662C76.7975 158.694 76.7255 158.708 76.6545 158.708Z" fill="#2D3962"/>
<path d="M106.044 150.705C106.118 151.619 106.952 152.297 107.908 152.221C108.864 152.145 109.578 151.342 109.505 150.428C109.431 149.514 108.597 148.836 107.641 148.912C106.685 148.989 105.971 149.791 106.044 150.705Z" fill="#2D3962"/>
<path d="M117.54 150.951C118.268 151.543 119.364 151.456 119.987 150.756C120.61 150.056 120.526 149.008 119.798 148.416C119.07 147.824 117.974 147.911 117.351 148.612C116.727 149.311 116.812 150.358 117.54 150.951Z" fill="#2D3962"/>
<path d="M112.27 161.702C111.732 161.702 111.183 161.634 110.644 161.498C109.54 161.22 108.569 160.69 107.837 159.964C107.634 159.763 107.632 159.435 107.833 159.232C108.034 159.029 108.362 159.027 108.565 159.229C109.157 159.816 109.985 160.266 110.896 160.495C111.898 160.747 112.932 160.722 113.809 160.425C114.078 160.335 114.374 160.477 114.465 160.748C114.557 161.018 114.412 161.313 114.141 161.405C113.559 161.603 112.922 161.702 112.27 161.702Z" fill="#2D3962"/>
<path d="M103.553 182.43L91.8789 179.533C91.8789 179.533 92.0569 178.044 92.4179 178.181C95.7839 179.459 103.406 179.629 103.406 179.629L103.553 182.43Z" fill="#2D3962"/>
<path d="M109.506 143.776C108.327 142.897 105.234 143.801 104.367 144.258C104.367 144.258 103.77 145.131 104.53 145.915C105.415 146.828 108.299 146.048 109.376 145.903C109.464 145.891 109.555 145.878 109.626 145.828C109.713 145.767 109.755 145.664 109.789 145.567C109.919 145.197 110.018 144.8 109.928 144.421C109.863 144.143 109.715 143.932 109.506 143.776Z" fill="#2D3962"/>
<path d="M121.039 142.985C119.879 142.084 116.768 142.927 115.891 143.368C115.891 143.368 115.276 144.229 116.019 145.028C116.885 145.958 119.784 145.235 120.864 145.11C120.952 145.1 121.043 145.089 121.116 145.04C121.205 144.981 121.248 144.879 121.285 144.782C121.423 144.415 121.53 144.02 121.448 143.639C121.388 143.359 121.244 143.145 121.039 142.985Z" fill="#2D3962"/>
<path d="M71.886 126.53C67.036 134.357 67.969 145.496 70.192 151.653C70.192 151.653 77.291 148.33 82.796 151.759C84.606 152.887 83.932 158.291 89.099 157.75C93.868 157.25 92.013 145.915 91.498 136.896C91.498 136.896 116.702 137.891 121.592 131.276C123.29 128.979 123.479 124.529 118.319 120.496C110.594 114.459 75.74 120.31 71.886 126.53Z" fill="#2D3962"/>
<path d="M91.9069 190.585C89.4649 190.585 87.3799 190.26 85.7139 189.845C81.2829 188.742 78.8159 186.826 78.7129 186.745C78.4879 186.568 78.4499 186.243 78.6269 186.018C78.8029 185.793 79.1289 185.755 79.3539 185.931C79.4489 186.006 89.046 193.316 104.093 186.906C104.358 186.793 104.661 186.916 104.772 187.179C104.884 187.442 104.762 187.746 104.499 187.858C99.684 189.91 95.4249 190.585 91.9069 190.585Z" fill="#2D3962"/>
</g>
<defs>
<clipPath id="clip0_2540_10056">
<rect width="500" height="500" fill="white"/>
</clipPath>
</defs>
</svg>
