<svg width="600" height="500" viewBox="0 0 600 500" fill="none" xmlns="http://www.w3.org/2000/svg">
<g clip-path="url(#clip0_2540_7106)">
<path d="M600 0H0V500H600V0Z" fill="white"/>
<path d="M20.014 377.016C20.014 377.016 -15.8052 421.903 62.6268 423.014C141.059 424.125 100.071 454.725 172.185 473.163C277.153 500 324.474 439.697 395.398 445.649C539.087 457.708 609.782 429.943 572.882 377.016" fill="#3C3563"/>
<path d="M572.884 360.484H20.0156V377.016H572.884V360.484Z" fill="#6B96F6"/>
<path d="M439.481 340.141H428.742V353.564H439.481V340.141Z" fill="#DEE6ED"/>
<path d="M435.042 344.242C435.042 343.599 434.625 343.078 434.111 343.078C433.596 343.078 433.18 343.599 433.18 344.242C433.18 344.885 433.596 345.405 434.111 345.405C434.625 345.405 435.042 344.885 435.042 344.242Z" fill="#3C3563"/>
<path d="M435.042 348.702C435.042 348.059 434.625 347.539 434.111 347.539C433.596 347.539 433.18 348.06 433.18 348.702C433.18 349.345 433.596 349.866 434.111 349.866C434.625 349.866 435.042 349.344 435.042 348.702Z" fill="#3C3563"/>
<path d="M101.199 340.141H90.4609V353.564H101.199V340.141Z" fill="#DEE6ED"/>
<path d="M95.8288 345.404C96.3427 345.404 96.7592 344.883 96.7592 344.241C96.7592 343.599 96.3427 343.078 95.8288 343.078C95.315 343.078 94.8984 343.599 94.8984 344.241C94.8984 344.883 95.315 345.404 95.8288 345.404Z" fill="#3C3563"/>
<path d="M95.8288 349.865C96.3427 349.865 96.7592 349.344 96.7592 348.702C96.7592 348.06 96.3427 347.539 95.8288 347.539C95.315 347.539 94.8984 348.06 94.8984 348.702C94.8984 349.344 95.315 349.865 95.8288 349.865Z" fill="#3C3563"/>
<path opacity="0.2" d="M494.532 410.273C534.634 410.273 567.143 405.777 567.143 400.23C567.143 394.684 534.634 390.188 494.532 390.188C454.431 390.188 421.922 394.684 421.922 400.23C421.922 405.777 454.431 410.273 494.532 410.273Z" fill="#432F7E"/>
<path d="M395.887 96.2422H388.016V131.201H395.887V96.2422Z" fill="#3C2F71"/>
<path d="M383.551 98.7188H378.832V131.204H383.551V98.7188Z" fill="#FFAA61"/>
<path d="M383.551 120.289H378.832V124.438H383.551V120.289Z" fill="#FFCB61"/>
<path d="M378.846 100.051L372.945 99.2109L370.007 131.445L375.908 132.286L378.846 100.051Z" fill="#FFCB61"/>
<path opacity="0.2" d="M393.009 103.938H389.27V122.358H393.009V103.938Z" fill="#3C2F71"/>
<path d="M399.398 129.75H321.273V140.891H399.398V129.75Z" fill="#6B96F6"/>
<path opacity="0.2" d="M399.398 137.406H321.273V140.894H399.398V137.406Z" fill="#3C2F71"/>
<path d="M336.426 163.328C334.538 163.328 333.008 161.415 333.008 159.055V140.891H339.845V159.055C339.845 161.414 338.314 163.328 336.426 163.328Z" fill="#3051A1"/>
<path d="M384.594 163.328C382.706 163.328 381.176 161.415 381.176 159.055V140.891H388.013V159.055C388.013 161.414 386.482 163.328 384.594 163.328Z" fill="#3051A1"/>
<path d="M298.142 82.8438H248.152V154.263H298.142V82.8438Z" fill="#FFE698"/>
<path d="M293.132 89.25H253.16V147.853H293.132V89.25Z" fill="#FFCB61"/>
<path d="M84.9584 45.4297H34.9688V86.8467H84.9584V45.4297Z" fill="#FFE698"/>
<path d="M79.9486 51.8359H39.9766V80.4369H79.9486V51.8359Z" fill="#FFCB61"/>
<path d="M145.818 45.4297H95.8281V86.8467H145.818V45.4297Z" fill="#FFE698"/>
<path d="M140.808 51.8359H100.836V80.4369H140.808V51.8359Z" fill="white"/>
<path d="M78.8887 174.263C78.8887 174.263 76.0887 175.393 73.8551 172.231C71.6215 169.069 64.6807 156.355 70.2839 148.673C75.8871 140.991 87.1223 142.714 91.2455 138.788C95.3679 134.862 97.5623 148.848 93.4919 153.578C95.4031 155.844 93.6447 162.801 89.9383 163.637" fill="#2A3F7A"/>
<path d="M99.8968 197.148L109.335 206.911L112.475 186.579C112.475 186.579 109.85 182.372 112.779 178.104L114.098 178.821C114.863 177.587 115.716 176.321 115.716 176.321C115.993 176.294 117.49 176.757 118.221 177.648C119.799 179.569 122.033 181.405 119.359 188.674C119.359 188.674 118.55 223.87 112.978 227.006C110.706 228.285 93.7656 217.043 93.7656 217.043" fill="#FFADA2"/>
<path d="M95.4492 189.945L106.436 199.825L99.026 214.165L95.4492 189.945Z" fill="#2F99B1"/>
<path d="M130.031 202.592C130.031 202.592 131.228 197.288 134.4 196.381C137.572 195.475 136.737 197.389 135.669 199.088C134.812 200.45 134.31 201.479 134.31 201.479" fill="#FFBDB4"/>
<path d="M139.426 195.176L139.286 194.797L136.646 196.242L136.459 195.547L135.566 196.07L136.206 198.23L137.039 197.706L136.781 196.745L139.426 195.176Z" fill="#6B96F6"/>
<path opacity="0.2" d="M93.1751 404.825C128.303 404.825 156.78 401.258 156.78 396.858C156.78 392.458 128.303 388.891 93.1751 388.891C58.0471 388.891 29.5703 392.458 29.5703 396.858C29.5703 401.258 58.0471 404.825 93.1751 404.825Z" fill="#432F7E"/>
<path d="M46.7456 378.829L42.2104 385.933C42.2104 385.933 49.3064 397.798 48.3824 399.42C44.8608 396.285 31.5 384.127 31.5 384.127L38.8272 370.008L46.7456 378.829Z" fill="#6B96F6"/>
<path d="M130.8 378.445L133.087 387.818C133.087 387.818 148.193 392.018 148.417 393.989C144.137 394.75 125.215 398.112 125.215 398.112L120.664 380.247L130.8 378.445Z" fill="#6B96F6"/>
<path d="M35.4961 371.466L47.1617 383.106C47.1617 383.106 76.7465 343.465 81.1873 333.724C85.6345 323.974 91.9905 298.325 91.9905 298.325L104.58 326.873L118.798 384.312L126.276 382.909L134.767 381.318C134.767 381.318 124.75 335.22 122.301 321.313C119.845 307.415 108.802 263.258 108.802 263.258C108.802 263.258 92.1185 263.295 74.8425 266.801C71.4625 278.39 63.5345 326.871 63.5345 326.871L35.4961 371.466Z" fill="#3051A1"/>
<path d="M108.801 263.263C100.264 268.116 73.3289 266.567 73.3289 266.567C73.3289 266.567 71.5874 257.164 68.1122 240.329C66.509 232.54 65.1914 224.014 64.6026 216.193C63.901 207.093 64.1865 198.958 66.1193 194.115C69.7249 185.134 77.2994 182.914 77.2994 182.914C77.2994 182.914 86.321 181.766 91.7898 186.424C96.3313 190.281 97.4578 194.235 99.9105 204.797C100.552 207.538 101.263 211.958 102.077 217.591C103.091 224.567 104.261 233.396 105.631 243.179C105.726 243.851 105.821 244.522 105.916 245.205C106.747 251.065 107.709 257.153 108.801 263.263Z" fill="#35AEB9"/>
<path d="M105.63 243.173C75.4185 237.518 71.9609 209.352 71.9609 209.352L82.2049 214.281L102.077 217.585C103.091 224.561 104.26 233.391 105.63 243.173Z" fill="#2F99B1"/>
<path d="M86.2834 173.609L87.525 184.015C87.525 184.015 91.6738 190.639 88.1106 192.866C84.3522 195.215 77.3994 187.72 76.9898 183.782C76.5802 179.844 74.625 167.531 74.625 167.531" fill="#FFBDB4"/>
<path d="M90.7598 153.336C90.7598 153.336 92.7813 162.794 92.6565 168.084C92.5325 173.374 90.7638 178.386 86.1574 177.87C81.551 177.354 77.1398 173.855 75.6486 169.249C73.7014 169.987 71.1365 166.399 71.1445 163.236C71.1525 160.073 73.3734 160.344 74.2094 161.895C75.0454 163.446 76.2341 165.149 76.2341 165.149L76.0134 156.543C76.0134 156.543 83.123 157.738 90.7598 153.336Z" fill="#FFBDB4"/>
<path d="M89.625 159.797C89.625 160.363 89.9122 160.821 90.2674 160.821C90.6218 160.821 90.9098 160.362 90.9098 159.797C90.9098 159.231 90.6226 158.773 90.2674 158.773C89.9122 158.773 89.625 159.231 89.625 159.797Z" fill="#2A3F7A"/>
<path d="M84.0213 162.259C84.3761 162.259 84.6637 161.8 84.6637 161.235C84.6637 160.669 84.3761 160.211 84.0213 160.211C83.6665 160.211 83.3789 160.669 83.3789 161.235C83.3789 161.8 83.6665 162.259 84.0213 162.259Z" fill="#2A3F7A"/>
<path d="M87.9881 165.711C87.5585 165.711 87.0825 165.63 86.7945 165.331C86.7097 165.243 86.6985 165.085 86.7689 164.979C86.8401 164.874 86.9665 164.86 87.0505 164.947C87.3657 165.275 88.1465 165.233 88.6073 165.158L87.1313 159.571C87.0961 159.44 87.1537 159.298 87.2585 159.255C87.3657 159.211 87.4761 159.283 87.5113 159.414L89.1337 165.554L88.9089 165.607C88.8297 165.624 88.4337 165.711 87.9881 165.711Z" fill="#EE6F79"/>
<path d="M81.2094 159.27C81.087 159.27 80.9662 159.2 80.8878 159.068C80.7558 158.846 80.7926 158.533 80.9702 158.368C82.8142 156.655 84.4438 156.99 84.5118 157.004C84.7294 157.052 84.875 157.311 84.8358 157.583C84.7982 157.854 84.5958 158.037 84.3742 157.989C84.3158 157.979 82.999 157.729 81.447 159.171C81.3758 159.238 81.2926 159.27 81.2094 159.27Z" fill="#2A3F7A"/>
<path d="M87.5254 156.996C87.3622 156.996 87.2086 156.87 87.1494 156.667C87.0734 156.408 87.1806 156.121 87.3886 156.026C89.5478 155.045 91.0318 155.947 91.0942 155.986C91.2918 156.11 91.3718 156.41 91.2726 156.657C91.1742 156.904 90.935 157.003 90.7374 156.881C90.683 156.847 89.4782 156.141 87.6622 156.966C87.6174 156.986 87.571 156.996 87.5254 156.996Z" fill="#2A3F7A"/>
<path d="M83.7819 166.133L88.8731 168.126C88.8731 168.126 87.5003 170.617 85.3299 169.344C83.1595 168.071 83.7819 166.133 83.7819 166.133Z" fill="white"/>
<path opacity="0.2" d="M91.9883 298.323L104.577 326.871L118.795 384.31L126.273 382.907L113.212 336.57L97.3587 280.859L91.9883 298.323Z" fill="#3C2F71"/>
<path d="M87.2182 199.228L82.207 214.286C82.207 214.286 96.3998 226.332 101.792 226.332C107.184 226.332 130.608 208.767 130.608 208.767C130.608 208.767 133.572 206.608 134.766 203.394C135.566 202.591 135.892 200.508 135.495 200.17C135.744 199.212 135.691 198.161 135 197.72C135 197.72 137.681 195.059 137.65 194.577C137.544 192.892 130.185 197.806 127.086 200.778L102.644 209.724L87.2182 199.228Z" fill="#FFBDB4"/>
<path d="M123.054 189.335L122.874 189.536C122.276 190.202 121.36 190.137 120.827 189.39L107.215 170.308L109.56 167.695L123.172 186.777C123.704 187.524 123.652 188.669 123.054 189.335Z" fill="#3C3563"/>
<path d="M115.438 175.997C115.438 175.997 113.381 180.461 114.256 181.624C115.131 182.787 116.445 180.94 116.445 180.94C116.445 180.94 116.048 182.096 116.574 182.817C117.101 183.539 117.757 182.817 117.757 182.817C117.757 182.817 117.538 183.812 117.977 184.291C118.414 184.77 118.797 184.291 118.797 184.291C118.797 184.291 118.797 185.385 119.509 185.522C120.22 185.659 120.767 182.991 120.821 181.555C120.876 180.119 120.056 179.572 120.056 179.572C120.056 179.572 119.567 178.474 119.181 178.409C119.4 177.178 117.944 177.324 117.944 177.324C117.944 177.324 116.785 173.927 115.438 175.997Z" fill="#FFADA2"/>
<path d="M114.914 164.614L105.228 175.41L101.844 170.666L108.357 163.405L111.805 163.82L113.769 163.008L114.914 164.614Z" fill="#FFE698"/>
<path d="M109.13 258.555L110.011 265.718L72.1778 273.388L71.957 263.391L109.13 258.555Z" fill="#3C3563"/>
<path d="M82.3891 270.401L77.7795 259.177L76.6787 258.228L75.7891 254.913L76.5499 254.594L78.2619 256.771L78.3699 258.576L83.3187 270.011" fill="#E9EEF3"/>
<path d="M82.6743 268.951C82.6743 268.951 79.5103 259.097 79.2383 257.539C78.9663 255.981 81.6207 255.568 81.9447 256.658C82.2687 257.748 84.8159 266.929 84.8159 266.929" fill="#FFC16B"/>
<path d="M85.2325 269.081C85.2325 269.081 84.0413 258.568 84.0749 256.973C84.1085 255.379 86.7645 255.77 86.8709 256.925C86.9773 258.08 87.6973 267.756 87.6973 267.756" fill="#FFC16B"/>
<path d="M83.4463 266.829C83.4463 266.829 76.8295 266.147 76.1975 269.072C75.5655 271.997 73.7647 293.807 81.8959 294.457C90.0271 295.107 89.2343 266.578 89.2343 266.578L83.4463 266.829Z" fill="#3C3563"/>
<path d="M91.0664 260.644L92.036 270.079L94.8696 269.505L94.1712 260.086L91.0664 260.644Z" fill="#3051A1"/>
<path d="M101.016 259.252L101.832 267.722L105.335 267.154L104.377 258.648L101.016 259.252Z" fill="#3051A1"/>
<path d="M207.304 80.6094V131.489C207.304 134.529 205.336 136.989 202.904 136.989C200.48 136.989 198.504 134.529 198.504 131.489V80.6094C198.504 78.5394 199.432 76.7194 200.792 75.7894C201.24 75.4794 201.728 75.2694 202.248 75.1794C202.464 75.1294 202.68 75.1094 202.904 75.1094C205.336 75.1094 207.304 77.5794 207.304 80.6094Z" fill="#6B96F6"/>
<path d="M216.555 88.4219V95.8219C216.555 98.9819 215.291 101.782 213.355 103.462C213.003 103.772 212.627 104.042 212.235 104.262C211.291 104.812 210.227 105.122 209.115 105.122H202.907C201.147 105.122 199.707 103.332 199.707 101.122C199.707 98.9119 201.147 97.1219 202.907 97.1219H209.115C209.691 97.1219 210.155 96.5419 210.155 95.8219V88.4219C210.155 86.7019 211.019 85.2419 212.235 84.6819C212.579 84.5119 212.963 84.4219 213.355 84.4219C215.123 84.4219 216.555 86.2119 216.555 88.4219Z" fill="#6B96F6"/>
<path d="M206.106 112.148C206.106 114.358 204.674 116.148 202.906 116.148H197.698C195.842 116.148 194.138 115.298 192.834 113.878C192.378 113.388 191.978 112.838 191.634 112.228C190.762 110.708 190.258 108.858 190.258 106.848V91.3281C190.258 89.9681 190.802 88.7681 191.634 88.0481C191.986 87.7381 192.394 87.5181 192.834 87.4081C193.034 87.3581 193.242 87.3281 193.458 87.3281C195.226 87.3281 196.658 89.1181 196.658 91.3281V106.848C196.658 107.568 197.122 108.148 197.698 108.148H202.906C204.674 108.148 206.106 109.938 206.106 112.148Z" fill="#6B96F6"/>
<path opacity="0.2" d="M202.253 75.1797V127.55H200.797V75.7897C201.245 75.4797 201.733 75.2697 202.253 75.1797Z" fill="#3C2F71"/>
<path opacity="0.2" d="M192.837 87.4062V113.876C192.381 113.386 191.981 112.836 191.637 112.226V88.0462C191.989 87.7362 192.397 87.5162 192.837 87.4062Z" fill="#3C2F71"/>
<path opacity="0.2" d="M213.354 84.4219V103.462C213.002 103.772 212.626 104.042 212.234 104.262V84.6819C212.578 84.5119 212.962 84.4219 213.354 84.4219Z" fill="#3C2F71"/>
<path d="M216.323 122C216.243 123.95 215.916 125.82 215.38 127.55C214.948 128.96 214.372 130.28 213.684 131.49C211.132 136.02 206.956 138.96 202.252 138.96C197.548 138.96 193.38 136.02 190.828 131.49C190.14 130.28 189.564 128.96 189.132 127.55C188.596 125.82 188.268 123.95 188.188 122H216.323Z" fill="#3C3563"/>
<path opacity="0.2" d="M215.381 127.547C214.949 128.957 214.373 130.277 213.685 131.487H190.829C190.141 130.277 189.565 128.957 189.133 127.547H215.381Z" fill="#3C2F71"/>
<path d="M218.521 137.406H146.844V381.787H218.521V137.406Z" fill="#FFCB61"/>
<path d="M166.056 137.406H146.844V381.787H166.056V137.406Z" fill="#FFE698"/>
<path d="M218.519 172.062H166.055V176.878H218.519V172.062Z" fill="#FFE698"/>
<path d="M218.519 232.883H166.055V237.699H218.519V232.883Z" fill="#FFE698"/>
<path d="M218.519 293.703H166.055V298.519H218.519V293.703Z" fill="#FFE698"/>
<path d="M213.919 302.508H170.594V374.621H213.919V302.508Z" fill="#FFE698"/>
<path d="M194.27 302.508H192.117V375.362H194.27V302.508Z" fill="#FFCB61"/>
<path d="M187.278 337.834C187.278 340.249 185.712 342.207 183.78 342.207C181.848 342.207 180.281 340.249 180.281 337.834C180.281 335.419 181.848 333.461 183.78 333.461C185.712 333.461 187.278 335.418 187.278 337.834Z" fill="white"/>
<path d="M205.04 337.834C205.04 340.249 203.473 342.207 201.541 342.207C199.609 342.207 198.043 340.249 198.043 337.834C198.043 335.419 199.609 333.461 201.541 333.461C203.473 333.461 205.04 335.418 205.04 337.834Z" fill="white"/>
<path d="M162.65 174.465C162.65 173.665 162.131 173.016 161.491 173.016C160.851 173.016 160.332 173.665 160.332 174.465C160.332 175.265 160.851 175.914 161.491 175.914C162.131 175.914 162.65 175.266 162.65 174.465Z" fill="#6B96F6"/>
<path d="M371.214 391.5C369.79 388.841 366.95 388.833 367.217 388H385.617C385.75 388 386.577 388.2 385.617 389C385.017 389.5 382.797 390.077 382.417 391.5C382.017 393 383.218 394 382.818 395C382.069 396.872 382.817 398.5 377.617 399.5C372.417 400.5 367.618 396.5 367.618 395C367.618 393.264 372.018 393 371.214 391.5Z" fill="#6B96F6"/>
<path d="M162.65 235.59C162.65 234.79 162.131 234.141 161.491 234.141C160.851 234.141 160.332 234.79 160.332 235.59C160.332 236.39 160.851 237.039 161.491 237.039C162.131 237.038 162.65 236.39 162.65 235.59Z" fill="#6B96F6"/>
<path d="M149.483 237.039C150.124 237.039 150.643 236.39 150.643 235.59C150.643 234.789 150.124 234.141 149.483 234.141C148.843 234.141 148.324 234.789 148.324 235.59C148.324 236.39 148.843 237.039 149.483 237.039Z" fill="#6B96F6"/>
<path opacity="0.2" d="M218.524 237.703H208.195V293.71H218.524V237.703Z" fill="#B92F71"/>
<path opacity="0.2" d="M218.524 177.008H208.195V232.885H218.524V177.008Z" fill="#B92F71"/>
<path opacity="0.2" d="M218.524 137.445H208.195V172.065H218.524V137.445Z" fill="#B92F71"/>
<path opacity="0.2" d="M298.388 410.273C338.489 410.273 370.998 405.777 370.998 400.23C370.998 394.684 338.489 390.188 298.388 390.188C258.286 390.188 225.777 394.684 225.777 400.23C225.777 405.777 258.286 410.273 298.388 410.273Z" fill="#432F7E"/>
<path d="M421.923 268.172H340.656V388.209H421.923V268.172Z" fill="#FFE698"/>
<path d="M410.205 351.533C417.008 331.576 409.58 308.504 393.614 300C377.648 291.497 359.191 300.782 352.388 320.739C345.585 340.696 353.013 363.768 368.979 372.272C384.945 380.775 403.402 371.49 410.205 351.533Z" fill="#FFCB61"/>
<path d="M385.151 366.197C398.431 363.529 407.467 347.909 405.332 331.308C403.197 314.708 390.701 303.414 377.421 306.083C364.141 308.751 355.105 324.371 357.24 340.971C359.375 357.572 371.871 368.866 385.151 366.197Z" fill="#6B96F6"/>
<path d="M355.401 277.008H346.078V280.965H355.401V277.008Z" fill="#6B96F6"/>
<path d="M415.013 277.008H411.25V280.965H415.013V277.008Z" fill="#6B96F6"/>
<path d="M409.408 277.008H405.645V280.965H409.408V277.008Z" fill="#6B96F6"/>
<path d="M421.923 284.281H340.656V288.916H421.923V284.281Z" fill="#FFCB61"/>
<path d="M399.404 330.289C399.404 332.714 397.832 334.68 395.892 334.68C393.952 334.68 392.379 332.714 392.379 330.289C392.379 327.864 393.952 325.898 395.892 325.898C397.832 325.898 399.404 327.864 399.404 330.289Z" fill="white"/>
<path d="M416.463 268.195H395.891V237.008C395.891 230.186 400.315 224.656 405.772 224.656H416.463V268.195Z" fill="#FFCB61"/>
<path d="M416.464 214.883H405.59V228.476H416.464V214.883Z" fill="#FFCB61"/>
<path d="M417.057 212.391H404.949V218.178H417.057V212.391Z" fill="#6B96F6"/>
<path opacity="0.2" d="M408.364 212.391H406.805V218.178H408.364V212.391Z" fill="#3C2F71"/>
<path opacity="0.2" d="M411.782 212.391H410.223V218.178H411.782V212.391Z" fill="#3C2F71"/>
<path opacity="0.2" d="M415.2 212.391H413.641V218.178H415.2V212.391Z" fill="#3C2F71"/>
<path d="M413.956 235.242H401.211V256.525H413.956V235.242Z" fill="#FFE698"/>
<path d="M315.887 236.963C315.887 236.963 309.781 234.662 310.308 228.48C306.663 226.141 307.288 215.689 312.576 215.288C309.518 209.671 317.689 204.455 320.961 209.122C324.232 203.906 330.682 206.926 331.081 210.22C337.409 208.573 336.31 217.213 336.31 217.697C342.679 218.73 338.506 225.037 338.506 225.037C338.506 225.037 339.905 236.903 331.08 234.954" fill="#2A3F7A"/>
<path d="M330.064 274.18L337.189 282.97L340.692 285.166V292.246L320.961 290.205L330.064 274.18Z" fill="#FFAEA5"/>
<path d="M323.953 259.602L332.86 275.028L324.456 293.298L303.879 275.061L323.953 259.602Z" fill="#6284EC"/>
<path d="M325.204 288.845C324.676 294.995 324.036 301.165 323.34 306.225C322.86 309.745 322.364 312.715 321.868 314.775C305.876 322.975 284.5 313.545 284.5 313.545C284.5 313.545 286.02 283.515 293.052 267.865C300.076 252.215 312.924 247.805 312.924 247.805C312.924 247.805 325.988 254.135 326.372 264.045C326.556 268.905 326.044 278.835 325.204 288.845Z" fill="#6B96F6"/>
<path opacity="0.2" d="M325.204 288.85C324.676 295 324.036 301.17 323.34 306.23C301.54 298.39 302.052 274.18 302.052 274.18L325.204 288.85Z" fill="#3C2F71"/>
<path d="M388.371 326.137C391.772 324.365 393.381 319.481 391.964 315.229C390.546 310.977 386.64 308.966 383.238 310.737C379.836 312.509 378.227 317.393 379.644 321.645C381.062 325.897 384.969 327.908 388.371 326.137Z" fill="white"/>
<path d="M324.816 240.643L322.037 262.311L312.922 247.804L315.324 230.938" fill="#FFBDB4"/>
<path d="M334.531 222.103C334.531 222.103 334.533 232.257 333.277 237.517C332.021 242.777 329.176 247.209 324.67 245.151C320.164 243.094 316.336 237.814 315.828 232.699C312.752 231.424 313.26 228.126 313.757 225.237C314.2 222.661 317.399 221.973 317.672 226.031L317.704 229.255L320.844 226.208L318.871 216.689C318.871 216.689 329.729 209.937 334.531 222.103Z" fill="#FFBDB4"/>
<path d="M332.216 228.28C332.095 228.847 332.285 229.403 332.641 229.521C332.996 229.64 333.382 229.276 333.503 228.709C333.624 228.142 333.434 227.587 333.078 227.468C332.723 227.349 332.338 227.713 332.216 228.28Z" fill="#2A3F7A"/>
<path d="M324.802 227.334C324.681 227.901 324.871 228.457 325.227 228.575C325.582 228.694 325.968 228.33 326.089 227.763C326.21 227.196 326.02 226.64 325.664 226.522C325.309 226.404 324.923 226.767 324.802 227.334Z" fill="#2A3F7A"/>
<path d="M330.279 233.789L330.051 233.768C329.889 233.752 328.453 233.595 327.998 232.789C327.934 232.677 327.955 232.521 328.046 232.441C328.136 232.361 328.261 232.388 328.325 232.501C328.574 232.94 329.375 233.158 329.854 233.238L329.57 227.133C329.563 226.995 329.648 226.877 329.758 226.869C329.869 226.85 329.963 226.966 329.97 227.104L330.279 233.789Z" fill="#EE6F79"/>
<path d="M323.687 223.87C323.553 223.817 323.444 223.677 323.414 223.492C323.37 223.221 323.511 222.958 323.728 222.903C326.057 222.316 328.024 223.067 328.106 223.099C328.318 223.181 328.434 223.461 328.369 223.725C328.303 223.988 328.078 224.136 327.868 224.054C327.85 224.047 326.006 223.348 323.885 223.883C323.817 223.9 323.75 223.895 323.687 223.87Z" fill="#2A3F7A"/>
<path d="M334.424 226.185C334.342 226.153 334.267 226.088 334.215 225.993C334.179 225.93 333.33 224.467 331.57 224.966C331.356 225.025 331.14 224.86 331.092 224.589C331.043 224.32 331.178 224.052 331.394 223.991C333.699 223.336 334.827 225.34 334.874 225.425C334.998 225.653 334.952 225.964 334.77 226.12C334.664 226.21 334.537 226.229 334.424 226.185Z" fill="#2A3F7A"/>
<path d="M268.544 399.429L258.01 395.696C258.01 395.696 244.886 401.056 243.816 399.796C246.553 396.166 258.558 381.789 258.558 381.789L268.544 387.782L268.544 399.429Z" fill="white"/>
<path d="M349.206 384.915L349.484 395.834C349.484 395.834 358.079 400.026 358.077 401.863C354.087 401.858 338.844 401.894 338.844 401.894L338.954 384.883L349.206 384.915Z" fill="white"/>
<path d="M352.267 389.801L337.615 391.112L335.67 349.047L312.578 351.897L307.763 401.152H267.605L265.629 385.171L291.511 376.571C291.511 376.571 281.842 323.513 284.503 313.542C301.188 311.042 321.865 314.772 321.865 314.772C321.865 314.772 353.191 326.488 354.735 334.071C355.979 340.15 352.267 389.801 352.267 389.801Z" fill="#3051A1"/>
<path opacity="0.2" d="M312.578 351.899L314.936 331.273L340.145 338.134L345.578 390.885L337.615 391.114L335.67 349.049L312.578 351.899Z" fill="#3C2F71"/>
<path d="M353.992 259.123C352.493 258.734 351.017 259.291 349.949 260.462C350.412 260.307 350.905 260.265 351.406 260.395C353.117 260.839 354.217 262.933 353.861 265.072C353.505 267.211 351.83 268.585 350.12 268.141C349.619 268.011 349.18 267.727 348.805 267.355C349.412 268.961 350.589 270.206 352.086 270.595C354.621 271.253 357.101 269.218 357.628 266.05C358.154 262.882 356.526 259.781 353.992 259.123Z" fill="#DEE6ED"/>
<path d="M379.598 265.772C381.096 266.161 382.273 267.407 382.879 269.012C382.504 268.64 382.065 268.356 381.564 268.226C379.853 267.782 378.178 269.156 377.822 271.294C377.467 273.433 378.566 275.527 380.277 275.971C380.778 276.101 381.272 276.059 381.734 275.904C380.666 277.075 379.19 277.632 377.692 277.243C375.157 276.585 373.53 273.484 374.056 270.316C374.582 267.15 377.063 265.115 379.598 265.772Z" fill="#DEE6ED"/>
<path d="M375.945 268.726L355.992 263.547L355.347 267.432L375.3 272.611L375.945 268.726Z" fill="#DEE6ED"/>
<path d="M361.602 281.757C361.602 281.757 338.735 292.058 334.015 292.172C323.89 292.416 302.645 280.804 302.645 280.804L307.624 263.855L334.871 275.447L359.096 271.97C359.096 271.97 360.835 266.724 362.083 266.139C363.332 265.555 362.401 270.483 362.401 270.483C362.401 270.483 364.44 269.649 367.661 268.188C371.764 266.327 374.916 266.359 367.534 270.923C373.688 268.328 375.964 268.609 369.273 273.3C373.437 273.556 376.292 274.447 369.142 276.253C373.556 276.467 374.046 277.606 367.787 279.631C364.985 280.923 361.602 281.757 361.602 281.757Z" fill="#FFBDB4"/>
<path d="M328.695 235.872C328.679 235.872 328.664 235.87 328.648 235.865C327.025 235.379 326.454 234.463 326.431 234.424C326.365 234.314 326.382 234.157 326.47 234.074C326.558 233.991 326.683 234.012 326.75 234.121C326.762 234.138 327.282 234.941 328.742 235.378C328.85 235.41 328.916 235.545 328.89 235.679C328.868 235.795 328.786 235.872 328.695 235.872Z" fill="#EE6F79"/>
<path d="M305.068 258.935L328.073 270.176L322.867 292.835L299.392 281.298L305.068 258.935Z" fill="#6B96F6"/>
<path d="M284.499 369.258H224.953V413.079H284.499V369.258Z" fill="#4B67D6"/>
<path opacity="0.2" d="M241.798 369.258H224.953V413.079H241.798V369.258Z" fill="#3C2F71"/>
<path d="M236.94 377.068C236.94 380.143 234.946 382.636 232.486 382.636C230.026 382.636 228.031 380.143 228.031 377.068C228.031 373.993 230.026 371.5 232.486 371.5C234.946 371.5 236.94 373.993 236.94 377.068Z" fill="white"/>
<path d="M234.087 377.067H230.887V356.92C230.887 354.712 232.172 353.964 240.684 353.267C245.656 352.859 252.098 352.625 258.36 352.625C263.997 352.625 268.853 352.813 272.404 353.167C277.536 353.68 279.98 354.372 279.98 356.92V369.255H276.78V357.908C271.469 355.759 239.726 356.51 234.088 358.145V377.067H234.087Z" fill="#3051A1"/>
<path d="M234.374 377.063C234.374 375.759 233.528 374.703 232.486 374.703C231.443 374.703 230.598 375.76 230.598 377.063C230.598 378.366 231.443 379.423 232.486 379.423C233.528 379.423 234.374 378.367 234.374 377.063Z" fill="#3051A1"/>
<path d="M284.498 388.438H241.797V390.065H284.498V388.438Z" fill="#3051A1"/>
<path d="M251.44 397.888C249.624 397.888 248.152 396.048 248.152 393.779V386.227H254.727V393.779C254.727 396.048 253.255 397.888 251.44 397.888Z" fill="white"/>
<path d="M277.244 397.888C275.429 397.888 273.957 396.048 273.957 393.779V386.227H280.531V393.779C280.531 396.048 279.059 397.888 277.244 397.888Z" fill="white"/>
<path d="M274.191 433.914L274.09 433.64C273.756 432.731 274.073 431.655 274.801 431.236L293.38 420.547L294.694 424.114L276.115 434.803C275.386 435.221 274.525 434.823 274.191 433.914Z" fill="#FFCB61"/>
<path d="M295.489 431.417L290.062 416.68L294.682 414.023L298.33 423.933L297.005 427.934L297.052 430.517L295.489 431.417Z" fill="#DEE6ED"/>
<path d="M463.203 40H447.203V140H463.203V40Z" fill="#FFCB61"/>
<path d="M566.32 61.6797H549.895V122.165H566.32V61.6797Z" fill="#FFCB61"/>
<path d="M441.793 40.3906H425.367V128.426H441.793V40.3906Z" fill="#FFCB61"/>
<path d="M404.879 376.645L404.895 410.155C404.895 412.175 410.895 413.805 418.295 413.805C425.703 413.805 431.703 412.165 431.703 410.145V401.325L431.695 388.425V376.625L404.879 376.645Z" fill="white"/>
<path d="M404.887 376.641C404.888 378.661 410.889 380.296 418.292 380.293C425.696 380.29 431.696 378.649 431.696 376.629C431.695 374.609 425.694 372.974 418.291 372.977C410.887 372.98 404.886 374.621 404.887 376.641Z" fill="white"/>
<path d="M407.371 376.642C407.371 377.857 412.258 378.839 418.286 378.837C424.314 378.834 429.201 377.847 429.201 376.633C429.201 375.418 424.313 374.436 418.285 374.438C412.257 374.44 407.371 375.427 407.371 376.642Z" fill="#FFCB61"/>
<path d="M405.512 382.626C405.511 381.34 406.345 380.298 407.373 380.297C408.402 380.297 409.236 381.338 409.237 382.624C409.237 383.91 408.404 384.952 407.375 384.952C406.346 384.954 405.513 383.912 405.512 382.626Z" fill="#3051A1"/>
<path d="M421.699 390.694V403.072C426.836 403.343 431.702 401.322 431.702 401.322L431.694 388.422C431.694 388.422 427.985 390.396 421.699 390.694Z" fill="#FFE698"/>
<g filter="url(#filter0_d_2540_7106)">
<path d="M416.804 380.5C416.804 380 416.804 379.5 416.004 378.5L422.004 378C421.737 378.5 420.107 379.5 420.004 379.5C419.204 379.5 418.804 380.5 418.404 381C418.121 381.354 418.404 383 418.404 383V391C418.404 391.5 418.004 392.5 417.604 392.5C416.709 392.5 416.404 392 416.404 390.5C416.404 389 416.804 381.618 416.804 380.5Z" fill="#FFCB61"/>
</g>
<path d="M404.887 393.449C401.253 393.449 400.841 390.66 400.802 389.805C400.653 386.57 403.614 382.163 407.282 381.633L407.466 383.619C404.586 384.036 402.306 387.644 402.4 389.689C402.466 391.143 403.79 391.448 404.887 391.448V393.449Z" fill="#3051A1"/>
<path d="M568.945 374.372L568.929 407.882C568.929 409.902 562.929 411.532 555.529 411.532C548.121 411.532 542.121 409.892 542.121 407.872V399.052L542.129 386.152V374.352L568.945 374.372Z" fill="white"/>
<path d="M568.942 374.367C568.942 376.387 562.94 378.022 555.537 378.019C548.134 378.016 542.133 376.376 542.133 374.355C542.134 372.335 548.135 370.7 555.538 370.703C562.942 370.706 568.942 372.347 568.942 374.367Z" fill="white"/>
<path d="M566.451 374.368C566.451 375.583 561.563 376.565 555.535 376.563C549.507 376.56 544.621 375.574 544.621 374.359C544.621 373.144 549.508 372.162 555.536 372.164C561.565 372.166 566.451 373.153 566.451 374.368Z" fill="#FFCB61"/>
<path d="M568.315 380.351C568.315 379.065 567.482 378.023 566.453 378.023C565.424 378.023 564.591 379.064 564.59 380.35C564.59 381.636 565.423 382.678 566.451 382.679C567.48 382.679 568.315 381.637 568.315 380.351Z" fill="#3051A1"/>
<path d="M552.124 388.42V400.798C546.987 401.069 542.121 399.048 542.121 399.048L542.129 386.148C542.129 386.148 545.839 388.122 552.124 388.42Z" fill="#FFE698"/>
<path d="M568.939 391.174V389.174C570.036 389.174 571.359 388.869 571.426 387.415C571.52 385.37 569.24 381.762 566.359 381.345L566.543 379.359C570.212 379.89 573.172 384.297 573.023 387.532C572.984 388.386 572.573 391.174 568.939 391.174Z" fill="#3051A1"/>
<path d="M464.07 260.658C464.452 260.658 464.79 260.316 464.857 259.83C464.917 259.399 466.294 249.225 463.246 244.158C462.264 242.527 460.94 241.588 459.31 241.366C458.874 241.305 458.476 241.703 458.428 242.252C458.38 242.802 458.698 243.295 459.137 243.355C460.326 243.516 461.251 244.172 461.966 245.359C464.6 249.732 463.294 259.39 463.281 259.487C463.206 260.031 463.497 260.55 463.932 260.644C463.978 260.653 464.025 260.658 464.07 260.658Z" fill="#3051A1"/>
<path d="M464.135 240.027L490.332 227.101L487.067 208.703L458.158 233.699C458.158 233.699 453.566 237.662 452.374 238.379C451.181 239.095 451.748 243.906 452.36 244.705C453.07 245.633 454.313 245.972 455.73 245.306C456.621 246.046 457.85 245.297 457.85 245.297C459.106 245.143 459.843 244.159 460.226 243.411C460.837 242.216 459.435 242.179 459.435 242.179L459.91 241.572L461.155 241.998L464.135 240.027Z" fill="#FFAEA5"/>
<path d="M518.708 162.13C518.708 162.13 521.28 182.943 517.395 198.573C513.51 214.203 492.627 194.416 492.627 194.416L493.691 154.016C493.691 154.016 512.999 154.285 518.708 162.13Z" fill="#3051A1"/>
<path d="M507.88 375.261L508.28 383.636C508.28 383.636 497.878 387.873 497.886 389.711C501.876 389.686 518.73 389.391 518.73 389.391L517.607 373.867L507.88 375.261Z" fill="#FFCB61"/>
<path d="M466.54 372.078L466.092 382.988C466.092 382.988 457.433 386.969 457.406 388.807C461.395 388.899 476.635 389.308 476.635 389.308L476.789 372.297L466.54 372.078Z" fill="#FFCB61"/>
<path d="M464.763 375.272L471.091 375.522L471.899 375.552L478.067 375.752L484.995 315.162L492.227 288.132L505.619 377.252L518.891 377.182L514.763 310.562C514.763 310.562 516.467 274.142 512.499 258.132C496.547 254.892 478.155 255.072 478.155 255.072C478.155 255.072 469.699 298.262 468.459 305.932C467.459 312.082 464.763 375.272 464.763 375.272Z" fill="#3051A1"/>
<path d="M478.147 255.073C486.027 259.553 512.491 258.133 512.491 258.133C512.491 258.133 514.963 240.203 516.467 235.673C521.915 219.243 525.859 208.583 522.067 196.613C519.331 187.983 508.827 184.903 508.827 184.903C508.827 184.903 498.923 181.283 490.635 190.423C486.963 194.473 483.251 208.523 480.843 224.003C479.875 230.223 479.115 236.673 478.659 242.793C478.323 247.113 478.147 251.273 478.147 255.073Z" fill="#35AEB9"/>
<path opacity="0.2" d="M478.658 242.798C481.578 244.488 486.81 246.268 492.626 242.368C501.514 236.398 505.594 214 505.594 214L480.794 222.5C479.826 228.72 479.114 236.678 478.658 242.798Z" fill="#3C2F71"/>
<path d="M500.301 175.784L500.469 185.176L498.152 186.473V197.579C498.152 197.579 506.75 191.532 512.551 188.768L510.27 185.903L511.3 170.711" fill="#FFBDB4"/>
<path d="M496.41 157.609C496.41 157.609 494.544 166.34 494.659 171.223C494.773 176.106 496.406 180.733 500.658 180.256C504.911 179.779 508.982 176.55 510.358 172.298C512.155 172.979 514.523 169.667 514.516 166.747C514.508 163.827 512.458 164.078 511.687 165.509C510.916 166.94 509.881 166.045 509.881 166.045L510.021 160.569C510.021 160.569 502.24 160.33 496.41 157.609Z" fill="#FFBDB4"/>
<path d="M494.372 152.276L512.981 159.807L518.704 162.127C521.373 156.155 519.638 149.626 514.451 145.906C512.8 144.724 510.8 143.828 508.48 143.323C497.661 140.965 494.372 152.276 494.372 152.276Z" fill="#FFE698"/>
<path opacity="0.2" d="M512.985 159.807L518.708 162.127C521.377 156.155 519.642 149.626 514.455 145.906C515.238 149.881 515.359 154.942 512.985 159.807Z" fill="#62458B"/>
<path d="M497.457 163.57C497.457 164.092 497.191 164.516 496.864 164.516C496.537 164.516 496.271 164.093 496.271 163.57C496.271 163.047 496.537 162.625 496.864 162.625C497.191 162.624 497.457 163.048 497.457 163.57Z" fill="#2A3F7A"/>
<path d="M503.223 164.898C503.223 165.42 502.957 165.843 502.63 165.843C502.303 165.843 502.037 165.42 502.037 164.898C502.037 164.376 502.303 163.953 502.63 163.953C502.957 163.952 503.223 164.376 503.223 164.898Z" fill="#2A3F7A"/>
<path d="M498.967 169.052C499.367 169.052 499.812 168.977 500.081 168.696C500.165 168.608 500.177 168.45 500.106 168.344C500.035 168.239 499.909 168.225 499.825 168.312C499.565 168.582 498.9 168.581 498.417 168.506L499.774 163.369C499.809 163.238 499.752 163.096 499.647 163.053C499.541 163.007 499.429 163.081 499.394 163.212L497.891 168.901L498.116 168.954C498.189 168.972 498.554 169.052 498.967 169.052Z" fill="#EE6F79"/>
<path d="M505.224 163.124C505.347 163.124 505.467 163.054 505.546 162.922C505.678 162.7 505.641 162.387 505.463 162.222C503.751 160.631 502.235 160.941 502.171 160.956C501.953 161.004 501.807 161.263 501.847 161.535C501.884 161.806 502.086 161.988 502.308 161.941C502.366 161.93 503.569 161.708 504.987 163.025C505.058 163.092 505.142 163.124 505.224 163.124Z" fill="#2A3F7A"/>
<path d="M498.596 161.026C498.759 161.026 498.912 160.9 498.972 160.697C499.048 160.438 498.94 160.151 498.732 160.056C496.727 159.145 495.345 159.984 495.288 160.021C495.09 160.145 495.01 160.445 495.109 160.692C495.208 160.938 495.445 161.039 495.644 160.916C495.693 160.886 496.797 160.24 498.46 160.996C498.504 161.016 498.55 161.026 498.596 161.026Z" fill="#2A3F7A"/>
<path d="M502.85 169.422L498.15 171.262C498.15 171.262 499.417 173.562 501.42 172.386C503.424 171.21 502.85 169.422 502.85 169.422Z" fill="white"/>
<path d="M518.711 162.132L486.996 153.995C486.996 153.995 487.546 151.091 493.758 151.843C511.713 154.018 518.711 162.132 518.711 162.132Z" fill="#FFCB61"/>
<path d="M462.816 173.871L460.66 160.129L457.651 161.168L459.738 175.168C459.981 176.737 461.1 177.59 461.99 176.885C462.684 176.334 463.026 175.092 462.816 173.871Z" fill="#3051A1"/>
<path d="M505.36 213.81L501.652 196.873L479.789 204.474L468.801 181.279C468.801 181.279 469.207 175.926 467.698 174.462C466.19 172.997 462.918 171.899 462.918 171.899C462.918 171.899 460.427 171.3 460.443 174.095C459.74 174.29 458.994 175.565 459.472 176.933C458.519 177.202 458.877 180.197 459.324 182.031C459.728 183.689 473.765 222.841 473.765 222.841C476.523 225.905 505.36 213.81 505.36 213.81Z" fill="#FFBDB4"/>
<path d="M461.999 169L459.263 150.359L456.121 151.359L459.196 170.5C459.196 170.5 459.673 171.289 460.8 171C461.568 170.632 462.101 170.022 461.999 169Z" fill="#3051A1"/>
<g filter="url(#filter1_d_2540_7106)">
<path d="M448.394 138.93L448.986 146.46L453.618 145.89L461.138 144.97L464.53 144.55C466.194 144.34 467.41 142.49 467.242 140.41C467.09 138.46 465.778 137 464.242 137C464.146 137 464.042 137.01 463.938 137.02L460.202 137.48L452.578 138.42L448.394 138.93Z" fill="#FFCB61"/>
</g>
<path d="M448.396 138.926C444.921 139.353 445.704 146.861 448.989 146.457C452.699 146.001 452.116 138.468 448.396 138.926Z" fill="#FFAA61"/>
<path d="M462.26 148.403L447.296 150.364L446.427 143.905L448.367 143.664C448.367 143.664 449.117 142.692 448.319 141.797C447.35 141.837 445.969 141.992 445.248 142.079C444.976 142.112 444.779 142.407 444.796 142.746L446.112 153.073L462.625 150.795C462.625 150.795 463.308 149.428 462.26 148.403Z" fill="#3051A1"/>
<path d="M468.754 262.051L465.856 295.366C465.682 297.374 459.574 298.192 452.214 297.192C444.854 296.192 439.029 293.753 439.204 291.745L442.102 258.43L468.754 262.051Z" fill="#FF9F61"/>
<path d="M442.102 258.432C441.928 260.44 447.752 262.879 455.112 263.879C462.472 264.879 468.58 264.062 468.754 262.053C468.928 260.045 463.104 257.606 455.744 256.606C448.385 255.607 442.277 256.424 442.102 258.432Z" fill="#FFCB61"/>
<path d="M444.578 258.765C444.473 259.973 449.246 261.612 455.239 262.426C461.232 263.24 466.175 262.921 466.28 261.714C466.384 260.506 461.612 258.867 455.619 258.053C449.626 257.238 444.683 257.557 444.578 258.765Z" fill="#FF9800"/>
<path d="M444.059 265.712C444.476 265.712 444.828 265.307 444.856 264.777C445.519 252.146 448.393 246.627 450.688 244.22C453.037 241.758 455.184 242.024 455.274 242.034C455.707 242.092 456.107 241.703 456.159 241.157C456.21 240.611 455.902 240.116 455.465 240.049C455.351 240.03 452.605 239.644 449.717 242.629C445.997 246.474 443.824 253.882 443.259 264.647C443.231 265.198 443.564 265.674 444.006 265.71C444.023 265.711 444.041 265.712 444.059 265.712Z" fill="#3051A1"/>
<path d="M457.574 239.578C457.574 239.578 456.052 242.345 455.642 243.184C455.233 244.022 452.976 244.647 453.317 242.974C453.659 241.301 454.831 238.332 454.831 238.332C454.831 238.332 457.173 236.87 457.574 239.578Z" fill="#FFAEA5"/>
<path d="M442.208 264.467C442.319 263.189 443.238 262.265 444.26 262.404C445.283 262.543 446.022 263.692 445.911 264.97C445.8 266.248 444.88 267.172 443.858 267.033C442.835 266.894 442.096 265.745 442.208 264.467Z" fill="#3051A1"/>
<path d="M512.983 162.899L512.358 180.291C506.748 171.916 510.022 160.57 510.022 160.57L512.983 162.899Z" fill="#3051A1"/>
<path opacity="0.2" d="M471.899 375.557L478.067 375.757L484.995 315.167L492.227 288.137L486.995 269.977L476.787 310.977L471.899 375.557Z" fill="#3C2F71"/>
</g>
<defs>
<filter id="filter0_d_2540_7106" x="416.004" y="378" width="7.5" height="16" filterUnits="userSpaceOnUse" color-interpolation-filters="sRGB">
<feFlood flood-opacity="0" result="BackgroundImageFix"/>
<feColorMatrix in="SourceAlpha" type="matrix" values="0 0 0 0 0 0 0 0 0 0 0 0 0 0 0 0 0 0 127 0" result="hardAlpha"/>
<feOffset dx="1" dy="1"/>
<feGaussianBlur stdDeviation="0.25"/>
<feComposite in2="hardAlpha" operator="out"/>
<feColorMatrix type="matrix" values="0 0 0 0 0 0 0 0 0 0 0 0 0 0 0 0 0 0 0.1 0"/>
<feBlend mode="normal" in2="BackgroundImageFix" result="effect1_dropShadow_2540_7106"/>
<feBlend mode="normal" in="SourceGraphic" in2="effect1_dropShadow_2540_7106" result="shape"/>
</filter>
<filter id="filter1_d_2540_7106" x="444.395" y="137" width="26.8633" height="17.4609" filterUnits="userSpaceOnUse" color-interpolation-filters="sRGB">
<feFlood flood-opacity="0" result="BackgroundImageFix"/>
<feColorMatrix in="SourceAlpha" type="matrix" values="0 0 0 0 0 0 0 0 0 0 0 0 0 0 0 0 0 0 127 0" result="hardAlpha"/>
<feOffset dy="4"/>
<feGaussianBlur stdDeviation="2"/>
<feComposite in2="hardAlpha" operator="out"/>
<feColorMatrix type="matrix" values="0 0 0 0 0 0 0 0 0 0 0 0 0 0 0 0 0 0 0.25 0"/>
<feBlend mode="normal" in2="BackgroundImageFix" result="effect1_dropShadow_2540_7106"/>
<feBlend mode="normal" in="SourceGraphic" in2="effect1_dropShadow_2540_7106" result="shape"/>
</filter>
<clipPath id="clip0_2540_7106">
<rect width="600" height="500" rx="50" fill="white"/>
</clipPath>
</defs>
</svg>
