<svg width="600" height="500" viewBox="0 0 600 500" fill="none" xmlns="http://www.w3.org/2000/svg">
<g clip-path="url(#clip0_2540_7105)">
<path d="M600 0H0V500H600V0Z" fill="white"/>
<path d="M20.0101 377.016C20.0101 377.016 -15.8091 421.903 62.6229 423.014C141.055 424.125 100.067 454.725 172.181 473.163C277.149 500 324.47 439.697 395.394 445.649C539.083 457.708 609.778 429.943 572.878 377.016" fill="#3C3563"/>
<path d="M572.88 360.484H20.0117V377.016H572.88V360.484Z" fill="#6B96F6"/>
<path d="M439.477 340.141H428.738V353.564H439.477V340.141Z" fill="#DEE6ED"/>
<path d="M435.038 344.242C435.038 343.599 434.621 343.078 434.107 343.078C433.593 343.078 433.176 343.599 433.176 344.242C433.176 344.885 433.593 345.405 434.107 345.405C434.621 345.405 435.038 344.885 435.038 344.242Z" fill="#3C3563"/>
<path d="M435.038 348.702C435.038 348.059 434.621 347.539 434.107 347.539C433.593 347.539 433.176 348.06 433.176 348.702C433.176 349.345 433.593 349.866 434.107 349.866C434.621 349.866 435.038 349.344 435.038 348.702Z" fill="#3C3563"/>
<path d="M101.195 340.141H90.457V353.564H101.195V340.141Z" fill="#DEE6ED"/>
<path d="M95.8249 345.404C96.3388 345.404 96.7553 344.883 96.7553 344.241C96.7553 343.599 96.3388 343.078 95.8249 343.078C95.3111 343.078 94.8945 343.599 94.8945 344.241C94.8945 344.883 95.3111 345.404 95.8249 345.404Z" fill="#3C3563"/>
<path d="M95.8249 349.865C96.3388 349.865 96.7553 349.344 96.7553 348.702C96.7553 348.06 96.3388 347.539 95.8249 347.539C95.3111 347.539 94.8945 348.06 94.8945 348.702C94.8945 349.344 95.3111 349.865 95.8249 349.865Z" fill="#3C3563"/>
<path opacity="0.2" d="M494.528 410.273C534.63 410.273 567.139 405.777 567.139 400.23C567.139 394.684 534.63 390.188 494.528 390.188C454.427 390.188 421.918 394.684 421.918 400.23C421.918 405.777 454.427 410.273 494.528 410.273Z" fill="#432F7E"/>
<path d="M395.887 96.2422H388.016V131.201H395.887V96.2422Z" fill="#3C2F71"/>
<path d="M383.551 98.7188H378.832V131.204H383.551V98.7188Z" fill="#FFAA61"/>
<path d="M383.551 120.289H378.832V124.438H383.551V120.289Z" fill="#FFCB61"/>
<path d="M378.846 100.051L372.945 99.2109L370.007 131.445L375.908 132.286L378.846 100.051Z" fill="#FFCB61"/>
<path opacity="0.2" d="M393.009 103.938H389.27V122.358H393.009V103.938Z" fill="#3C2F71"/>
<path d="M399.398 129.75H321.273V140.891H399.398V129.75Z" fill="#6B96F6"/>
<path opacity="0.2" d="M399.398 137.406H321.273V140.894H399.398V137.406Z" fill="#3C2F71"/>
<path d="M336.426 163.328C334.538 163.328 333.008 161.415 333.008 159.055V140.891H339.845V159.055C339.845 161.414 338.314 163.328 336.426 163.328Z" fill="#3051A1"/>
<path d="M384.594 163.328C382.706 163.328 381.176 161.415 381.176 159.055V140.891H388.013V159.055C388.013 161.414 386.482 163.328 384.594 163.328Z" fill="#3051A1"/>
<path d="M298.142 82.8438H248.152V154.263H298.142V82.8438Z" fill="#FFE698"/>
<path d="M293.132 89.25H253.16V147.853H293.132V89.25Z" fill="#FFCB61"/>
<path d="M84.9583 45.4297H34.9688V86.8467H84.9583V45.4297Z" fill="#FFE698"/>
<path d="M79.9486 51.8359H39.9766V80.4369H79.9486V51.8359Z" fill="#FFCB61"/>
<path d="M145.818 45.4297H95.8281V86.8467H145.818V45.4297Z" fill="#FFE698"/>
<path d="M140.808 51.8359H100.836V80.4369H140.808V51.8359Z" fill="white"/>
<path d="M78.8848 174.263C78.8848 174.263 76.0848 175.393 73.8512 172.231C71.6176 169.069 64.6768 156.355 70.28 148.673C75.8832 140.991 87.1184 142.714 91.2416 138.788C95.364 134.862 97.5584 148.848 93.488 153.578C95.3992 155.844 93.6408 162.801 89.9344 163.637" fill="#2A3F7A"/>
<path d="M101.998 198L113.443 203.738L119.624 182.444C119.624 182.444 117.978 177.42 121.307 173.637L121.506 175.683C122.388 174.577 123.836 172.519 123.836 172.519C124.114 172.535 124.937 174.311 125.574 175.308C126.951 177.458 129.149 178.616 125.777 185.417C125.777 185.417 120.913 221.989 115.074 224.241C112.692 225.16 96.992 211.389 96.992 211.389" fill="#FFADA2"/>
<path d="M95.4453 189.945L106.433 199.825L99.0221 214.165L95.4453 189.945Z" fill="#2F99B1"/>
<path d="M130.027 202.592C130.027 202.592 131.224 197.288 134.396 196.381C137.568 195.475 136.733 197.389 135.665 199.088C134.808 200.45 134.306 201.479 134.306 201.479" fill="#FFBDB4"/>
<path d="M142.258 192.379L142.118 192L139.478 193.445L139.291 192.75L138.398 193.273L139.038 195.433L139.871 194.909L139.613 193.948L142.258 192.379Z" fill="#6B96F6"/>
<path opacity="0.2" d="M93.1712 404.825C128.299 404.825 156.776 401.258 156.776 396.858C156.776 392.458 128.299 388.891 93.1712 388.891C58.0432 388.891 29.5664 392.458 29.5664 396.858C29.5664 401.258 58.0432 404.825 93.1712 404.825Z" fill="#432F7E"/>
<path d="M46.7417 378.829L42.2065 385.933C42.2065 385.933 49.3025 397.798 48.3785 399.42C44.8569 396.285 31.4961 384.127 31.4961 384.127L38.8233 370.008L46.7417 378.829Z" fill="#6B96F6"/>
<path d="M130.796 378.445L133.083 387.818C133.083 387.818 148.189 392.018 148.413 393.989C144.133 394.75 125.211 398.112 125.211 398.112L120.66 380.247L130.796 378.445Z" fill="#6B96F6"/>
<path d="M35.4922 371.466L47.1578 383.106C47.1578 383.106 76.7426 343.465 81.1834 333.724C85.6306 323.974 91.9866 298.325 91.9866 298.325L104.576 326.873L118.794 384.312L126.272 382.909L134.763 381.318C134.763 381.318 124.747 335.22 122.297 321.313C119.841 307.415 108.798 263.258 108.798 263.258C108.798 263.258 92.1146 263.295 74.8386 266.801C71.4586 278.39 63.5306 326.871 63.5306 326.871L35.4922 371.466Z" fill="#3051A1"/>
<path d="M108.797 263.263C100.26 268.116 73.325 266.567 73.325 266.567C73.325 266.567 71.5834 257.164 68.1082 240.329C66.505 232.54 65.1874 224.014 64.5986 216.193C63.897 207.093 64.1826 198.958 66.1154 194.115C69.721 185.134 77.2954 182.914 77.2954 182.914C77.2954 182.914 86.317 181.766 91.7858 186.424C96.3274 190.281 97.4538 194.235 99.9066 204.797C100.548 207.538 101.259 211.958 102.073 217.591C103.087 224.567 104.257 233.396 105.627 243.179C105.722 243.851 105.817 244.522 105.912 245.205C106.743 251.065 107.705 257.153 108.797 263.263Z" fill="#35AEB9"/>
<path d="M105.626 243.173C75.4146 237.518 71.957 209.352 71.957 209.352L82.201 214.281L102.073 217.585C103.087 224.561 104.256 233.391 105.626 243.173Z" fill="#2F99B1"/>
<path d="M86.2795 173.609L87.5211 184.015C87.5211 184.015 91.6699 190.639 88.1067 192.866C84.3483 195.215 77.3955 187.72 76.9859 183.782C76.5763 179.844 74.6211 167.531 74.6211 167.531" fill="#FFBDB4"/>
<path d="M90.7558 153.336C90.7558 153.336 92.7774 162.794 92.6526 168.084C92.5286 173.374 90.7598 178.386 86.1535 177.87C81.547 177.354 77.1358 173.855 75.6446 169.249C73.6974 169.987 71.1326 166.399 71.1406 163.236C71.1486 160.073 73.3694 160.344 74.2054 161.895C75.0414 163.446 76.2302 165.149 76.2302 165.149L76.0094 156.543C76.0094 156.543 83.119 157.738 90.7558 153.336Z" fill="#FFBDB4"/>
<path d="M89.6211 159.797C89.6211 160.363 89.9083 160.821 90.2635 160.821C90.6179 160.821 90.9059 160.362 90.9059 159.797C90.9059 159.231 90.6187 158.773 90.2635 158.773C89.9083 158.773 89.6211 159.231 89.6211 159.797Z" fill="#2A3F7A"/>
<path d="M84.0174 162.259C84.3722 162.259 84.6598 161.8 84.6598 161.235C84.6598 160.669 84.3722 160.211 84.0174 160.211C83.6626 160.211 83.375 160.669 83.375 161.235C83.375 161.8 83.6626 162.259 84.0174 162.259Z" fill="#2A3F7A"/>
<path d="M87.9842 165.711C87.5546 165.711 87.0786 165.63 86.7906 165.331C86.7058 165.243 86.6946 165.085 86.765 164.979C86.8362 164.874 86.9626 164.86 87.0466 164.947C87.3618 165.275 88.1426 165.233 88.6034 165.158L87.1274 159.571C87.0922 159.44 87.1498 159.298 87.2546 159.255C87.3618 159.211 87.4722 159.283 87.5074 159.414L89.1298 165.554L88.905 165.607C88.8258 165.624 88.4298 165.711 87.9842 165.711Z" fill="#EE6F79"/>
<path d="M81.2055 159.27C81.0831 159.27 80.9623 159.2 80.8839 159.068C80.7519 158.846 80.7887 158.533 80.9663 158.368C82.8103 156.655 84.4399 156.99 84.5079 157.004C84.7255 157.052 84.8711 157.311 84.8319 157.583C84.7943 157.854 84.5919 158.037 84.3703 157.989C84.3119 157.979 82.9951 157.729 81.4431 159.171C81.3719 159.238 81.2887 159.27 81.2055 159.27Z" fill="#2A3F7A"/>
<path d="M87.5215 156.996C87.3583 156.996 87.2047 156.87 87.1455 156.667C87.0695 156.408 87.1767 156.121 87.3847 156.026C89.5439 155.045 91.0279 155.947 91.0903 155.986C91.2879 156.11 91.3679 156.41 91.2687 156.657C91.1703 156.904 90.9311 157.003 90.7335 156.881C90.6791 156.847 89.4743 156.141 87.6583 156.966C87.6135 156.986 87.5671 156.996 87.5215 156.996Z" fill="#2A3F7A"/>
<path d="M83.778 166.133L88.8692 168.126C88.8692 168.126 87.4964 170.617 85.326 169.344C83.1556 168.071 83.778 166.133 83.778 166.133Z" fill="white"/>
<path opacity="0.2" d="M91.9844 298.323L104.573 326.871L118.791 384.31L126.269 382.907L113.208 336.57L97.3548 280.859L91.9844 298.323Z" fill="#3C2F71"/>
<path d="M87.6769 198.978L82.3984 213.99C82.3984 213.99 97.3481 226 103.028 226C108.707 226 133.38 208.488 133.38 208.488C133.38 208.488 136.502 206.336 137.76 203.132C138.603 202.332 138.946 200.254 138.528 199.917C138.79 198.962 138.734 197.914 138.006 197.474C138.006 197.474 140.83 194.823 140.798 194.342C140.686 192.662 132.934 197.561 129.671 200.524L103.925 209.442L87.6769 198.978Z" fill="#FFBDB4"/>
<path d="M128.371 185.205L128.152 185.276C127.425 185.509 126.617 184.958 126.348 184.045L119.483 160.709L122.336 159.794L129.201 183.13C129.469 184.043 129.098 184.972 128.371 185.205Z" fill="#3C3563"/>
<path d="M125.444 169.734C125.444 169.734 122.339 172.384 122.797 173.843C123.256 175.303 124.956 174.458 124.956 174.458C124.956 174.458 124.274 175.219 124.544 176.115C124.814 177.011 125.607 176.759 125.607 176.759C125.607 176.759 125.13 177.48 125.389 178.124C125.647 178.767 126.126 178.571 126.126 178.571C126.126 178.571 125.818 179.496 126.418 179.999C127.019 180.502 128.261 178.546 128.715 177.362C129.168 176.179 128.585 175.27 128.585 175.27C128.585 175.27 128.455 174.076 128.126 173.81C128.67 172.89 127.321 172.22 127.321 172.22C127.321 172.22 127.236 168.718 125.444 169.734Z" fill="#FFADA2"/>
<path d="M127.42 160.152L115.481 163.742L113.749 158.154L121.777 155.739L124.807 157.882L126.833 158.26L127.42 160.152Z" fill="#FFE698"/>
<path d="M109.126 258.555L110.008 265.718L72.1739 273.388L71.9531 263.391L109.126 258.555Z" fill="#3C3563"/>
<path d="M80.7836 270.401L76.174 259.177L75.0732 258.228L74.1836 254.913L74.9444 254.594L76.6564 256.771L76.7644 258.576L81.7132 270.011" fill="#E9EEF3"/>
<path d="M82.6704 268.951C82.6704 268.951 79.5064 259.097 79.2344 257.539C78.9624 255.981 81.6168 255.568 81.9408 256.658C82.2648 257.748 84.812 266.929 84.812 266.929" fill="#FFC16B"/>
<path d="M85.2286 269.081C85.2286 269.081 84.0374 258.568 84.071 256.973C84.1046 255.379 86.7606 255.77 86.867 256.925C86.9734 258.08 87.6934 267.756 87.6934 267.756" fill="#FFC16B"/>
<path d="M83.4424 266.829C83.4424 266.829 76.8256 266.147 76.1936 269.072C75.5616 271.997 73.7608 293.807 81.892 294.457C90.0232 295.107 89.2304 266.578 89.2304 266.578L83.4424 266.829Z" fill="#3C3563"/>
<path d="M91.0625 260.644L92.0321 270.079L94.8657 269.505L94.1673 260.086L91.0625 260.644Z" fill="#3051A1"/>
<path d="M101.012 259.252L101.828 267.722L105.331 267.154L104.373 258.648L101.012 259.252Z" fill="#3051A1"/>
<path d="M207.3 80.6094V131.489C207.3 134.529 205.332 136.989 202.9 136.989C200.476 136.989 198.5 134.529 198.5 131.489V80.6094C198.5 78.5394 199.428 76.7194 200.788 75.7894C201.236 75.4794 201.724 75.2694 202.244 75.1794C202.46 75.1294 202.676 75.1094 202.9 75.1094C205.332 75.1094 207.3 77.5794 207.3 80.6094Z" fill="#6B96F6"/>
<path d="M216.551 88.4219V95.8219C216.551 98.9819 215.287 101.782 213.351 103.462C212.999 103.772 212.623 104.042 212.231 104.262C211.287 104.812 210.223 105.122 209.111 105.122H202.903C201.143 105.122 199.703 103.332 199.703 101.122C199.703 98.9119 201.143 97.1219 202.903 97.1219H209.111C209.687 97.1219 210.151 96.5419 210.151 95.8219V88.4219C210.151 86.7019 211.015 85.2419 212.231 84.6819C212.575 84.5119 212.959 84.4219 213.351 84.4219C215.119 84.4219 216.551 86.2119 216.551 88.4219Z" fill="#6B96F6"/>
<path d="M206.102 112.148C206.102 114.358 204.67 116.148 202.902 116.148H197.694C195.838 116.148 194.134 115.298 192.83 113.878C192.374 113.388 191.974 112.838 191.63 112.228C190.758 110.708 190.254 108.858 190.254 106.848V91.3281C190.254 89.9681 190.798 88.7681 191.63 88.0481C191.982 87.7381 192.39 87.5181 192.83 87.4081C193.03 87.3581 193.238 87.3281 193.454 87.3281C195.222 87.3281 196.654 89.1181 196.654 91.3281V106.848C196.654 107.568 197.118 108.148 197.694 108.148H202.902C204.67 108.148 206.102 109.938 206.102 112.148Z" fill="#6B96F6"/>
<path opacity="0.2" d="M202.249 75.1797V127.55H200.793V75.7897C201.241 75.4797 201.729 75.2697 202.249 75.1797Z" fill="#3C2F71"/>
<path opacity="0.2" d="M192.833 87.4062V113.876C192.377 113.386 191.977 112.836 191.633 112.226V88.0462C191.985 87.7362 192.393 87.5162 192.833 87.4062Z" fill="#3C2F71"/>
<path opacity="0.2" d="M213.35 84.4219V103.462C212.998 103.772 212.622 104.042 212.23 104.262V84.6819C212.574 84.5119 212.958 84.4219 213.35 84.4219Z" fill="#3C2F71"/>
<path d="M216.32 122C216.24 123.95 215.912 125.82 215.376 127.55C214.944 128.96 214.368 130.28 213.68 131.49C211.128 136.02 206.952 138.96 202.248 138.96C197.544 138.96 193.376 136.02 190.824 131.49C190.136 130.28 189.56 128.96 189.128 127.55C188.592 125.82 188.264 123.95 188.184 122H216.32Z" fill="#3C3563"/>
<path opacity="0.2" d="M215.377 127.547C214.945 128.957 214.369 130.277 213.681 131.487H190.825C190.137 130.277 189.561 128.957 189.129 127.547H215.377Z" fill="#3C2F71"/>
<path d="M218.517 137.406H146.84V381.787H218.517V137.406Z" fill="#FFCB61"/>
<path d="M166.052 137.406H146.84V381.787H166.052V137.406Z" fill="#FFE698"/>
<path d="M218.516 172.062H166.051V176.878H218.516V172.062Z" fill="#FFE698"/>
<path d="M218.516 232.883H166.051V237.699H218.516V232.883Z" fill="#FFE698"/>
<path d="M218.516 293.703H166.051V298.519H218.516V293.703Z" fill="#FFE698"/>
<path d="M213.915 302.508H170.59V374.621H213.915V302.508Z" fill="#FFE698"/>
<path d="M194.27 302.508H192.117V375.362H194.27V302.508Z" fill="#FFCB61"/>
<path d="M187.274 337.834C187.274 340.249 185.708 342.207 183.776 342.207C181.844 342.207 180.277 340.249 180.277 337.834C180.277 335.419 181.844 333.461 183.776 333.461C185.708 333.461 187.274 335.418 187.274 337.834Z" fill="white"/>
<path d="M205.036 337.834C205.036 340.249 203.469 342.207 201.537 342.207C199.605 342.207 198.039 340.249 198.039 337.834C198.039 335.419 199.605 333.461 201.537 333.461C203.469 333.461 205.036 335.418 205.036 337.834Z" fill="white"/>
<path d="M162.65 174.465C162.65 173.665 162.131 173.016 161.491 173.016C160.851 173.016 160.332 173.665 160.332 174.465C160.332 175.265 160.851 175.914 161.491 175.914C162.131 175.914 162.65 175.266 162.65 174.465Z" fill="#6B96F6"/>
<path d="M162.65 235.59C162.65 234.79 162.131 234.141 161.491 234.141C160.851 234.141 160.332 234.79 160.332 235.59C160.332 236.39 160.851 237.039 161.491 237.039C162.131 237.038 162.65 236.39 162.65 235.59Z" fill="#6B96F6"/>
<path d="M149.483 237.039C150.124 237.039 150.643 236.39 150.643 235.59C150.643 234.789 150.124 234.141 149.483 234.141C148.843 234.141 148.324 234.789 148.324 235.59C148.324 236.39 148.843 237.039 149.483 237.039Z" fill="#6B96F6"/>
<path opacity="0.2" d="M218.516 237.703H208.188V293.71H218.516V237.703Z" fill="#B92F71"/>
<path opacity="0.2" d="M218.516 177.008H208.188V232.885H218.516V177.008Z" fill="#B92F71"/>
<path opacity="0.2" d="M218.516 137.445H208.188V172.065H218.516V137.445Z" fill="#B92F71"/>
<path opacity="0.2" d="M298.384 410.273C338.485 410.273 370.994 405.777 370.994 400.23C370.994 394.684 338.485 390.188 298.384 390.188C258.282 390.188 225.773 394.684 225.773 400.23C225.773 405.777 258.282 410.273 298.384 410.273Z" fill="#432F7E"/>
<path d="M421.92 268.172H340.652V388.209H421.92V268.172Z" fill="#FFE698"/>
<path d="M410.201 351.533C417.004 331.576 409.576 308.504 393.61 300C377.644 291.497 359.187 300.782 352.384 320.739C345.581 340.696 353.009 363.768 368.975 372.272C384.941 380.775 403.398 371.49 410.201 351.533Z" fill="#FFCB61"/>
<path d="M385.147 366.197C398.428 363.529 407.463 347.909 405.328 331.308C403.193 314.708 390.697 303.414 377.417 306.083C364.137 308.751 355.102 324.371 357.236 340.971C359.371 357.572 371.867 368.866 385.147 366.197Z" fill="#6B96F6"/>
<path d="M355.397 277.008H346.074V280.965H355.397V277.008Z" fill="#6B96F6"/>
<path d="M415.009 277.008H411.246V280.965H415.009V277.008Z" fill="#6B96F6"/>
<path d="M409.404 277.008H405.641V280.965H409.404V277.008Z" fill="#6B96F6"/>
<path d="M421.92 284.281H340.652V288.916H421.92V284.281Z" fill="#FFCB61"/>
<path d="M399.401 330.289C399.401 332.714 397.828 334.68 395.888 334.68C393.948 334.68 392.375 332.714 392.375 330.289C392.375 327.864 393.948 325.898 395.888 325.898C397.828 325.898 399.401 327.864 399.401 330.289Z" fill="white"/>
<path d="M416.46 268.195H395.887V237.008C395.887 230.186 400.311 224.656 405.768 224.656H416.46V268.195Z" fill="#FFCB61"/>
<path d="M416.46 214.883H405.586V228.476H416.46V214.883Z" fill="#FFCB61"/>
<path d="M417.053 212.391H404.945V218.178H417.053V212.391Z" fill="#6B96F6"/>
<path opacity="0.2" d="M408.36 212.391H406.801V218.178H408.36V212.391Z" fill="#3C2F71"/>
<path opacity="0.2" d="M411.778 212.391H410.219V218.178H411.778V212.391Z" fill="#3C2F71"/>
<path opacity="0.2" d="M415.196 212.391H413.637V218.178H415.196V212.391Z" fill="#3C2F71"/>
<path d="M413.952 235.242H401.207V256.525H413.952V235.242Z" fill="#FFE698"/>
<path d="M316.492 236.803C316.492 236.803 310.633 233.653 311.717 227.585C308.308 224.745 309.876 214.449 315.166 214.799C312.637 208.785 321.228 204.76 324.055 209.86C327.778 205.141 333.913 209.055 334.011 212.384C340.447 211.644 338.573 220.072 338.529 220.553C344.763 222.481 340.046 228.157 340.046 228.157C340.046 228.157 340.361 240.145 331.769 236.959" fill="#2A3F7A"/>
<path d="M330.06 274.18L337.185 282.97L340.688 285.166V292.246L320.957 290.205L330.06 274.18Z" fill="#FFAEA5"/>
<path d="M323.949 259.602L332.856 275.028L324.452 293.298L303.875 275.061L323.949 259.602Z" fill="#6284EC"/>
<path d="M325.2 288.845C324.672 294.995 324.032 301.165 323.336 306.225C322.856 309.745 322.36 312.715 321.864 314.775C305.872 322.975 284.496 313.545 284.496 313.545C284.496 313.545 286.016 283.515 293.048 267.865C300.072 252.215 312.92 247.805 312.92 247.805C312.92 247.805 325.984 254.135 326.368 264.045C326.552 268.905 326.04 278.835 325.2 288.845Z" fill="#6B96F6"/>
<path opacity="0.2" d="M325.2 288.85C324.672 295 324.032 301.17 323.336 306.23C301.536 298.39 302.048 274.18 302.048 274.18L325.2 288.85Z" fill="#3C2F71"/>
<path d="M388.367 326.137C391.768 324.365 393.377 319.481 391.96 315.229C390.543 310.977 386.636 308.966 383.234 310.737C379.832 312.509 378.223 317.393 379.641 321.645C381.058 325.897 384.965 327.908 388.367 326.137Z" fill="white"/>
<path d="M324.622 242.813L319.29 262.503L313.182 246.324L317.544 231.062" fill="#FFBDB4"/>
<path d="M335.993 226.823C335.993 226.823 334.556 235.99 332.656 240.394C330.757 244.799 327.514 248.02 323.664 244.928C319.814 241.836 317.045 236.02 317.303 231.263C314.657 229.27 315.591 226.431 316.458 223.959C317.23 221.755 320.267 222.011 319.942 225.749L319.515 228.668L322.832 226.778L322.369 217.644C322.369 217.644 333.305 214.524 335.993 226.823Z" fill="#FFBDB4"/>
<path d="M333.568 230.424C333.377 230.905 333.472 231.461 333.782 231.666C334.09 231.872 334.495 231.647 334.686 231.166C334.877 230.685 334.781 230.129 334.472 229.923C334.164 229.718 333.759 229.942 333.568 230.424Z" fill="#2A3F7A"/>
<path d="M326.287 228.439C326.096 228.92 326.191 229.477 326.5 229.682C326.809 229.887 327.214 229.663 327.405 229.181C327.595 228.7 327.5 228.144 327.191 227.939C326.882 227.734 326.477 227.958 326.287 228.439Z" fill="#2A3F7A"/>
<path d="M330.806 235.698L330.61 235.616C330.47 235.557 329.235 235.018 328.942 234.129C328.901 234.005 328.94 233.863 329.03 233.811C329.119 233.76 329.225 233.819 329.266 233.944C329.426 234.429 330.098 234.853 330.506 235.059L331.055 229.181C331.068 229.049 331.157 228.959 331.254 228.982C331.354 228.994 331.421 229.13 331.409 229.262L330.806 235.698Z" fill="#EE6F79"/>
<path d="M325.439 224.607C325.314 224.54 325.226 224.414 325.222 224.273C325.216 224.066 325.389 223.905 325.61 223.912C327.974 223.988 329.802 224.959 329.879 225.001C330.075 225.106 330.151 225.335 330.051 225.513C329.951 225.69 329.711 225.75 329.515 225.645C329.498 225.635 327.785 224.728 325.631 224.66C325.562 224.657 325.497 224.639 325.439 224.607Z" fill="#2A3F7A"/>
<path d="M335.785 228.676C335.71 228.629 335.648 228.558 335.612 228.467C335.586 228.407 334.98 227.004 333.217 226.967C333.002 226.961 332.818 226.773 332.811 226.541C332.803 226.31 332.971 226.126 333.187 226.13C335.497 226.178 336.294 228.09 336.326 228.171C336.414 228.388 336.324 228.629 336.127 228.71C336.012 228.757 335.887 228.74 335.785 228.676Z" fill="#2A3F7A"/>
<path d="M268.54 399.429L258.006 395.696C258.006 395.696 244.882 401.056 243.812 399.796C246.549 396.166 258.554 381.789 258.554 381.789L268.54 387.782L268.54 399.429Z" fill="white"/>
<path d="M349.202 384.915L349.48 395.834C349.48 395.834 358.075 400.026 358.073 401.863C354.083 401.858 338.84 401.894 338.84 401.894L338.95 384.883L349.202 384.915Z" fill="white"/>
<path d="M352.263 389.801L337.611 391.112L335.666 349.047L312.574 351.897L307.759 401.152H267.601L265.625 385.171L291.507 376.571C291.507 376.571 281.839 323.513 284.499 313.542C301.184 311.042 321.861 314.772 321.861 314.772C321.861 314.772 353.187 326.488 354.731 334.071C355.975 340.15 352.263 389.801 352.263 389.801Z" fill="#3051A1"/>
<path opacity="0.2" d="M312.574 351.899L314.932 331.273L340.141 338.134L345.574 390.885L337.611 391.114L335.666 349.049L312.574 351.899Z" fill="#3C2F71"/>
<path d="M367.902 282.484C368.213 280.611 367.767 278.766 366.83 277.431C366.954 278.009 366.988 278.626 366.884 279.252C366.529 281.391 364.854 282.765 363.142 282.32C361.431 281.876 360.332 279.782 360.687 277.644C360.791 277.018 361.018 276.469 361.316 276C360.031 276.759 359.035 278.23 358.724 280.102C358.198 283.27 359.826 286.371 362.36 287.029C364.894 287.687 367.375 285.652 367.902 282.484Z" fill="#DEE6ED"/>
<path d="M362.585 314.488C362.274 316.361 361.277 317.832 359.993 318.59C360.291 318.121 360.518 317.572 360.622 316.946C360.977 314.807 359.878 312.714 358.167 312.269C356.456 311.825 354.781 313.199 354.426 315.338C354.322 315.964 354.355 316.581 354.479 317.159C353.543 315.824 353.097 313.979 353.408 312.106C353.935 308.938 356.415 306.903 358.95 307.561C361.483 308.219 363.111 311.32 362.585 314.488Z" fill="#DEE6ED"/>
<path d="M360.22 309.926L364.363 284.984L361.255 284.178L357.112 309.119L360.22 309.926Z" fill="#DEE6ED"/>
<path d="M353.872 305.418C353.872 305.418 329.641 303.039 325.301 300.714C315.994 295.726 300.457 274.212 300.457 274.212L310.576 261.328L331.59 285.913L354.811 295.209C354.811 295.209 358.124 291.323 359.455 291.433C360.785 291.543 358.314 295.555 358.314 295.555C358.314 295.555 360.447 295.844 363.863 296.17C364.401 297 364.067 298.597 362.847 298.597C364.401 299 364.001 301.5 362.847 301.5C364.001 302 363.649 304.5 362.557 304.282C362.847 305.418 362.742 306.887 360.21 306.663C357.231 306.399 353.872 305.418 353.872 305.418Z" fill="#FFBDB4"/>
<path d="M329.504 236.849C329.488 236.849 329.473 236.847 329.457 236.842C327.833 236.356 327.263 235.44 327.24 235.401C327.173 235.291 327.19 235.134 327.278 235.051C327.367 234.968 327.492 234.989 327.558 235.098C327.57 235.115 328.09 235.918 329.551 236.355C329.658 236.387 329.725 236.522 329.699 236.656C329.677 236.772 329.594 236.849 329.504 236.849Z" fill="#EE6F79"/>
<path d="M311.207 256.797L328.383 278.986L316.106 296.881L298.602 274.179L311.207 256.797Z" fill="#6B96F6"/>
<path d="M284.495 369.258H224.949V413.079H284.495V369.258Z" fill="#4B67D6"/>
<path opacity="0.2" d="M241.794 369.258H224.949V413.079H241.794V369.258Z" fill="#3C2F71"/>
<path d="M236.936 377.068C236.936 380.143 234.942 382.636 232.482 382.636C230.022 382.636 228.027 380.143 228.027 377.068C228.027 373.993 230.022 371.5 232.482 371.5C234.942 371.5 236.936 373.993 236.936 377.068Z" fill="white"/>
<path d="M234.083 377.067H230.883V356.92C230.883 354.712 232.168 353.964 240.68 353.267C245.652 352.859 252.094 352.625 258.356 352.625C263.993 352.625 268.849 352.813 272.4 353.167C277.532 353.68 279.976 354.372 279.976 356.92V369.255H276.776V357.908C271.465 355.759 239.722 356.51 234.084 358.145V377.067H234.083Z" fill="#3051A1"/>
<path d="M234.37 377.063C234.37 375.759 233.524 374.703 232.482 374.703C231.439 374.703 230.594 375.76 230.594 377.063C230.594 378.366 231.439 379.423 232.482 379.423C233.524 379.423 234.37 378.367 234.37 377.063Z" fill="#3051A1"/>
<path d="M284.494 388.438H241.793V390.065H284.494V388.438Z" fill="#3051A1"/>
<path d="M251.436 397.888C249.62 397.888 248.148 396.048 248.148 393.779V386.227H254.723V393.779C254.723 396.048 253.251 397.888 251.436 397.888Z" fill="white"/>
<path d="M277.24 397.888C275.425 397.888 273.953 396.048 273.953 393.779V386.227H280.528V393.779C280.528 396.048 279.056 397.888 277.24 397.888Z" fill="white"/>
<path d="M274.187 433.914L274.086 433.64C273.752 432.731 274.069 431.655 274.797 431.236L293.377 420.547L294.69 424.114L276.111 434.803C275.382 435.221 274.521 434.823 274.187 433.914Z" fill="#FFCB61"/>
<path d="M295.485 431.417L290.059 416.68L294.678 414.023L298.327 423.933L297.001 427.934L297.048 430.517L295.485 431.417Z" fill="#DEE6ED"/>
<path d="M463.191 40H447.191V175H463.191V40Z" fill="#FFCB61"/>
<path d="M566.308 61.6797H549.883V122.165H566.308V61.6797Z" fill="#FFCB61"/>
<path d="M441.781 40.3906H425.355V128.426H441.781V40.3906Z" fill="#FFCB61"/>
<path d="M404.871 376.645L404.887 410.155C404.887 412.175 410.887 413.805 418.287 413.805C425.695 413.805 431.695 412.165 431.695 410.145V401.325L431.687 388.425V376.625L404.871 376.645Z" fill="white"/>
<path d="M404.875 376.641C404.876 378.661 410.877 380.296 418.281 380.293C425.684 380.29 431.685 378.649 431.685 376.629C431.684 374.609 425.682 372.974 418.279 372.977C410.875 372.98 404.874 374.621 404.875 376.641Z" fill="white"/>
<path d="M407.363 376.642C407.363 377.857 412.25 378.839 418.278 378.837C424.306 378.834 429.193 377.847 429.193 376.633C429.193 375.418 424.306 374.436 418.278 374.438C412.25 374.44 407.363 375.427 407.363 376.642Z" fill="#FFCB61"/>
<path d="M405.504 382.626C405.503 381.34 406.337 380.298 407.366 380.297C408.394 380.297 409.228 381.338 409.229 382.624C409.229 383.91 408.396 384.952 407.367 384.952C406.338 384.954 405.505 383.912 405.504 382.626Z" fill="#3051A1"/>
<path d="M421.691 390.694V403.072C426.828 403.343 431.695 401.322 431.695 401.322L431.687 388.422C431.687 388.422 427.977 390.396 421.691 390.694Z" fill="#FFE698"/>
<path d="M404.879 393.449C401.245 393.449 400.833 390.66 400.794 389.805C400.645 386.57 403.606 382.163 407.274 381.633L407.459 383.619C404.579 384.036 402.298 387.644 402.392 389.689C402.458 391.143 403.782 391.448 404.879 391.448V393.449Z" fill="#3051A1"/>
<path d="M568.937 374.372L568.921 407.882C568.921 409.902 562.921 411.532 555.521 411.532C548.113 411.532 542.113 409.892 542.113 407.872V399.052L542.121 386.152V374.352L568.937 374.372Z" fill="white"/>
<path d="M568.935 374.367C568.934 376.387 562.932 378.022 555.529 378.019C548.126 378.016 542.125 376.376 542.125 374.355C542.126 372.335 548.127 370.7 555.531 370.703C562.934 370.706 568.935 372.347 568.935 374.367Z" fill="white"/>
<path d="M566.443 374.368C566.443 375.583 561.556 376.565 555.528 376.563C549.5 376.56 544.613 375.574 544.613 374.359C544.613 373.144 549.5 372.162 555.528 372.164C561.557 372.166 566.444 373.153 566.443 374.368Z" fill="#FFCB61"/>
<path d="M568.307 380.351C568.307 379.065 567.474 378.023 566.445 378.023C565.416 378.023 564.583 379.064 564.582 380.35C564.582 381.636 565.415 382.678 566.444 382.679C567.472 382.679 568.307 381.637 568.307 380.351Z" fill="#3051A1"/>
<path d="M552.116 388.42V400.798C546.98 401.069 542.113 399.048 542.113 399.048L542.121 386.148C542.121 386.148 545.831 388.122 552.116 388.42Z" fill="#FFE698"/>
<path d="M568.931 391.174V389.174C570.028 389.174 571.351 388.869 571.418 387.415C571.512 385.37 569.232 381.762 566.352 381.345L566.536 379.359C570.204 379.89 573.164 384.297 573.016 387.532C572.976 388.386 572.565 391.174 568.931 391.174Z" fill="#3051A1"/>
<path d="M464.074 260.658C464.456 260.658 464.794 260.316 464.861 259.83C464.921 259.399 466.298 249.225 463.25 244.158C462.268 242.527 460.944 241.588 459.314 241.366C458.878 241.305 458.48 241.703 458.432 242.252C458.384 242.802 458.702 243.295 459.141 243.355C460.33 243.516 461.255 244.172 461.97 245.359C464.604 249.732 463.298 259.39 463.285 259.487C463.21 260.031 463.501 260.55 463.936 260.644C463.982 260.653 464.029 260.658 464.074 260.658Z" fill="#3051A1"/>
<path d="M464.139 240.027L490.336 227.101L487.071 208.703L458.162 233.699C458.162 233.699 453.57 237.662 452.378 238.379C451.185 239.095 451.752 243.906 452.364 244.705C453.074 245.633 454.317 245.972 455.734 245.306C456.625 246.046 457.854 245.297 457.854 245.297C459.11 245.143 459.847 244.159 460.23 243.411C460.841 242.216 459.439 242.179 459.439 242.179L459.914 241.572L461.159 241.998L464.139 240.027Z" fill="#FFAEA5"/>
<path d="M518.716 162.13C518.716 162.13 521.288 182.943 517.403 198.573C513.518 214.203 492.634 194.416 492.634 194.416L493.698 154.016C493.698 154.016 513.007 154.285 518.716 162.13Z" fill="#3051A1"/>
<path d="M507.88 375.261L508.28 383.636C508.28 383.636 497.878 387.873 497.886 389.711C501.876 389.686 518.73 389.391 518.73 389.391L517.607 373.867L507.88 375.261Z" fill="#FFCB61"/>
<path d="M466.544 372.078L466.096 382.988C466.096 382.988 457.437 386.969 457.41 388.807C461.399 388.899 476.639 389.308 476.639 389.308L476.793 372.297L466.544 372.078Z" fill="#FFCB61"/>
<path d="M464.767 375.272L471.095 375.522L471.903 375.552L478.071 375.752L484.999 315.162L492.231 288.132L505.623 377.252L518.895 377.182L514.767 310.562C514.767 310.562 516.471 274.142 512.503 258.132C496.551 254.892 478.159 255.072 478.159 255.072C478.159 255.072 469.703 298.262 468.463 305.932C467.463 312.082 464.767 375.272 464.767 375.272Z" fill="#3051A1"/>
<path d="M478.151 255.073C486.031 259.553 512.495 258.133 512.495 258.133C512.495 258.133 514.967 240.203 516.471 235.673C521.919 219.243 525.863 208.583 522.071 196.613C519.335 187.983 508.831 184.903 508.831 184.903C508.831 184.903 498.927 181.283 490.639 190.423C486.967 194.473 483.255 208.523 480.847 224.003C479.879 230.223 479.119 236.673 478.663 242.793C478.327 247.113 478.151 251.273 478.151 255.073Z" fill="#35AEB9"/>
<path opacity="0.2" d="M478.665 242.798C481.585 244.488 486.817 246.268 492.633 242.368C501.521 236.398 511.176 217.453 511.176 217.453L480.849 224.008C479.881 230.228 479.121 236.678 478.665 242.798Z" fill="#3C2F71"/>
<path d="M500.305 175.784L500.473 185.176L498.155 186.473V197.579C498.155 197.579 506.754 191.532 512.555 188.768L510.274 185.903L511.304 170.711" fill="#FFBDB4"/>
<path d="M496.414 157.609C496.414 157.609 494.548 166.34 494.663 171.223C494.777 176.106 496.41 180.733 500.662 180.256C504.915 179.779 508.986 176.55 510.362 172.298C512.159 172.979 514.527 169.667 514.52 166.747C514.512 163.827 512.462 164.078 511.691 165.509C510.92 166.94 509.885 166.045 509.885 166.045L510.025 160.569C510.025 160.569 502.244 160.33 496.414 157.609Z" fill="#FFBDB4"/>
<path d="M494.376 152.276L512.985 159.807L518.708 162.127C521.377 156.155 519.642 149.626 514.455 145.906C512.804 144.724 510.804 143.828 508.484 143.323C497.665 140.965 494.376 152.276 494.376 152.276Z" fill="#FFE698"/>
<path opacity="0.2" d="M512.985 159.807L518.708 162.127C521.377 156.155 519.642 149.626 514.455 145.906C515.238 149.881 515.359 154.942 512.985 159.807Z" fill="#62458B"/>
<path d="M497.461 163.57C497.461 164.092 497.195 164.516 496.868 164.516C496.541 164.516 496.275 164.093 496.275 163.57C496.275 163.047 496.541 162.625 496.868 162.625C497.195 162.624 497.461 163.048 497.461 163.57Z" fill="#2A3F7A"/>
<path d="M503.223 164.898C503.223 165.42 502.957 165.843 502.63 165.843C502.303 165.843 502.037 165.42 502.037 164.898C502.037 164.376 502.303 163.953 502.63 163.953C502.957 163.952 503.223 164.376 503.223 164.898Z" fill="#2A3F7A"/>
<path d="M498.971 169.052C499.371 169.052 499.816 168.977 500.084 168.696C500.169 168.608 500.18 168.45 500.11 168.344C500.039 168.239 499.912 168.225 499.828 168.312C499.569 168.582 498.904 168.581 498.421 168.506L499.778 163.369C499.812 163.238 499.756 163.096 499.651 163.053C499.545 163.007 499.432 163.081 499.398 163.212L497.895 168.901L498.12 168.954C498.193 168.972 498.558 169.052 498.971 169.052Z" fill="#EE6F79"/>
<path d="M505.228 163.124C505.351 163.124 505.471 163.054 505.55 162.922C505.682 162.7 505.645 162.387 505.467 162.222C503.755 160.631 502.239 160.941 502.175 160.956C501.957 161.004 501.811 161.263 501.851 161.535C501.888 161.806 502.09 161.988 502.312 161.941C502.37 161.93 503.573 161.708 504.991 163.025C505.062 163.092 505.146 163.124 505.228 163.124Z" fill="#2A3F7A"/>
<path d="M498.6 161.026C498.763 161.026 498.916 160.9 498.976 160.697C499.052 160.438 498.944 160.151 498.736 160.056C496.731 159.145 495.349 159.984 495.292 160.021C495.094 160.145 495.014 160.445 495.113 160.692C495.212 160.938 495.449 161.039 495.648 160.916C495.697 160.886 496.801 160.24 498.464 160.996C498.508 161.016 498.554 161.026 498.6 161.026Z" fill="#2A3F7A"/>
<path d="M502.853 169.422L498.153 171.262C498.153 171.262 499.421 173.562 501.424 172.386C503.428 171.21 502.853 169.422 502.853 169.422Z" fill="white"/>
<path d="M518.711 162.132L486.996 153.995C486.996 153.995 487.546 151.091 493.758 151.843C511.713 154.018 518.711 162.132 518.711 162.132Z" fill="#FFCB61"/>
<path d="M465.861 209.36L464.867 199.375L461.724 200.375L462.567 210.063C462.67 211.374 463.744 212.201 464.727 211.728C465.495 211.358 465.963 210.382 465.861 209.36Z" fill="#3051A1"/>
<path d="M511.176 217.448L503.869 202.45L484.537 217.304L468.85 198.805C468.85 198.805 468.057 193.52 466.284 192.634C464.51 191.747 461.123 191.822 461.123 191.822C461.123 191.822 458.597 192.106 459.23 194.786C458.597 195.217 458.162 196.7 458.924 197.849C458.067 198.437 459.073 201.192 459.908 202.8C460.662 204.254 482.805 237.036 482.805 237.036C486.133 239.029 511.176 217.448 511.176 217.448Z" fill="#FFBDB4"/>
<path d="M464.599 193.18L463.605 183.195L460.463 184.195L461.305 193.883C461.305 193.883 462.538 194.473 463.465 195.547C464.233 195.179 464.701 194.202 464.599 193.18Z" fill="#3051A1"/>
<g filter="url(#filter0_d_2540_7105)">
<path d="M452.734 171.766L453.326 179.296L457.958 178.726L465.478 177.806L468.87 177.386C470.534 177.176 471.75 175.326 471.582 173.246C471.43 171.296 470.118 169.836 468.582 169.836C468.486 169.836 468.382 169.846 468.278 169.856L464.542 170.316L456.918 171.256L452.734 171.766Z" fill="#FFCB61"/>
</g>
<path d="M452.736 171.762C449.261 172.189 450.044 179.697 453.329 179.293C457.039 178.837 456.456 171.304 452.736 171.762Z" fill="#FFAA61"/>
<g filter="url(#filter1_d_2540_7105)">
<path d="M466.604 181.239L451.639 183.2L450.771 176.741L452.711 176.5C452.711 176.5 453.461 175.528 452.663 174.633C451.694 174.673 450.313 174.828 449.591 174.915C449.32 174.948 449.123 175.243 449.139 175.582L450.456 185.909L466.969 183.631C466.969 183.631 467.652 182.264 466.604 181.239Z" fill="#3051A1"/>
</g>
<path d="M468.754 262.051L465.856 295.366C465.682 297.374 459.574 298.192 452.214 297.192C444.854 296.192 439.029 293.753 439.204 291.745L442.102 258.43L468.754 262.051Z" fill="#FF9F61"/>
<path d="M442.106 258.432C441.932 260.44 447.756 262.879 455.116 263.879C462.476 264.879 468.584 264.062 468.758 262.053C468.932 260.045 463.108 257.606 455.748 256.606C448.389 255.607 442.281 256.424 442.106 258.432Z" fill="#FFCB61"/>
<path d="M444.582 258.765C444.477 259.973 449.25 261.612 455.243 262.426C461.235 263.24 466.179 262.921 466.283 261.714C466.388 260.506 461.615 258.867 455.623 258.053C449.63 257.238 444.687 257.557 444.582 258.765Z" fill="#FF9800"/>
<path d="M444.062 265.72C444.48 265.72 444.832 265.315 444.86 264.785C445.522 252.154 448.397 246.635 450.692 244.228C453.041 241.766 455.188 242.032 455.278 242.042C455.711 242.1 456.111 241.711 456.162 241.165C456.214 240.619 455.906 240.124 455.469 240.057C455.355 240.038 452.609 239.652 449.721 242.637C446.001 246.482 443.828 253.89 443.263 264.655C443.234 265.206 443.568 265.682 444.01 265.718C444.027 265.719 444.045 265.72 444.062 265.72Z" fill="#3051A1"/>
<path d="M457.582 239.578C457.582 239.578 456.06 242.345 455.65 243.184C455.24 244.022 452.984 244.647 453.325 242.974C453.667 241.301 454.839 238.332 454.839 238.332C454.839 238.332 457.181 236.87 457.582 239.578Z" fill="#FFAEA5"/>
<path d="M442.212 264.467C442.323 263.189 443.242 262.265 444.264 262.404C445.287 262.543 446.026 263.692 445.915 264.97C445.804 266.248 444.884 267.172 443.862 267.033C442.839 266.894 442.1 265.745 442.212 264.467Z" fill="#3051A1"/>
<path d="M512.987 162.899L512.361 180.291C506.752 171.916 510.025 160.57 510.025 160.57L512.987 162.899Z" fill="#3051A1"/>
<path opacity="0.2" d="M471.902 375.557L478.07 375.757L484.998 315.167L492.23 288.137L486.998 269.977L476.79 310.977L471.902 375.557Z" fill="#3C2F71"/>
<path d="M369.598 392.5C368.197 390.167 366.949 388.833 367.216 388H385.616C385.75 388 386.576 388.2 385.616 389C385.016 389.5 385.996 391.577 385.616 393C385.216 394.5 381.998 396 381.598 397C380.849 398.872 382.398 401 377.198 402C371.998 403 367.372 399.987 367.216 398.5C366.797 394.5 370.798 394.5 369.598 392.5Z" fill="#6B96F6"/>
<path d="M369.617 392.5C368.217 390.167 366.969 388.833 367.235 388H385.636C385.769 388 386.596 388.2 385.636 389C385.036 389.5 386.015 391.577 385.636 393C385.236 394.5 382.018 396 381.618 397C380.869 398.872 382.418 401 377.218 402C372.018 403 367.391 399.987 367.235 398.5C366.816 394.5 370.818 394.5 369.617 392.5Z" fill="#6B96F6"/>
<g filter="url(#filter2_d_2540_7105)">
<path d="M417.2 396.5C417.2 396 416.8 379.5 416 378.5H423.2C422.933 379 421.2 379.5 420.8 379.5C420 379.5 419.6 389.5 419.2 390.5C419.021 390.947 418.8 399 418.8 399C418.8 399 419.2 407.5 419.2 408C419.2 408.5 418.8 409.5 418.4 409.5C417.506 409.5 417.2 408.5 417.2 407V396.5Z" fill="#FFCB61"/>
</g>
</g>
<defs>
<filter id="filter0_d_2540_7105" x="448.734" y="169.836" width="26.8633" height="17.4609" filterUnits="userSpaceOnUse" color-interpolation-filters="sRGB">
<feFlood flood-opacity="0" result="BackgroundImageFix"/>
<feColorMatrix in="SourceAlpha" type="matrix" values="0 0 0 0 0 0 0 0 0 0 0 0 0 0 0 0 0 0 127 0" result="hardAlpha"/>
<feOffset dy="4"/>
<feGaussianBlur stdDeviation="2"/>
<feComposite in2="hardAlpha" operator="out"/>
<feColorMatrix type="matrix" values="0 0 0 0 0 0 0 0 0 0 0 0 0 0 0 0 0 0 0.25 0"/>
<feBlend mode="normal" in2="BackgroundImageFix" result="effect1_dropShadow_2540_7105"/>
<feBlend mode="normal" in="SourceGraphic" in2="effect1_dropShadow_2540_7105" result="shape"/>
</filter>
<filter id="filter1_d_2540_7105" x="445.137" y="174.633" width="26.0508" height="19.2734" filterUnits="userSpaceOnUse" color-interpolation-filters="sRGB">
<feFlood flood-opacity="0" result="BackgroundImageFix"/>
<feColorMatrix in="SourceAlpha" type="matrix" values="0 0 0 0 0 0 0 0 0 0 0 0 0 0 0 0 0 0 127 0" result="hardAlpha"/>
<feOffset dy="4"/>
<feGaussianBlur stdDeviation="2"/>
<feComposite in2="hardAlpha" operator="out"/>
<feColorMatrix type="matrix" values="0 0 0 0 0 0 0 0 0 0 0 0 0 0 0 0 0 0 0.25 0"/>
<feBlend mode="normal" in2="BackgroundImageFix" result="effect1_dropShadow_2540_7105"/>
<feBlend mode="normal" in="SourceGraphic" in2="effect1_dropShadow_2540_7105" result="shape"/>
</filter>
<filter id="filter2_d_2540_7105" x="416" y="378.5" width="8.69922" height="32.5" filterUnits="userSpaceOnUse" color-interpolation-filters="sRGB">
<feFlood flood-opacity="0" result="BackgroundImageFix"/>
<feColorMatrix in="SourceAlpha" type="matrix" values="0 0 0 0 0 0 0 0 0 0 0 0 0 0 0 0 0 0 127 0" result="hardAlpha"/>
<feOffset dx="1" dy="1"/>
<feGaussianBlur stdDeviation="0.25"/>
<feComposite in2="hardAlpha" operator="out"/>
<feColorMatrix type="matrix" values="0 0 0 0 0 0 0 0 0 0 0 0 0 0 0 0 0 0 0.1 0"/>
<feBlend mode="normal" in2="BackgroundImageFix" result="effect1_dropShadow_2540_7105"/>
<feBlend mode="normal" in="SourceGraphic" in2="effect1_dropShadow_2540_7105" result="shape"/>
</filter>
<clipPath id="clip0_2540_7105">
<rect width="600" height="500" rx="50" fill="white"/>
</clipPath>
</defs>
</svg>
