<svg width="600" height="500" viewBox="0 0 600 500" fill="none" xmlns="http://www.w3.org/2000/svg">
<g clip-path="url(#clip0_2540_7104)">
<path d="M600 0H0V500H600V0Z" fill="white"/>
<path d="M20.0101 377.016C20.0101 377.016 -15.8091 421.903 62.6229 423.014C141.055 424.125 100.067 454.725 172.181 473.163C277.149 500 324.47 439.697 395.394 445.649C539.083 457.708 609.778 429.943 572.878 377.016" fill="#3C3563"/>
<path d="M572.88 360.484H20.0117V377.016H572.88V360.484Z" fill="#6B96F6"/>
<path d="M439.477 340.141H428.738V353.564H439.477V340.141Z" fill="#DEE6ED"/>
<path d="M435.038 344.242C435.038 343.599 434.621 343.078 434.107 343.078C433.593 343.078 433.176 343.599 433.176 344.242C433.176 344.885 433.593 345.405 434.107 345.405C434.621 345.405 435.038 344.885 435.038 344.242Z" fill="#3C3563"/>
<path d="M435.038 348.702C435.038 348.059 434.621 347.539 434.107 347.539C433.593 347.539 433.176 348.06 433.176 348.702C433.176 349.345 433.593 349.866 434.107 349.866C434.621 349.866 435.038 349.344 435.038 348.702Z" fill="#3C3563"/>
<path d="M101.195 340.141H90.457V353.564H101.195V340.141Z" fill="#DEE6ED"/>
<path d="M95.8249 345.404C96.3388 345.404 96.7553 344.883 96.7553 344.241C96.7553 343.599 96.3388 343.078 95.8249 343.078C95.3111 343.078 94.8945 343.599 94.8945 344.241C94.8945 344.883 95.3111 345.404 95.8249 345.404Z" fill="#3C3563"/>
<path d="M95.8249 349.865C96.3388 349.865 96.7553 349.344 96.7553 348.702C96.7553 348.06 96.3388 347.539 95.8249 347.539C95.3111 347.539 94.8945 348.06 94.8945 348.702C94.8945 349.344 95.3111 349.865 95.8249 349.865Z" fill="#3C3563"/>
<path opacity="0.2" d="M494.528 410.273C534.63 410.273 567.139 405.777 567.139 400.23C567.139 394.684 534.63 390.188 494.528 390.188C454.427 390.188 421.918 394.684 421.918 400.23C421.918 405.777 454.427 410.273 494.528 410.273Z" fill="#432F7E"/>
<path d="M395.887 96.2422H388.016V131.201H395.887V96.2422Z" fill="#3C2F71"/>
<path d="M383.551 98.7188H378.832V131.204H383.551V98.7188Z" fill="#FFAA61"/>
<path d="M383.551 120.289H378.832V124.438H383.551V120.289Z" fill="#FFCB61"/>
<path d="M378.846 100.051L372.945 99.2109L370.007 131.445L375.908 132.286L378.846 100.051Z" fill="#FFCB61"/>
<path opacity="0.2" d="M393.009 103.938H389.27V122.358H393.009V103.938Z" fill="#3C2F71"/>
<path d="M399.398 129.75H321.273V140.891H399.398V129.75Z" fill="#6B96F6"/>
<path opacity="0.2" d="M399.398 137.406H321.273V140.894H399.398V137.406Z" fill="#3C2F71"/>
<path d="M336.426 163.328C334.538 163.328 333.008 161.415 333.008 159.055V140.891H339.845V159.055C339.845 161.414 338.314 163.328 336.426 163.328Z" fill="#3051A1"/>
<path d="M384.594 163.328C382.706 163.328 381.176 161.415 381.176 159.055V140.891H388.013V159.055C388.013 161.414 386.482 163.328 384.594 163.328Z" fill="#3051A1"/>
<path d="M298.142 82.8438H248.152V154.263H298.142V82.8438Z" fill="#FFE698"/>
<path d="M293.132 89.25H253.16V147.853H293.132V89.25Z" fill="#FFCB61"/>
<path d="M84.9583 45.4297H34.9688V86.8467H84.9583V45.4297Z" fill="#FFE698"/>
<path d="M79.9486 51.8359H39.9766V80.4369H79.9486V51.8359Z" fill="#FFCB61"/>
<path d="M145.818 45.4297H95.8281V86.8467H145.818V45.4297Z" fill="#FFE698"/>
<path d="M140.808 51.8359H100.836V80.4369H140.808V51.8359Z" fill="white"/>
<path d="M78.8848 174.263C78.8848 174.263 76.0848 175.393 73.8512 172.231C71.6176 169.069 64.6768 156.355 70.28 148.673C75.8832 140.991 87.1184 142.714 91.2416 138.788C95.364 134.862 97.5584 148.848 93.488 153.578C95.3992 155.844 93.6408 162.801 89.9344 163.637" fill="#2A3F7A"/>
<path d="M99.9979 195.998L108.798 202.998L128.499 184.56C128.499 184.56 129.221 179.206 133.646 178.187L132.952 180.057C134.167 179.698 136.267 178.905 136.267 178.905C136.495 179.101 136.445 181.153 136.566 182.42C136.828 185.154 138.207 187.587 132.473 191.142C132.473 191.142 112.908 219.006 106.997 217.07C104.586 216.28 98 202 98 202" fill="#FFADA2"/>
<path d="M95.4453 189.945L106.433 199.825L99.0221 214.165L95.4453 189.945Z" fill="#2F99B1"/>
<path d="M130.027 202.592C130.027 202.592 131.224 197.288 134.396 196.381C137.568 195.475 136.733 197.389 135.665 199.088C134.808 200.45 134.306 201.479 134.306 201.479" fill="#FFBDB4"/>
<path d="M141.844 191.434L141.704 191.055L139.064 192.5L138.877 191.805L137.984 192.328L138.624 194.488L139.457 193.964L139.199 193.003L141.844 191.434Z" fill="white"/>
<path opacity="0.2" d="M93.1712 404.825C128.299 404.825 156.776 401.258 156.776 396.858C156.776 392.458 128.299 388.891 93.1712 388.891C58.0432 388.891 29.5664 392.458 29.5664 396.858C29.5664 401.258 58.0432 404.825 93.1712 404.825Z" fill="#432F7E"/>
<path d="M46.7417 378.829L42.2065 385.933C42.2065 385.933 49.3025 397.798 48.3785 399.42C44.8569 396.285 31.4961 384.127 31.4961 384.127L38.8233 370.008L46.7417 378.829Z" fill="#6B96F6"/>
<path d="M130.796 378.445L133.083 387.818C133.083 387.818 148.189 392.018 148.413 393.989C144.133 394.75 125.211 398.112 125.211 398.112L120.66 380.247L130.796 378.445Z" fill="#6B96F6"/>
<path d="M35.4922 371.466L47.1578 383.106C47.1578 383.106 76.7426 343.465 81.1834 333.724C85.6306 323.974 91.9866 298.325 91.9866 298.325L104.576 326.873L118.794 384.312L126.272 382.909L134.763 381.318C134.763 381.318 124.747 335.22 122.297 321.313C119.841 307.415 108.798 263.258 108.798 263.258C108.798 263.258 92.1146 263.295 74.8386 266.801C71.4586 278.39 63.5306 326.871 63.5306 326.871L35.4922 371.466Z" fill="#3051A1"/>
<path d="M108.797 263.263C100.26 268.116 73.325 266.567 73.325 266.567C73.325 266.567 71.5834 257.164 68.1082 240.329C66.505 232.54 65.1874 224.014 64.5986 216.193C63.897 207.093 64.1826 198.958 66.1154 194.115C69.721 185.134 77.2954 182.914 77.2954 182.914C77.2954 182.914 86.317 181.766 91.7858 186.424C96.3274 190.281 97.4538 194.235 99.9066 204.797C100.548 207.538 101.259 211.958 102.073 217.591C103.087 224.567 104.257 233.396 105.627 243.179C105.722 243.851 105.817 244.522 105.912 245.205C106.743 251.065 107.705 257.153 108.797 263.263Z" fill="#35AEB9"/>
<path d="M105.626 243.173C75.4146 237.518 71.957 209.352 71.957 209.352L82.201 214.281L102.073 217.585C103.087 224.561 104.256 233.391 105.626 243.173Z" fill="#2F99B1"/>
<path d="M86.2795 173.609L87.5211 184.015C87.5211 184.015 91.6699 190.639 88.1067 192.866C84.3483 195.215 77.3955 187.72 76.9859 183.782C76.5763 179.844 74.6211 167.531 74.6211 167.531" fill="#FFBDB4"/>
<path d="M90.7558 153.336C90.7558 153.336 92.7774 162.794 92.6526 168.084C92.5286 173.374 90.7598 178.386 86.1535 177.87C81.547 177.354 77.1358 173.855 75.6446 169.249C73.6974 169.987 71.1326 166.399 71.1406 163.236C71.1486 160.073 73.3694 160.344 74.2054 161.895C75.0414 163.446 76.2302 165.149 76.2302 165.149L76.0094 156.543C76.0094 156.543 83.119 157.738 90.7558 153.336Z" fill="#FFBDB4"/>
<path d="M89.6211 159.797C89.6211 160.363 89.9083 160.821 90.2635 160.821C90.6179 160.821 90.9059 160.362 90.9059 159.797C90.9059 159.231 90.6187 158.773 90.2635 158.773C89.9083 158.773 89.6211 159.231 89.6211 159.797Z" fill="#2A3F7A"/>
<path d="M84.0174 162.259C84.3722 162.259 84.6598 161.8 84.6598 161.235C84.6598 160.669 84.3722 160.211 84.0174 160.211C83.6626 160.211 83.375 160.669 83.375 161.235C83.375 161.8 83.6626 162.259 84.0174 162.259Z" fill="#2A3F7A"/>
<path d="M87.9842 165.711C87.5546 165.711 87.0786 165.63 86.7906 165.331C86.7058 165.243 86.6946 165.085 86.765 164.979C86.8362 164.874 86.9626 164.86 87.0466 164.947C87.3618 165.275 88.1426 165.233 88.6034 165.158L87.1274 159.571C87.0922 159.44 87.1498 159.298 87.2546 159.255C87.3618 159.211 87.4722 159.283 87.5074 159.414L89.1298 165.554L88.905 165.607C88.8258 165.624 88.4298 165.711 87.9842 165.711Z" fill="#EE6F79"/>
<path d="M81.2055 159.27C81.0831 159.27 80.9623 159.2 80.8839 159.068C80.7519 158.846 80.7887 158.533 80.9663 158.368C82.8103 156.655 84.4399 156.99 84.5079 157.004C84.7255 157.052 84.8711 157.311 84.8319 157.583C84.7943 157.854 84.5919 158.037 84.3703 157.989C84.3119 157.979 82.9951 157.729 81.4431 159.171C81.3719 159.238 81.2887 159.27 81.2055 159.27Z" fill="#2A3F7A"/>
<path d="M87.5215 156.996C87.3583 156.996 87.2047 156.87 87.1455 156.667C87.0695 156.408 87.1767 156.121 87.3847 156.026C89.5439 155.045 91.0279 155.947 91.0903 155.986C91.2879 156.11 91.3679 156.41 91.2687 156.657C91.1703 156.904 90.9311 157.003 90.7335 156.881C90.6791 156.847 89.4743 156.141 87.6583 156.966C87.6135 156.986 87.5671 156.996 87.5215 156.996Z" fill="#2A3F7A"/>
<path d="M83.778 166.133L88.8692 168.126C88.8692 168.126 87.4964 170.617 85.326 169.344C83.1556 168.071 83.778 166.133 83.778 166.133Z" fill="white"/>
<path opacity="0.2" d="M91.9844 298.323L104.573 326.871L118.791 384.31L126.269 382.907L113.208 336.57L97.3548 280.859L91.9844 298.323Z" fill="#3C2F71"/>
<path d="M87.6769 198.978L82.3984 213.99C82.3984 213.99 97.3481 226 103.028 226C108.707 226 133.38 208.488 133.38 208.488C133.38 208.488 136.502 206.336 137.76 203.132C138.603 202.332 138.946 200.254 138.528 199.917C138.79 198.962 138.734 197.914 138.006 197.474C138.006 197.474 140.83 194.823 140.798 194.342C140.686 192.662 132.934 197.561 129.671 200.524L103.925 209.442L87.6769 198.978Z" fill="#FFBDB4"/>
<path d="M131.777 191.606L131.545 191.545C130.774 191.343 130.333 190.394 130.561 189.427L136.38 164.72L139.406 165.516L133.586 190.223C133.358 191.19 132.548 191.809 131.777 191.606Z" fill="#3C3563"/>
<path d="M136.913 176.277C136.913 176.277 132.781 176.849 132.45 178.396C132.12 179.943 134.074 180.164 134.074 180.164C134.074 180.164 133.076 180.447 132.863 181.39C132.649 182.333 133.489 182.561 133.489 182.561C133.489 182.561 132.694 182.926 132.6 183.64C132.504 184.354 133.034 184.453 133.034 184.453C133.034 184.453 132.288 185.093 132.57 185.877C132.853 186.661 134.962 185.643 135.97 184.857C136.978 184.071 136.917 182.94 136.917 182.94C136.917 182.94 137.407 181.813 137.247 181.393C138.203 180.89 137.333 179.534 137.333 179.534C137.333 179.534 139.036 176.399 136.913 176.277Z" fill="#FFADA2"/>
<path d="M144.121 169.07L131.562 165.74L133.018 159.534L141.464 161.773L143.013 165.479L144.614 166.969L144.121 169.07Z" fill="#FFE698"/>
<path d="M109.126 258.555L110.008 265.718L72.1739 273.388L71.9531 263.391L109.126 258.555Z" fill="#3C3563"/>
<path d="M79.1859 270.401L74.5763 259.177L73.4755 258.228L72.5859 254.913L73.3467 254.594L75.0587 256.771L75.1667 258.576L80.1155 270.011" fill="#E9EEF3"/>
<path d="M82.6704 268.951C82.6704 268.951 79.5064 259.097 79.2344 257.539C78.9624 255.981 81.6168 255.568 81.9408 256.658C82.2648 257.748 84.812 266.929 84.812 266.929" fill="#FFC16B"/>
<path d="M85.2286 269.081C85.2286 269.081 84.0374 258.568 84.071 256.973C84.1046 255.379 86.7606 255.77 86.867 256.925C86.9734 258.08 87.6934 267.756 87.6934 267.756" fill="#FFC16B"/>
<path d="M83.4424 266.829C83.4424 266.829 76.8256 266.147 76.1936 269.072C75.5616 271.997 73.7608 293.807 81.892 294.457C90.0232 295.107 89.2304 266.578 89.2304 266.578L83.4424 266.829Z" fill="#3C3563"/>
<path d="M91.0625 260.644L92.0321 270.079L94.8657 269.505L94.1673 260.086L91.0625 260.644Z" fill="#3051A1"/>
<path d="M101.012 259.252L101.828 267.722L105.331 267.154L104.373 258.648L101.012 259.252Z" fill="#3051A1"/>
<path d="M207.3 80.6094V131.489C207.3 134.529 205.332 136.989 202.9 136.989C200.476 136.989 198.5 134.529 198.5 131.489V80.6094C198.5 78.5394 199.428 76.7194 200.788 75.7894C201.236 75.4794 201.724 75.2694 202.244 75.1794C202.46 75.1294 202.676 75.1094 202.9 75.1094C205.332 75.1094 207.3 77.5794 207.3 80.6094Z" fill="#6B96F6"/>
<path d="M216.551 88.4219V95.8219C216.551 98.9819 215.287 101.782 213.351 103.462C212.999 103.772 212.623 104.042 212.231 104.262C211.287 104.812 210.223 105.122 209.111 105.122H202.903C201.143 105.122 199.703 103.332 199.703 101.122C199.703 98.9119 201.143 97.1219 202.903 97.1219H209.111C209.687 97.1219 210.151 96.5419 210.151 95.8219V88.4219C210.151 86.7019 211.015 85.2419 212.231 84.6819C212.575 84.5119 212.959 84.4219 213.351 84.4219C215.119 84.4219 216.551 86.2119 216.551 88.4219Z" fill="#6B96F6"/>
<path d="M206.102 112.148C206.102 114.358 204.67 116.148 202.902 116.148H197.694C195.838 116.148 194.134 115.298 192.83 113.878C192.374 113.388 191.974 112.838 191.63 112.228C190.758 110.708 190.254 108.858 190.254 106.848V91.3281C190.254 89.9681 190.798 88.7681 191.63 88.0481C191.982 87.7381 192.39 87.5181 192.83 87.4081C193.03 87.3581 193.238 87.3281 193.454 87.3281C195.222 87.3281 196.654 89.1181 196.654 91.3281V106.848C196.654 107.568 197.118 108.148 197.694 108.148H202.902C204.67 108.148 206.102 109.938 206.102 112.148Z" fill="#6B96F6"/>
<path opacity="0.2" d="M202.249 75.1797V127.55H200.793V75.7897C201.241 75.4797 201.729 75.2697 202.249 75.1797Z" fill="#3C2F71"/>
<path opacity="0.2" d="M192.833 87.4062V113.876C192.377 113.386 191.977 112.836 191.633 112.226V88.0462C191.985 87.7362 192.393 87.5162 192.833 87.4062Z" fill="#3C2F71"/>
<path opacity="0.2" d="M213.35 84.4219V103.462C212.998 103.772 212.622 104.042 212.23 104.262V84.6819C212.574 84.5119 212.958 84.4219 213.35 84.4219Z" fill="#3C2F71"/>
<path d="M216.32 122C216.24 123.95 215.912 125.82 215.376 127.55C214.944 128.96 214.368 130.28 213.68 131.49C211.128 136.02 206.952 138.96 202.248 138.96C197.544 138.96 193.376 136.02 190.824 131.49C190.136 130.28 189.56 128.96 189.128 127.55C188.592 125.82 188.264 123.95 188.184 122H216.32Z" fill="#3C3563"/>
<path opacity="0.2" d="M215.377 127.547C214.945 128.957 214.369 130.277 213.681 131.487H190.825C190.137 130.277 189.561 128.957 189.129 127.547H215.377Z" fill="#3C2F71"/>
<path d="M218.517 137.406H146.84V381.787H218.517V137.406Z" fill="#FFCB61"/>
<path d="M166.052 137.406H146.84V381.787H166.052V137.406Z" fill="#FFE698"/>
<path d="M218.516 172.062H166.051V176.878H218.516V172.062Z" fill="#FFE698"/>
<path d="M218.516 232.883H166.051V237.699H218.516V232.883Z" fill="#FFE698"/>
<path d="M218.516 293.703H166.051V298.519H218.516V293.703Z" fill="#FFE698"/>
<path d="M213.915 302.508H170.59V374.621H213.915V302.508Z" fill="#FFE698"/>
<path d="M194.27 302.508H192.117V375.362H194.27V302.508Z" fill="#FFCB61"/>
<path d="M187.274 337.834C187.274 340.249 185.708 342.207 183.776 342.207C181.844 342.207 180.277 340.249 180.277 337.834C180.277 335.419 181.844 333.461 183.776 333.461C185.708 333.461 187.274 335.418 187.274 337.834Z" fill="white"/>
<path d="M205.036 337.834C205.036 340.249 203.469 342.207 201.537 342.207C199.605 342.207 198.039 340.249 198.039 337.834C198.039 335.419 199.605 333.461 201.537 333.461C203.469 333.461 205.036 335.418 205.036 337.834Z" fill="white"/>
<path d="M162.65 174.465C162.65 173.665 162.131 173.016 161.491 173.016C160.851 173.016 160.332 173.665 160.332 174.465C160.332 175.265 160.851 175.914 161.491 175.914C162.131 175.914 162.65 175.266 162.65 174.465Z" fill="#6B96F6"/>
<path d="M162.65 235.59C162.65 234.79 162.131 234.141 161.491 234.141C160.851 234.141 160.332 234.79 160.332 235.59C160.332 236.39 160.851 237.039 161.491 237.039C162.131 237.038 162.65 236.39 162.65 235.59Z" fill="#6B96F6"/>
<path d="M149.483 237.039C150.124 237.039 150.643 236.39 150.643 235.59C150.643 234.789 150.124 234.141 149.483 234.141C148.843 234.141 148.324 234.789 148.324 235.59C148.324 236.39 148.843 237.039 149.483 237.039Z" fill="#6B96F6"/>
<path opacity="0.2" d="M218.516 237.703H208.188V293.71H218.516V237.703Z" fill="#B92F71"/>
<path opacity="0.2" d="M218.516 177.008H208.188V232.885H218.516V177.008Z" fill="#B92F71"/>
<path opacity="0.2" d="M218.516 137.445H208.188V172.065H218.516V137.445Z" fill="#B92F71"/>
<path opacity="0.2" d="M298.384 410.266C338.485 410.266 370.994 405.769 370.994 400.223C370.994 394.676 338.485 390.18 298.384 390.18C258.282 390.18 225.773 394.676 225.773 400.223C225.773 405.769 258.282 410.266 298.384 410.266Z" fill="#432F7E"/>
<path d="M421.92 268.164H340.652V388.201H421.92V268.164Z" fill="#FFE698"/>
<path d="M410.201 351.525C417.004 331.568 409.576 308.496 393.61 299.993C377.644 291.489 359.187 300.774 352.384 320.731C345.581 340.689 353.009 363.761 368.975 372.264C384.941 380.768 403.398 371.483 410.201 351.525Z" fill="#FFCB61"/>
<path d="M385.147 366.19C398.428 363.521 407.463 347.901 405.328 331.301C403.193 314.7 390.697 303.406 377.417 306.075C364.137 308.743 355.102 324.363 357.236 340.964C359.371 357.564 371.867 368.858 385.147 366.19Z" fill="#6B96F6"/>
<path d="M355.397 277H346.074V280.957H355.397V277Z" fill="#6B96F6"/>
<path d="M415.009 277H411.246V280.957H415.009V277Z" fill="#6B96F6"/>
<path d="M409.404 277H405.641V280.957H409.404V277Z" fill="#6B96F6"/>
<path d="M421.92 284.273H340.652V288.908H421.92V284.273Z" fill="#FFCB61"/>
<path d="M399.401 330.282C399.401 332.707 397.828 334.673 395.888 334.673C393.948 334.673 392.375 332.707 392.375 330.282C392.375 327.857 393.948 325.891 395.888 325.891C397.828 325.891 399.401 327.857 399.401 330.282Z" fill="white"/>
<path d="M416.46 268.195H395.887V237.008C395.887 230.186 400.311 224.656 405.768 224.656H416.46V268.195Z" fill="#FFCB61"/>
<path d="M416.46 214.883H405.586V228.476H416.46V214.883Z" fill="#FFCB61"/>
<path d="M417.053 212.391H404.945V218.178H417.053V212.391Z" fill="#6B96F6"/>
<path opacity="0.2" d="M408.36 212.391H406.801V218.178H408.36V212.391Z" fill="#3C2F71"/>
<path opacity="0.2" d="M411.778 212.391H410.219V218.178H411.778V212.391Z" fill="#3C2F71"/>
<path opacity="0.2" d="M415.196 212.391H413.637V218.178H415.196V212.391Z" fill="#3C2F71"/>
<path d="M413.952 235.242H401.207V256.525H413.952V235.242Z" fill="#FFE698"/>
<path d="M316.019 237.378C316.019 237.378 310.483 233.419 312.11 227.543C308.979 224.24 311.469 214.231 316.694 215.327C314.725 208.995 323.626 206.21 325.973 211.677C330.099 207.515 335.841 212.271 335.636 215.593C342.098 215.767 339.473 223.877 339.386 224.348C345.406 227.146 340.205 232.118 340.205 232.118C340.205 232.118 339.433 244.073 331.184 239.692" fill="#2A3F7A"/>
<path d="M330.063 274.172L337.187 282.962L340.691 285.158V297.492L333.203 295.492L323.203 289.492L330.063 274.172Z" fill="#FFAEA5"/>
<path d="M323.949 259.602L332.856 275.028L324.452 293.298L303.875 275.061L323.949 259.602Z" fill="#6284EC"/>
<path d="M325.2 288.845C324.672 294.995 324.032 301.165 323.336 306.225C322.856 309.745 322.36 312.715 321.864 314.775C305.872 322.975 284.496 313.545 284.496 313.545C284.496 313.545 286.016 283.515 293.048 267.865C300.072 252.215 312.92 247.805 312.92 247.805C312.92 247.805 325.984 254.135 326.368 264.045C326.552 268.905 326.04 278.835 325.2 288.845Z" fill="#6B96F6"/>
<path opacity="0.2" d="M325.2 288.842C324.672 294.992 324.032 301.162 323.336 306.222C301.536 298.382 302.048 274.172 302.048 274.172L325.2 288.842Z" fill="#3C2F71"/>
<path d="M388.367 326.129C391.768 324.357 393.377 319.474 391.96 315.221C390.543 310.969 386.636 308.958 383.234 310.73C379.832 312.501 378.223 317.385 379.641 321.637C381.058 325.889 384.965 327.9 388.367 326.129Z" fill="white"/>
<path d="M325.238 245.246L318.079 263.674L313.292 246.351L319.073 232.115" fill="#FFBDB4"/>
<path d="M338.024 231.239C338.024 231.239 335.662 239.948 333.31 243.892C330.958 247.836 327.374 250.353 323.81 246.553C320.246 242.754 318.042 236.498 318.776 231.882C316.314 229.4 317.537 226.801 318.656 224.548C319.654 222.539 322.684 223.393 321.983 226.996L321.261 229.775L324.788 228.58L325.235 219.526C325.235 219.526 336.549 218.637 338.024 231.239Z" fill="#FFBDB4"/>
<path d="M335.109 233.768C334.869 234.203 334.91 234.769 335.201 235.032C335.491 235.295 335.921 235.156 336.16 234.721C336.4 234.286 336.359 233.722 336.068 233.458C335.778 233.194 335.349 233.334 335.109 233.768Z" fill="#2A3F7A"/>
<path d="M328.05 230.768C327.811 231.203 327.851 231.768 328.142 232.031C328.432 232.295 328.862 232.156 329.102 231.721C329.341 231.286 329.301 230.72 329.01 230.457C328.719 230.195 328.29 230.333 328.05 230.768Z" fill="#2A3F7A"/>
<path d="M331.925 238.686L331.731 238.563C331.593 238.475 330.377 237.682 330.154 236.737C330.122 236.605 330.175 236.472 330.271 236.439C330.366 236.407 330.469 236.488 330.501 236.621C330.623 237.136 331.274 237.698 331.673 237.988L332.737 232.261C332.761 232.131 332.86 232.061 332.958 232.104C333.058 232.136 333.116 232.286 333.092 232.415L331.925 238.686Z" fill="#EE6F79"/>
<path d="M327.534 226.868C327.416 226.782 327.342 226.644 327.355 226.502C327.373 226.294 327.567 226.157 327.787 226.195C330.159 226.605 331.886 227.837 331.959 227.889C332.144 228.023 332.194 228.263 332.072 228.427C331.951 228.591 331.702 228.616 331.517 228.483C331.501 228.472 329.882 227.32 327.721 226.947C327.652 226.935 327.588 226.908 327.534 226.868Z" fill="#2A3F7A"/>
<path d="M337.458 232.379C337.388 232.321 337.334 232.24 337.307 232.146C337.289 232.084 336.836 230.617 335.065 230.281C334.849 230.239 334.685 230.024 334.704 229.797C334.722 229.571 334.912 229.421 335.129 229.462C337.451 229.901 338.037 231.896 338.061 231.98C338.124 232.206 338.007 232.425 337.799 232.47C337.678 232.496 337.554 232.458 337.458 232.379Z" fill="#2A3F7A"/>
<path d="M268.54 399.421L258.006 395.688C258.006 395.688 244.882 401.048 243.812 399.788C246.549 396.158 258.554 381.781 258.554 381.781L268.54 387.774L268.54 399.421Z" fill="white"/>
<path d="M349.202 384.915L349.48 395.834C349.48 395.834 358.075 400.026 358.073 401.863C354.083 401.858 338.84 401.894 338.84 401.894L338.95 384.883L349.202 384.915Z" fill="white"/>
<path d="M352.263 389.801L337.611 391.112L335.666 349.047L312.574 351.897L307.759 401.152H267.601L265.625 385.171L291.507 376.571C291.507 376.571 281.839 323.513 284.499 313.542C301.184 311.042 321.861 314.772 321.861 314.772C321.861 314.772 353.187 326.488 354.731 334.071C355.975 340.15 352.263 389.801 352.263 389.801Z" fill="#3051A1"/>
<path opacity="0.2" d="M312.574 351.899L314.932 331.273L340.141 338.134L345.574 390.885L337.611 391.114L335.666 349.049L312.574 351.899Z" fill="#3C2F71"/>
<path d="M355.742 316.507C356.633 315.16 356.831 313.377 356.419 311.715C356.343 312.264 356.173 312.79 355.875 313.241C354.858 314.779 352.897 314.891 351.496 313.49C350.095 312.09 349.783 309.707 350.8 308.169C351.097 307.719 351.481 307.407 351.903 307.202C350.495 307.047 349.116 307.649 348.226 308.996C346.719 311.275 347.181 314.803 349.257 316.877C351.332 318.952 354.236 318.785 355.742 316.507Z" fill="#DEE6ED"/>
<path d="M340.913 343.378C340.023 344.725 338.643 345.327 337.237 345.171C337.658 344.967 338.042 344.654 338.34 344.204C339.357 342.665 339.045 340.283 337.644 338.883C336.243 337.482 334.282 337.595 333.265 339.133C332.968 339.584 332.797 340.11 332.721 340.659C332.309 338.997 332.507 337.214 333.398 335.867C334.904 333.588 337.808 333.422 339.883 335.496C341.957 337.57 342.419 341.098 340.913 343.378Z" fill="#DEE6ED"/>
<path d="M340.094 337.621L351.805 317.281L349.35 314.385L337.64 334.724L340.094 337.621Z" fill="#DEE6ED"/>
<path d="M337.798 326.793C337.798 326.793 317.853 309.429 315.049 304.68C309.036 294.495 304.331 266.115 304.331 266.115L317.6 261.501L326.461 295.884L342.737 318.578C342.737 318.578 347.167 317.318 348.271 318.254C349.374 319.19 345.619 321.09 345.619 321.09C345.619 321.09 347.343 322.687 350.159 325.127C350.287 326.183 349.353 327.35 348.3 326.579C349.478 327.908 348.122 329.813 347.126 329.083C347.92 330.244 346.605 332.179 345.751 331.301C345.542 332.464 344.857 333.665 342.763 331.872C340.299 329.762 337.798 326.793 337.798 326.793Z" fill="#FFBDB4"/>
<path d="M330.621 240.099C330.605 240.099 330.59 240.097 330.574 240.092C328.951 239.606 328.38 238.69 328.357 238.651C328.291 238.541 328.307 238.384 328.395 238.301C328.484 238.218 328.609 238.239 328.675 238.348C328.687 238.365 329.207 239.168 330.668 239.605C330.775 239.637 330.842 239.772 330.816 239.906C330.794 240.022 330.711 240.099 330.621 240.099Z" fill="#EE6F79"/>
<path d="M317.602 261.005L324.847 288.522L308.401 294L301.605 264.754L317.602 261.005Z" fill="#6B96F6"/>
<path d="M284.495 369.25H224.949V413.071H284.495V369.25Z" fill="#4B67D6"/>
<path opacity="0.2" d="M241.794 369.25H224.949V413.071H241.794V369.25Z" fill="#3C2F71"/>
<path d="M236.936 377.06C236.936 380.135 234.942 382.628 232.482 382.628C230.022 382.628 228.027 380.135 228.027 377.06C228.027 373.985 230.022 371.492 232.482 371.492C234.942 371.492 236.936 373.985 236.936 377.06Z" fill="white"/>
<path d="M234.083 377.059H230.883V356.912C230.883 354.704 232.168 353.956 240.68 353.259C245.652 352.851 252.094 352.617 258.356 352.617C263.993 352.617 268.849 352.805 272.4 353.159C277.532 353.672 279.976 354.364 279.976 356.912V369.247H276.776V357.9C271.465 355.751 239.722 356.502 234.084 358.137V377.059H234.083Z" fill="#3051A1"/>
<path d="M234.37 377.055C234.37 375.751 233.524 374.695 232.482 374.695C231.439 374.695 230.594 375.752 230.594 377.055C230.594 378.358 231.439 379.415 232.482 379.415C233.524 379.415 234.37 378.359 234.37 377.055Z" fill="#3051A1"/>
<path d="M284.494 388.43H241.793V390.058H284.494V388.43Z" fill="#3051A1"/>
<path d="M251.436 397.88C249.62 397.88 248.148 396.04 248.148 393.771V386.219H254.723V393.771C254.723 396.04 253.251 397.88 251.436 397.88Z" fill="white"/>
<path d="M277.24 397.88C275.425 397.88 273.953 396.04 273.953 393.771V386.219H280.528V393.771C280.528 396.04 279.056 397.88 277.24 397.88Z" fill="white"/>
<path d="M274.187 433.906L274.086 433.632C273.752 432.723 274.069 431.647 274.797 431.228L293.377 420.539L294.69 424.106L276.111 434.795C275.382 435.213 274.521 434.815 274.187 433.906Z" fill="#FFCB61"/>
<path d="M295.485 431.41L290.059 416.673L294.678 414.016L298.327 423.926L297.001 427.927L297.048 430.51L295.485 431.41Z" fill="#DEE6ED"/>
<path d="M463.191 40H447.191V194H463.191V40Z" fill="#FFCB61"/>
<path d="M566.308 61.6797H549.883V122.165H566.308V61.6797Z" fill="#FFCB61"/>
<path d="M441.781 40.3906H425.355V128.426H441.781V40.3906Z" fill="#FFCB61"/>
<path d="M404.871 376.645L404.887 410.155C404.887 412.175 410.887 413.805 418.287 413.805C425.695 413.805 431.695 412.165 431.695 410.145V401.325L431.687 388.425V376.625L404.871 376.645Z" fill="white"/>
<path d="M404.875 376.641C404.876 378.661 410.877 380.296 418.281 380.293C425.684 380.29 431.685 378.649 431.685 376.629C431.684 374.609 425.682 372.974 418.279 372.977C410.875 372.98 404.874 374.621 404.875 376.641Z" fill="white"/>
<path d="M407.363 376.642C407.363 377.857 412.25 378.839 418.278 378.837C424.306 378.834 429.193 377.847 429.193 376.633C429.193 375.418 424.306 374.436 418.278 374.438C412.25 374.44 407.363 375.427 407.363 376.642Z" fill="#FFCB61"/>
<path d="M405.504 382.626C405.503 381.34 406.337 380.298 407.366 380.297C408.394 380.297 409.228 381.338 409.229 382.624C409.229 383.91 408.396 384.952 407.367 384.952C406.338 384.954 405.505 383.912 405.504 382.626Z" fill="#3051A1"/>
<path d="M421.691 390.694V403.072C426.828 403.343 431.695 401.322 431.695 401.322L431.687 388.422C431.687 388.422 427.977 390.396 421.691 390.694Z" fill="#FFE698"/>
<path d="M404.879 393.449C401.245 393.449 400.833 390.66 400.794 389.805C400.645 386.57 403.606 382.163 407.274 381.633L407.459 383.619C404.579 384.036 402.298 387.644 402.392 389.689C402.458 391.143 403.782 391.448 404.879 391.448V393.449Z" fill="#3051A1"/>
<path d="M568.937 374.372L568.921 407.882C568.921 409.902 562.921 411.532 555.521 411.532C548.113 411.532 542.113 409.892 542.113 407.872V399.052L542.121 386.152V374.352L568.937 374.372Z" fill="white"/>
<path d="M568.935 374.367C568.934 376.387 562.932 378.022 555.529 378.019C548.126 378.016 542.125 376.376 542.125 374.355C542.126 372.335 548.127 370.7 555.531 370.703C562.934 370.706 568.935 372.347 568.935 374.367Z" fill="white"/>
<path d="M566.443 374.368C566.443 375.583 561.556 376.565 555.528 376.563C549.5 376.56 544.613 375.574 544.613 374.359C544.613 373.144 549.5 372.162 555.528 372.164C561.557 372.166 566.444 373.153 566.443 374.368Z" fill="#FFCB61"/>
<path d="M568.307 380.351C568.307 379.065 567.474 378.023 566.445 378.023C565.416 378.023 564.583 379.064 564.582 380.35C564.582 381.636 565.415 382.678 566.444 382.679C567.472 382.679 568.307 381.637 568.307 380.351Z" fill="#3051A1"/>
<path d="M552.116 388.42V400.798C546.98 401.069 542.113 399.048 542.113 399.048L542.121 386.148C542.121 386.148 545.831 388.122 552.116 388.42Z" fill="#FFE698"/>
<path d="M568.931 391.174V389.174C570.028 389.174 571.351 388.869 571.418 387.415C571.512 385.37 569.232 381.762 566.352 381.345L566.536 379.359C570.204 379.89 573.164 384.297 573.016 387.532C572.976 388.386 572.565 391.174 568.931 391.174Z" fill="#3051A1"/>
<path d="M464.074 260.658C464.456 260.658 464.794 260.316 464.861 259.83C464.921 259.399 466.298 249.225 463.25 244.158C462.268 242.527 460.944 241.588 459.314 241.366C458.878 241.305 458.48 241.703 458.432 242.252C458.384 242.802 458.702 243.295 459.141 243.355C460.33 243.516 461.255 244.172 461.97 245.359C464.604 249.732 463.298 259.39 463.285 259.487C463.21 260.031 463.501 260.55 463.936 260.644C463.982 260.653 464.029 260.658 464.074 260.658Z" fill="#3051A1"/>
<path d="M464.139 240.027L490.336 227.101L487.071 208.703L458.162 233.699C458.162 233.699 453.57 237.662 452.378 238.379C451.185 239.095 451.752 243.906 452.364 244.705C453.074 245.633 454.317 245.972 455.734 245.306C456.625 246.046 457.854 245.297 457.854 245.297C459.11 245.143 459.847 244.159 460.23 243.411C460.841 242.216 459.439 242.179 459.439 242.179L459.914 241.572L461.159 241.998L464.139 240.027Z" fill="#FFAEA5"/>
<path d="M518.716 162.13C518.716 162.13 521.288 182.943 517.403 198.573C513.518 214.203 492.634 194.416 492.634 194.416L493.698 154.016C493.698 154.016 513.007 154.285 518.716 162.13Z" fill="#3051A1"/>
<path d="M507.88 375.261L508.28 383.636C508.28 383.636 497.878 387.873 497.886 389.711C501.876 389.686 518.73 389.391 518.73 389.391L517.607 373.867L507.88 375.261Z" fill="#FFCB61"/>
<path d="M466.544 372.078L466.096 382.988C466.096 382.988 457.437 386.969 457.41 388.807C461.399 388.899 476.639 389.308 476.639 389.308L476.793 372.297L466.544 372.078Z" fill="#FFCB61"/>
<path d="M464.767 375.272L471.095 375.522L471.903 375.552L478.071 375.752L484.999 315.162L492.231 288.132L505.623 377.252L518.895 377.182L514.767 310.562C514.767 310.562 516.471 274.142 512.503 258.132C496.551 254.892 478.159 255.072 478.159 255.072C478.159 255.072 469.703 298.262 468.463 305.932C467.463 312.082 464.767 375.272 464.767 375.272Z" fill="#3051A1"/>
<path d="M478.151 255.073C486.031 259.553 512.495 258.133 512.495 258.133C512.495 258.133 514.967 240.203 516.471 235.673C521.919 219.243 525.863 208.583 522.071 196.613C519.335 187.983 508.831 184.903 508.831 184.903C508.831 184.903 498.927 181.283 490.639 190.423C486.967 194.473 483.255 208.523 480.847 224.003C479.879 230.223 479.119 236.673 478.663 242.793C478.327 247.113 478.151 251.273 478.151 255.073Z" fill="#35AEB9"/>
<path opacity="0.2" d="M478.665 242.798C481.585 244.488 486.817 246.268 492.633 242.368C501.521 236.398 511.176 217.453 511.176 217.453L480.849 224.008C479.881 230.228 479.121 236.678 478.665 242.798Z" fill="#3C2F71"/>
<path d="M500.305 175.784L500.473 185.176L498.155 186.473V197.579C498.155 197.579 506.754 191.532 512.555 188.768L510.274 185.903L511.304 170.711" fill="#FFBDB4"/>
<path d="M496.414 157.609C496.414 157.609 494.548 166.34 494.663 171.223C494.777 176.106 496.41 180.733 500.662 180.256C504.915 179.779 508.986 176.55 510.362 172.298C512.159 172.979 514.527 169.667 514.52 166.747C514.512 163.827 512.462 164.078 511.691 165.509C510.92 166.94 509.885 166.045 509.885 166.045L510.025 160.569C510.025 160.569 502.244 160.33 496.414 157.609Z" fill="#FFBDB4"/>
<path d="M494.376 152.276L512.985 159.807L518.708 162.127C521.377 156.155 519.642 149.626 514.455 145.906C512.804 144.724 510.804 143.828 508.484 143.323C497.665 140.965 494.376 152.276 494.376 152.276Z" fill="#FFE698"/>
<path opacity="0.2" d="M512.985 159.807L518.708 162.127C521.377 156.155 519.642 149.626 514.455 145.906C515.238 149.881 515.359 154.942 512.985 159.807Z" fill="#62458B"/>
<path d="M497.461 163.57C497.461 164.092 497.195 164.516 496.868 164.516C496.541 164.516 496.275 164.093 496.275 163.57C496.275 163.047 496.541 162.625 496.868 162.625C497.195 162.624 497.461 163.048 497.461 163.57Z" fill="#2A3F7A"/>
<path d="M503.223 164.898C503.223 165.42 502.957 165.843 502.63 165.843C502.303 165.843 502.037 165.42 502.037 164.898C502.037 164.376 502.303 163.953 502.63 163.953C502.957 163.952 503.223 164.376 503.223 164.898Z" fill="#2A3F7A"/>
<path d="M498.971 169.052C499.371 169.052 499.816 168.977 500.084 168.696C500.169 168.608 500.18 168.45 500.11 168.344C500.039 168.239 499.912 168.225 499.828 168.312C499.569 168.582 498.904 168.581 498.421 168.506L499.778 163.369C499.812 163.238 499.756 163.096 499.651 163.053C499.545 163.007 499.432 163.081 499.398 163.212L497.895 168.901L498.12 168.954C498.193 168.972 498.558 169.052 498.971 169.052Z" fill="#EE6F79"/>
<path d="M505.228 163.124C505.351 163.124 505.471 163.054 505.55 162.922C505.682 162.7 505.645 162.387 505.467 162.222C503.755 160.631 502.239 160.941 502.175 160.956C501.957 161.004 501.811 161.263 501.851 161.535C501.888 161.806 502.09 161.988 502.312 161.941C502.37 161.93 503.573 161.708 504.991 163.025C505.062 163.092 505.146 163.124 505.228 163.124Z" fill="#2A3F7A"/>
<path d="M498.6 161.026C498.763 161.026 498.916 160.9 498.976 160.697C499.052 160.438 498.944 160.151 498.736 160.056C496.731 159.145 495.349 159.984 495.292 160.021C495.094 160.145 495.014 160.445 495.113 160.692C495.212 160.938 495.449 161.039 495.648 160.916C495.697 160.886 496.801 160.24 498.464 160.996C498.508 161.016 498.554 161.026 498.6 161.026Z" fill="#2A3F7A"/>
<path d="M502.853 169.422L498.153 171.262C498.153 171.262 499.421 173.562 501.424 172.386C503.428 171.21 502.853 169.422 502.853 169.422Z" fill="white"/>
<path d="M518.711 162.132L486.996 153.995C486.996 153.995 487.546 151.091 493.758 151.843C511.713 154.018 518.711 162.132 518.711 162.132Z" fill="#FFCB61"/>
<path d="M463.334 225.985L462.339 216L459.197 217L460.039 226.688C460.143 227.999 461.216 228.826 462.199 228.353C462.967 227.983 463.435 227.007 463.334 225.985Z" fill="#3051A1"/>
<path d="M511.697 212.033L500.678 201.14L486.675 223.46L466.826 212.92C466.826 212.92 464.614 208.307 462.705 208.246C460.795 208.184 457.64 209.725 457.64 209.725C457.64 209.725 455.35 211.087 456.688 213.326C456.214 214.005 456.218 215.584 457.251 216.331C456.611 217.254 458.32 219.401 459.549 220.547C460.661 221.583 490.532 242.716 490.532 242.716C494.206 243.14 511.697 212.033 511.697 212.033Z" fill="#FFBDB4"/>
<path d="M461.861 212.344L460.867 202.359L457.724 203.359L458.567 213.047C458.567 213.047 459.8 213.637 460.727 214.711C461.495 214.343 461.963 213.366 461.861 212.344Z" fill="#3051A1"/>
<g filter="url(#filter0_d_2540_7104)">
<path d="M449.996 190.93L450.588 198.46L455.22 197.89L462.74 196.97L466.132 196.55C467.796 196.34 469.012 194.49 468.844 192.41C468.692 190.46 467.38 189 465.844 189C465.748 189 465.644 189.01 465.54 189.02L461.804 189.48L454.18 190.42L449.996 190.93Z" fill="#FFCB61"/>
</g>
<path d="M449.997 190.926C446.522 191.353 447.305 198.861 450.59 198.457C454.301 198.001 453.717 190.468 449.997 190.926Z" fill="#FFAA61"/>
<g filter="url(#filter1_d_2540_7104)">
<path d="M463.866 200.403L448.901 202.364L448.032 195.905L449.972 195.664C449.972 195.664 450.723 194.692 449.924 193.797C448.955 193.837 447.575 193.992 446.853 194.079C446.582 194.112 446.384 194.407 446.401 194.746L447.718 205.073L464.231 202.795C464.231 202.795 464.914 201.428 463.866 200.403Z" fill="#3051A1"/>
</g>
<path d="M468.754 262.051L465.856 295.366C465.682 297.374 459.574 298.192 452.214 297.192C444.854 296.192 439.029 293.753 439.204 291.745L442.102 258.43L468.754 262.051Z" fill="#FF9F61"/>
<path d="M442.106 258.432C441.932 260.44 447.756 262.879 455.116 263.879C462.476 264.879 468.584 264.062 468.758 262.053C468.932 260.045 463.108 257.606 455.748 256.606C448.389 255.607 442.281 256.424 442.106 258.432Z" fill="#FFCB61"/>
<path d="M444.582 258.765C444.477 259.973 449.25 261.612 455.243 262.426C461.235 263.24 466.179 262.921 466.283 261.714C466.388 260.506 461.615 258.867 455.623 258.053C449.63 257.238 444.687 257.557 444.582 258.765Z" fill="#FF9800"/>
<path d="M444.062 265.72C444.48 265.72 444.832 265.315 444.86 264.785C445.522 252.154 448.397 246.635 450.692 244.228C453.041 241.766 455.188 242.032 455.278 242.042C455.711 242.1 456.111 241.711 456.162 241.165C456.214 240.619 455.906 240.124 455.469 240.057C455.355 240.038 452.609 239.652 449.721 242.637C446.001 246.482 443.828 253.89 443.263 264.655C443.234 265.206 443.568 265.682 444.01 265.718C444.027 265.719 444.045 265.72 444.062 265.72Z" fill="#3051A1"/>
<path d="M457.582 239.578C457.582 239.578 456.06 242.345 455.65 243.184C455.24 244.022 452.984 244.647 453.325 242.974C453.667 241.301 454.839 238.332 454.839 238.332C454.839 238.332 457.181 236.87 457.582 239.578Z" fill="#FFAEA5"/>
<path d="M442.212 264.467C442.323 263.189 443.242 262.265 444.264 262.404C445.287 262.543 446.026 263.692 445.915 264.97C445.804 266.248 444.884 267.172 443.862 267.033C442.839 266.894 442.1 265.745 442.212 264.467Z" fill="#3051A1"/>
<path d="M512.987 162.899L512.361 180.291C506.752 171.916 510.025 160.57 510.025 160.57L512.987 162.899Z" fill="#3051A1"/>
<path opacity="0.2" d="M471.902 375.557L478.07 375.757L484.998 315.167L492.23 288.137L486.998 269.977L476.79 310.977L471.902 375.557Z" fill="#3C2F71"/>
<path d="M367.2 392.5C368.8 391 366.968 388.833 367.235 388H385.635C385.768 388 386.595 388.2 385.635 389C385.035 389.5 386.015 391.577 385.635 393C385.235 394.5 382.017 396 381.617 397C380.868 398.872 379.476 397.907 377.996 400.5C375.998 404 371.915 402.098 368.401 401C365.201 400 365.333 394.25 367.2 392.5Z" fill="#6B96F6"/>
<g filter="url(#filter2_d_2540_7104)">
<path d="M417.2 396C417.2 395.5 416.8 379 416 378H423.2C422.933 378.5 421.2 379 420.8 379C420 379 419.2 389 419.2 390V408.5C419.2 408.5 419.208 413.902 419.6 414C421.6 414.5 418.8 416 418.4 416C417.506 416 415.6 415 417.2 414C418.8 413 417.2 397.118 417.2 396Z" fill="#FFCB61"/>
</g>
</g>
<defs>
<filter id="filter0_d_2540_7104" x="445.996" y="189" width="26.8633" height="17.4609" filterUnits="userSpaceOnUse" color-interpolation-filters="sRGB">
<feFlood flood-opacity="0" result="BackgroundImageFix"/>
<feColorMatrix in="SourceAlpha" type="matrix" values="0 0 0 0 0 0 0 0 0 0 0 0 0 0 0 0 0 0 127 0" result="hardAlpha"/>
<feOffset dy="4"/>
<feGaussianBlur stdDeviation="2"/>
<feComposite in2="hardAlpha" operator="out"/>
<feColorMatrix type="matrix" values="0 0 0 0 0 0 0 0 0 0 0 0 0 0 0 0 0 0 0.25 0"/>
<feBlend mode="normal" in2="BackgroundImageFix" result="effect1_dropShadow_2540_7104"/>
<feBlend mode="normal" in="SourceGraphic" in2="effect1_dropShadow_2540_7104" result="shape"/>
</filter>
<filter id="filter1_d_2540_7104" x="442.398" y="193.797" width="26.0508" height="19.2734" filterUnits="userSpaceOnUse" color-interpolation-filters="sRGB">
<feFlood flood-opacity="0" result="BackgroundImageFix"/>
<feColorMatrix in="SourceAlpha" type="matrix" values="0 0 0 0 0 0 0 0 0 0 0 0 0 0 0 0 0 0 127 0" result="hardAlpha"/>
<feOffset dy="4"/>
<feGaussianBlur stdDeviation="2"/>
<feComposite in2="hardAlpha" operator="out"/>
<feColorMatrix type="matrix" values="0 0 0 0 0 0 0 0 0 0 0 0 0 0 0 0 0 0 0.25 0"/>
<feBlend mode="normal" in2="BackgroundImageFix" result="effect1_dropShadow_2540_7104"/>
<feBlend mode="normal" in="SourceGraphic" in2="effect1_dropShadow_2540_7104" result="shape"/>
</filter>
<filter id="filter2_d_2540_7104" x="416" y="378" width="8.69922" height="39.5" filterUnits="userSpaceOnUse" color-interpolation-filters="sRGB">
<feFlood flood-opacity="0" result="BackgroundImageFix"/>
<feColorMatrix in="SourceAlpha" type="matrix" values="0 0 0 0 0 0 0 0 0 0 0 0 0 0 0 0 0 0 127 0" result="hardAlpha"/>
<feOffset dx="1" dy="1"/>
<feGaussianBlur stdDeviation="0.25"/>
<feComposite in2="hardAlpha" operator="out"/>
<feColorMatrix type="matrix" values="0 0 0 0 0 0 0 0 0 0 0 0 0 0 0 0 0 0 0.1 0"/>
<feBlend mode="normal" in2="BackgroundImageFix" result="effect1_dropShadow_2540_7104"/>
<feBlend mode="normal" in="SourceGraphic" in2="effect1_dropShadow_2540_7104" result="shape"/>
</filter>
<clipPath id="clip0_2540_7104">
<rect width="600" height="500" rx="50" fill="white"/>
</clipPath>
</defs>
</svg>
